<svg version="1" xmlns="http://www.w3.org/2000/svg" width="342.667" height="342.667" viewBox="0 0 257.000000 257.000000"><path d="M92.3 8.2c-.5.7-2.2 6.7-3.7 13.3-8.3 35.4-24.8 85.7-39.1 119-.7 1.6-4.7 11.1-9 21-4.2 9.9-10.4 24-13.8 31.4-5.7 12.3-6.4 13.5-9.1 13.8-1.6.2-4.5 1.2-6.5 2.3-11.7 5.9-14.5 19.7-6 29.4 9.9 11.3 27.7 8.7 34-4.9 4.2-9.1.3-19.7-9.2-24.6L26 207l6-11.8c12.9-25.9 31.5-72 45.6-113.1 3.4-10 3.3-10.2 6.9 12.9 1.4 9.1 2.8 17.6 3 19 .5 2.9 7.2 57 8.1 64.5.7 7.3 2.5 21.7 2.9 24 .2 1.1.4 2.8.4 3.8.1 2.7 4.4 3.9 8.8 2.3 9.9-3.4 9.8-4 2.8 10.2-6.3 12.9-11.5 25.1-11.5 27.1 0 1 .5 1.3 3.2 1.5.6.1 6.1-10 12.2-22.3l11.1-22.5 5.1-1.8c8.2-3 8.8-4.1 7.4-14.2l-1.2-8.4 8.3-16.4c13.1-25.9 17.4-33.1 24.3-40.4 6.5-7 16.5-14 18.8-13.1 1.2.4 2 2.5 7 19.2 11.9 40.3 21 66.6 25.2 72.9 2.6 4 6 3.9 19.6-.3 13.4-4.1 15.5-5.7 16.3-11.7.3-2-.4-5.4-2-9-11.6-28-29.5-78.9-35.7-101.4-3.6-13.3-7.4-32.3-7.9-40.1-.6-9.2-2.5-12.3-8.2-13.3-2.6-.5-8.5.3-24 3-1.6.3-3.9.7-5.1.8-4.6.6-5.4 3.2-3.5 10.6 2.7 10.2 3 37.6.6 51.5-2.7 15.8-4.8 21.6-14.4 40-22.3 42.6-21 40.4-20.9 35.9 0-1.6-.2-4.3-.5-5.9-.3-1.7-1.1-6.8-1.7-11.5-.6-4.7-1.3-9.6-1.5-11-.2-1.4-1.1-8.1-2-15-.9-6.9-1.8-13.6-2-15-.2-1.4-.9-6.3-1.5-11-1.2-8.7-1.2-9.4-3-21.5-.6-3.9-1.5-10.5-2.1-14.8-2.2-17-3.6-21.6-6.7-21.9-.9 0-2.4-.2-3.2-.2-1.6-.2-15.2 4.7-18.3 6.5-1.1.6-2.1.8-2.4.6-.2-.3 1.1-5.1 3-10.8 7.1-21.5 8.2-26 6.6-27-2.1-1.3-6.5-1.1-7.6.3z"/></svg>