<svg xmlns="http://www.w3.org/2000/svg" xmlns:xlink="http://www.w3.org/1999/xlink" viewBox="0 0 383.946 57.717"><defs><style>.a{clip-path:url(#a);}.b{fill:#e5823d;}.c{fill:#221f20;}</style><clipPath id="a"><rect width="383.946" height="57.717"/></clipPath></defs><g class="a" transform="translate(0 0)"><path class="b" d="M200,19.3a.033.033,0,0,0-.034-.034,18.411,18.411,0,0,0-25.428-6.929.033.033,0,0,0-.034.034h0L157.882,22.2a4.25,4.25,0,0,0-1.5,5.768,4.119,4.119,0,0,0,5.666,1.536l16.588-9.83a.033.033,0,0,0,.034-.034,10.259,10.259,0,0,1,14.13,3.823.033.033,0,0,0,.034.034,10.711,10.711,0,0,1-3.754,14.438h0l-16.622,9.83a4.25,4.25,0,0,0-1.5,5.768,4.119,4.119,0,0,0,5.666,1.536l16.622-9.83A19.232,19.232,0,0,0,200,19.3" transform="translate(-138.768 1.451)"/></g><g class="a" transform="translate(0 0)"><path class="b" d="M196.231,40.118a4.25,4.25,0,0,0,1.5-5.768,4.119,4.119,0,0,0-5.666-1.536l-16.588,9.83h0a.033.033,0,0,0-.034.034,10.259,10.259,0,0,1-14.13-3.823.033.033,0,0,0-.034-.034,10.69,10.69,0,0,1,3.789-14.438h0l16.588-9.83a4.25,4.25,0,0,0,1.5-5.768,4.119,4.119,0,0,0-5.666-1.536l-16.622,9.83a19.275,19.275,0,0,0-6.792,25.974.033.033,0,0,0,.034.034,18.411,18.411,0,0,0,25.428,6.929.033.033,0,0,0,.034-.034h0Z" transform="translate(-148.959 -6.021)"/></g><g class="a" transform="translate(0 0)"><path class="c" d="M181.8,32.169a5.125,5.125,0,0,0,3.14-.751,2.531,2.531,0,0,0,.99-2.116,2.581,2.581,0,0,0-.341-1.4,3.96,3.96,0,0,0-.956-1.058,8.724,8.724,0,0,0-1.5-.887,15.2,15.2,0,0,0-2.048-.785c-.751-.273-1.5-.58-2.219-.922a7.247,7.247,0,0,1-1.877-1.263,5.327,5.327,0,0,1-1.3-1.809,5.659,5.659,0,0,1-.478-2.526,5.978,5.978,0,0,1,2.048-4.813,8.422,8.422,0,0,1,5.632-1.741,13.156,13.156,0,0,1,3.652.478,10.69,10.69,0,0,1,2.526,1.024l-1.229,3.311a10.316,10.316,0,0,0-2.355-.956,11.375,11.375,0,0,0-2.662-.341,4.191,4.191,0,0,0-2.526.683,2.228,2.228,0,0,0-.922,1.911,2.6,2.6,0,0,0,.307,1.3,2.834,2.834,0,0,0,.853.956,9.323,9.323,0,0,0,1.3.785c.512.239,1.058.478,1.638.683a23.934,23.934,0,0,1,2.765,1.195,7.8,7.8,0,0,1,2.048,1.434,5.892,5.892,0,0,1,1.3,1.946,7.269,7.269,0,0,1,.444,2.731,5.743,5.743,0,0,1-2.116,4.744c-1.4,1.126-3.481,1.672-6.178,1.672a18.244,18.244,0,0,1-2.492-.171,20.179,20.179,0,0,1-2.014-.444,9.387,9.387,0,0,1-1.5-.546,7.121,7.121,0,0,1-1.024-.512l1.16-3.345a13.073,13.073,0,0,0,2.321.99,10.751,10.751,0,0,0,3.618.546" transform="translate(-93.194 7.048)"/></g><g class="a" transform="translate(0 0)"><path class="c" d="M180.13,13.019l3.857-.649v5.154h5.9V20.8h-5.9v6.963a4.978,4.978,0,0,0,.648,2.935,2.5,2.5,0,0,0,2.15.887,6.037,6.037,0,0,0,1.843-.239c.546-.137.956-.307,1.3-.41l.648,3.14a12.381,12.381,0,0,1-1.741.614,9.3,9.3,0,0,1-2.526.307,8.191,8.191,0,0,1-2.969-.478,4.2,4.2,0,0,1-1.877-1.434,5.666,5.666,0,0,1-.99-2.253,13.445,13.445,0,0,1-.273-3V13.019Z" transform="translate(-80.09 7.699)"/></g><g class="a" transform="translate(0 0)"><path class="c" d="M197.679,30.41c-.751.2-1.707.41-2.9.614a23.064,23.064,0,0,1-3.891.307,8.644,8.644,0,0,1-3.345-.58,5.181,5.181,0,0,1-2.15-1.638,6.463,6.463,0,0,1-1.16-2.492,13.121,13.121,0,0,1-.341-3.174V13.89h3.857v8.942a7.437,7.437,0,0,0,.785,3.925,3.016,3.016,0,0,0,2.731,1.16c.478,0,.956-.034,1.468-.068a6.074,6.074,0,0,0,1.16-.171V13.89h3.857V30.41Z" transform="translate(-71.017 11.367)"/></g><g class="a" transform="translate(0 0)"><path class="c" d="M203.97,36.225a23.083,23.083,0,0,1-2.867.648,20.8,20.8,0,0,1-3.652.307,9.493,9.493,0,0,1-3.516-.614,7.444,7.444,0,0,1-2.662-1.775,7.945,7.945,0,0,1-1.672-2.8,11.288,11.288,0,0,1-.58-3.686,13.516,13.516,0,0,1,.478-3.652,8.851,8.851,0,0,1,1.433-2.833,6.308,6.308,0,0,1,2.321-1.809,7.582,7.582,0,0,1,3.14-.648,6.587,6.587,0,0,1,2.116.307,12.039,12.039,0,0,1,1.6.648V12.128l3.857-.648V36.225ZM192.945,28.17a6.429,6.429,0,0,0,1.195,4.1,4.069,4.069,0,0,0,3.345,1.468c.614,0,1.126-.034,1.57-.068.444-.068.785-.1,1.058-.171V23.7a5.627,5.627,0,0,0-1.365-.683,5.161,5.161,0,0,0-1.809-.307,3.4,3.4,0,0,0-3.072,1.468,7.851,7.851,0,0,0-.922,3.993" transform="translate(-58.637 5.552)"/></g><g class="a" transform="translate(0 0)"><path class="c" d="M194.49,22.819a10.949,10.949,0,0,1,.648-3.959,8.656,8.656,0,0,1,1.741-2.833,6.92,6.92,0,0,1,2.492-1.707,7.547,7.547,0,0,1,2.867-.58,6.754,6.754,0,0,1,5.359,2.184c1.3,1.468,1.911,3.618,1.911,6.519v.751c0,.273-.034.512-.034.751H198.517a4.594,4.594,0,0,0,1.4,3.174,5.257,5.257,0,0,0,3.652,1.126,12.015,12.015,0,0,0,2.56-.273,11.884,11.884,0,0,0,1.809-.546l.512,3.243a4.852,4.852,0,0,1-.887.341,9.546,9.546,0,0,1-1.263.341c-.478.1-.99.171-1.536.239a13.748,13.748,0,0,1-1.672.1,10.06,10.06,0,0,1-3.823-.683,6.891,6.891,0,0,1-2.662-1.843,8.039,8.039,0,0,1-1.57-2.8,10.612,10.612,0,0,1-.546-3.55m11.127-1.741a4.529,4.529,0,0,0-.239-1.536,3.685,3.685,0,0,0-.649-1.263,2.859,2.859,0,0,0-1.058-.853,3.722,3.722,0,0,0-3.038.034,3.61,3.61,0,0,0-1.126.887,4.184,4.184,0,0,0-.717,1.263,7.065,7.065,0,0,0-.341,1.468h7.168Z" transform="translate(-45.438 11.005)"/></g><g class="a" transform="translate(0 0)"><path class="c" d="M199.984,14.692c.751-.2,1.707-.41,2.9-.614a23.191,23.191,0,0,1,3.925-.307,9.014,9.014,0,0,1,3.413.58,5.294,5.294,0,0,1,2.184,1.6,5.77,5.77,0,0,1,1.126,2.492,13.121,13.121,0,0,1,.341,3.174v9.591h-3.857V22.235a14.378,14.378,0,0,0-.171-2.321,4.071,4.071,0,0,0-.58-1.57,2.345,2.345,0,0,0-1.092-.887,4.762,4.762,0,0,0-1.672-.273,12.422,12.422,0,0,0-1.536.1c-.546.068-.922.137-1.161.171V31.211H199.95V14.692Z" transform="translate(-32.262 11.078)"/></g><g class="a" transform="translate(0 0)"><path class="c" d="M205.25,13.019l3.857-.649v5.154h5.9V20.8h-5.9v6.963a4.977,4.977,0,0,0,.649,2.935,2.5,2.5,0,0,0,2.15.887,6.037,6.037,0,0,0,1.843-.239c.546-.137.956-.307,1.3-.41l.649,3.14a12.385,12.385,0,0,1-1.741.614,9.3,9.3,0,0,1-2.526.307,8.192,8.192,0,0,1-2.969-.478,4.2,4.2,0,0,1-1.877-1.434,5.666,5.666,0,0,1-.99-2.253,13.445,13.445,0,0,1-.273-3V13.019Z" transform="translate(-19.472 7.699)"/></g><g class="a" transform="translate(0 0)"><path class="c" d="M214.353,28.4a5.088,5.088,0,0,0,2.219-.375,1.307,1.307,0,0,0,.683-1.3,1.636,1.636,0,0,0-.751-1.4,10.252,10.252,0,0,0-2.457-1.195c-.683-.273-1.331-.546-1.911-.819a7.234,7.234,0,0,1-1.5-1.024,3.982,3.982,0,0,1-.99-1.434,5.1,5.1,0,0,1-.375-2.048,4.418,4.418,0,0,1,1.672-3.686,7.226,7.226,0,0,1,4.574-1.365,14.688,14.688,0,0,1,2.8.273,12.219,12.219,0,0,1,2.014.546l-.683,3.208a8.7,8.7,0,0,0-1.6-.546A9.227,9.227,0,0,0,215.752,17a3.874,3.874,0,0,0-1.911.41,1.345,1.345,0,0,0-.717,1.263,1.736,1.736,0,0,0,.137.751,2.5,2.5,0,0,0,.478.614,5.471,5.471,0,0,0,.922.546c.375.171.853.375,1.4.58a19.378,19.378,0,0,1,2.321,1.024,6.406,6.406,0,0,1,1.57,1.126,4.116,4.116,0,0,1,.922,1.468,5.582,5.582,0,0,1,.273,1.946,4.16,4.16,0,0,1-1.775,3.686,8.452,8.452,0,0,1-5.017,1.263,13.8,13.8,0,0,1-3.516-.375,13.291,13.291,0,0,1-1.877-.614l.683-3.277a15.941,15.941,0,0,0,2.048.683,10.378,10.378,0,0,0,2.662.307" transform="translate(-10.519 11.054)"/></g><g class="a" transform="translate(0 0)"><path class="c" d="M217.391,26.376c.478-.512.99-1.092,1.57-1.672.546-.614,1.092-1.195,1.6-1.809.512-.58,1.024-1.16,1.5-1.741.478-.546.887-1.024,1.229-1.468h4.54c-1.058,1.229-2.184,2.492-3.345,3.789s-2.355,2.56-3.55,3.823a18.022,18.022,0,0,1,1.98,1.98c.683.785,1.365,1.6,2.014,2.457s1.263,1.741,1.843,2.594a21.258,21.258,0,0,1,1.433,2.423h-4.437c-.375-.683-.819-1.365-1.331-2.116a25.123,25.123,0,0,0-1.6-2.15c-.58-.683-1.16-1.365-1.741-1.98a12.053,12.053,0,0,0-1.741-1.57v7.816H213.5V12.108l3.857-.648V26.376Z" transform="translate(0.437 5.503)"/></g><g class="a" transform="translate(0 0)"><path class="c" d="M224.91,20.034a9.634,9.634,0,0,1,3.208.478,4.893,4.893,0,0,1,3.208,3.516,10.059,10.059,0,0,1,.341,2.765V37.134c-.58.137-1.5.273-2.7.478a28.891,28.891,0,0,1-4.062.273,11.33,11.33,0,0,1-2.73-.307,5.736,5.736,0,0,1-2.116-.956,4.523,4.523,0,0,1-1.365-1.707,5.814,5.814,0,0,1-.478-2.56,5.075,5.075,0,0,1,.546-2.492,4.632,4.632,0,0,1,1.5-1.638,7.228,7.228,0,0,1,2.219-.922,12.932,12.932,0,0,1,2.628-.273c.41,0,.853.034,1.331.068a14.128,14.128,0,0,1,1.5.273v-.648a5.4,5.4,0,0,0-.171-1.3,2.99,2.99,0,0,0-.546-1.092,3.106,3.106,0,0,0-1.058-.751,4.562,4.562,0,0,0-1.638-.273,13.76,13.76,0,0,0-2.457.2,11.666,11.666,0,0,0-1.809.444l-.478-3.208a14.833,14.833,0,0,1,2.116-.512,21.115,21.115,0,0,1,3-.2m.307,14.711a13.235,13.235,0,0,0,2.7-.2V30.171a6.528,6.528,0,0,0-.922-.2,8.109,8.109,0,0,0-1.331-.1,8.639,8.639,0,0,0-1.3.1,3.1,3.1,0,0,0-1.16.375,2.236,2.236,0,0,0-.853.751,2.583,2.583,0,0,0,.546,3.14,4.871,4.871,0,0,0,2.321.512m4.471-21.264L224.5,18.635l-1.911-1.775,4.676-5.7Z" transform="translate(11.827 4.779)"/></g><g class="a" transform="translate(0 0)"><path class="c" d="M239.439,30.41c-.751.2-1.707.41-2.9.614a23.066,23.066,0,0,1-3.891.307,8.644,8.644,0,0,1-3.345-.58,5.18,5.18,0,0,1-2.15-1.638,6.463,6.463,0,0,1-1.16-2.492,13.121,13.121,0,0,1-.341-3.174V13.89h3.857v8.942a7.437,7.437,0,0,0,.785,3.925,3.015,3.015,0,0,0,2.73,1.16c.478,0,.956-.034,1.468-.068a6.076,6.076,0,0,0,1.16-.171V13.89h3.857V30.41Z" transform="translate(29.756 11.367)"/></g><g class="a" transform="translate(0 0)"><path class="c" d="M231.034,14.692c.751-.2,1.707-.41,2.9-.614a23.191,23.191,0,0,1,3.925-.307,9.014,9.014,0,0,1,3.413.58,5.294,5.294,0,0,1,2.184,1.6,5.77,5.77,0,0,1,1.126,2.492,13.122,13.122,0,0,1,.341,3.174v9.591h-3.857V22.235a14.378,14.378,0,0,0-.171-2.321,3.87,3.87,0,0,0-.58-1.57,2.345,2.345,0,0,0-1.092-.887,4.762,4.762,0,0,0-1.672-.273,12.422,12.422,0,0,0-1.536.1c-.546.068-.922.137-1.161.171V31.211H231V14.692Z" transform="translate(42.667 11.078)"/></g><g class="a" transform="translate(0 0)"><path class="c" d="M240.906,14.157a2.392,2.392,0,0,1-.683,1.775,2.322,2.322,0,0,1-1.638.648,2.29,2.29,0,0,1-1.672-.648,2.267,2.267,0,0,1-.683-1.775,2.473,2.473,0,0,1,.683-1.809,2.345,2.345,0,0,1,1.672-.648,2.212,2.212,0,0,1,1.638.648,2.473,2.473,0,0,1,.683,1.809m-.41,22.049h-3.857V19.141H240.5Z" transform="translate(55.288 6.083)"/></g><g class="a" transform="translate(0 0)"><path class="c" d="M238.54,22.819a10.947,10.947,0,0,1,.649-3.959,8.653,8.653,0,0,1,1.741-2.833,6.919,6.919,0,0,1,2.492-1.707,7.547,7.547,0,0,1,2.867-.58,6.754,6.754,0,0,1,5.359,2.184c1.3,1.468,1.911,3.618,1.911,6.519v.751c0,.273-.034.512-.034.751H242.567a4.594,4.594,0,0,0,1.4,3.174,5.257,5.257,0,0,0,3.652,1.126,12.015,12.015,0,0,0,2.56-.273,11.881,11.881,0,0,0,1.809-.546l.512,3.243a4.853,4.853,0,0,1-.887.341,9.549,9.549,0,0,1-1.263.341c-.478.1-.99.171-1.536.239a13.749,13.749,0,0,1-1.672.1,10.06,10.06,0,0,1-3.823-.683,6.892,6.892,0,0,1-2.662-1.843,8.039,8.039,0,0,1-1.57-2.8,10.614,10.614,0,0,1-.546-3.55M249.7,21.078a4.527,4.527,0,0,0-.239-1.536,3.685,3.685,0,0,0-.648-1.263,2.86,2.86,0,0,0-1.058-.853,3.722,3.722,0,0,0-3.038.034,3.609,3.609,0,0,0-1.126.887,4.184,4.184,0,0,0-.717,1.263,7.065,7.065,0,0,0-.341,1.468H249.7Z" transform="translate(60.862 11.005)"/></g><g class="a" transform="translate(0 0)"><path class="c" d="M255.079,35.357a10.3,10.3,0,0,1-3.891-.683,6.979,6.979,0,0,1-2.7-1.877,7.674,7.674,0,0,1-1.57-2.833,11.965,11.965,0,0,1-.512-3.584V12.25h4.027V25.971a8.47,8.47,0,0,0,.341,2.628,4.878,4.878,0,0,0,.956,1.775A4.068,4.068,0,0,0,253.2,31.4a5.407,5.407,0,0,0,1.877.341,5.008,5.008,0,0,0,1.911-.341,3.38,3.38,0,0,0,1.468-1.024,4.878,4.878,0,0,0,.956-1.775,8.47,8.47,0,0,0,.341-2.628V12.25h4.027V26.38a11.966,11.966,0,0,1-.512,3.584,7.477,7.477,0,0,1-1.6,2.833,6.856,6.856,0,0,1-2.731,1.877,9.288,9.288,0,0,1-3.857.683" transform="translate(79.854 7.41)"/></g><g class="a" transform="translate(0 0)"><path class="c" d="M269.924,12.26v3.55h-6.758V34.855h-4.028V15.81H252.38V12.26Z" transform="translate(94.26 7.434)"/></g><g class="a" transform="translate(0 0)"><path class="c" d="M265.041,35.273c-1.16,0-2.355-.034-3.516-.1a15.258,15.258,0,0,1-3.106-.478V12.746c.478-.1.956-.171,1.5-.239.512-.068,1.058-.137,1.6-.171l1.638-.1c.546-.034,1.058-.034,1.536-.034a21.314,21.314,0,0,1,3.72.307,9.524,9.524,0,0,1,2.969,1.024,5.147,5.147,0,0,1,1.946,1.877,5.454,5.454,0,0,1,.683,2.9,4.749,4.749,0,0,1-.751,2.731,5.391,5.391,0,0,1-2.082,1.809,5.835,5.835,0,0,1,2.969,2.014,5.574,5.574,0,0,1,.956,3.379,5.922,5.922,0,0,1-2.492,5.222c-1.638,1.229-4.164,1.809-7.577,1.809m-2.7-13.687h2.833a7.865,7.865,0,0,0,3.584-.683,2.454,2.454,0,0,0,1.3-2.389,2.392,2.392,0,0,0-1.365-2.321,7.954,7.954,0,0,0-3.516-.683c-.614,0-1.16,0-1.638.034s-.887.068-1.229.1v5.939Zm0,3.242v6.895q.666.051,1.434.1c.512.034.99.034,1.4.034a15.608,15.608,0,0,0,2.287-.171,5.575,5.575,0,0,0,1.843-.58,3.465,3.465,0,0,0,1.229-1.092,3.113,3.113,0,0,0,.444-1.775,2.711,2.711,0,0,0-1.365-2.662,7.857,7.857,0,0,0-3.789-.751h-3.482Z" transform="translate(108.835 7.289)"/></g></svg>