<svg xmlns="http://www.w3.org/2000/svg" xmlns:xlink="http://www.w3.org/1999/xlink" viewBox="0 0 410.773 113.488"><defs><style>.a{clip-path:url(#a);}.b{fill:#221f20;}.c{fill:#e5823d;}</style><clipPath id="a"><rect width="410.773" height="113.488"/></clipPath></defs><g transform="translate(0 0)"><g class="a"><path class="b" d="M41.827,35.043c-1.195,1.536-3.174,2.321-5.973,2.321s-4.813-.785-6.041-2.321c-1.229-1.57-1.843-3.789-1.843-6.69V11.56h3.311V28.182a8.621,8.621,0,0,0,.956,4.471c.649.99,1.843,1.5,3.584,1.5s2.9-.512,3.516-1.5a8.656,8.656,0,0,0,.922-4.471V11.56h3.311V28.353c.034,2.935-.546,5.154-1.741,6.69" transform="translate(67.496 27.896)"/></g><g class="a"><path class="b" d="M43.244,31.194V20.17a3.546,3.546,0,0,0-.751-2.355,2.608,2.608,0,0,0-2.116-.887,3.041,3.041,0,0,0-2.423.922,3.413,3.413,0,0,0-.819,2.355v10.99H33.96V14.231h3.174V15.7A5.29,5.29,0,0,1,38.5,14.606a4.635,4.635,0,0,1,2.423-.546,5.271,5.271,0,0,1,3.959,1.57,6.1,6.1,0,0,1,1.536,4.437V31.194H43.244Z" transform="translate(81.951 33.929)"/></g><g class="a"><path class="b" d="M42.08,15.2a1.95,1.95,0,0,1-1.331.444A1.574,1.574,0,0,1,38.94,13.9a1.574,1.574,0,0,1,1.809-1.741,1.849,1.849,0,0,1,1.331.444,1.532,1.532,0,0,1,.478,1.263A1.636,1.636,0,0,1,42.08,15.2m-2.9,3.618h3.174V35.779H39.179Z" transform="translate(93.968 29.344)"/></g><g class="a"><path class="b" d="M49.623,31.073H46.585L40.51,14.11h3.481l4.13,12.663,4.1-12.663H55.7Z" transform="translate(97.757 34.05)"/></g><g class="a"><path class="b" d="M48.693,24.051A5.018,5.018,0,0,0,50.127,27.4a4.222,4.222,0,0,0,2.765.99,10.151,10.151,0,0,0,2.969-.375,10.613,10.613,0,0,0,2.082-.887l.546,3.106c-.2.1-.478.2-.785.341a6.2,6.2,0,0,1-1.126.375,8.525,8.525,0,0,1-1.57.307,19,19,0,0,1-2.15.137,8.158,8.158,0,0,1-2.935-.512A6.97,6.97,0,0,1,47.5,29.341a7.654,7.654,0,0,1-1.638-2.662,10.6,10.6,0,0,1-.58-3.823,11.663,11.663,0,0,1,.546-3.789,8.9,8.9,0,0,1,1.5-2.765,6.273,6.273,0,0,1,2.253-1.672,6.8,6.8,0,0,1,2.765-.58,7.313,7.313,0,0,1,2.969.58A5.938,5.938,0,0,1,57.5,16.3,7.19,7.19,0,0,1,58.83,18.9a11.735,11.735,0,0,1,.444,3.379v1.707H48.693Zm6.348-5.939a3.382,3.382,0,0,0-2.662-1.126,3.865,3.865,0,0,0-1.229.2,2.874,2.874,0,0,0-1.126.717,4.247,4.247,0,0,0-.853,1.4,7.161,7.161,0,0,0-.478,2.184h7.372a4.879,4.879,0,0,0-1.024-3.379" transform="translate(109.268 33.905)"/></g><g class="a"><path class="b" d="M57.814,17.77a2.577,2.577,0,0,0-.785-.273,4.013,4.013,0,0,0-1.16-.137,1.913,1.913,0,0,0-1.6.751,3.214,3.214,0,0,0-.58,2.082v10.99H50.51V14.221h3.174v1.945A4.991,4.991,0,0,1,54.776,14.7a2.739,2.739,0,0,1,1.945-.648,3.522,3.522,0,0,1,.887.1,4.949,4.949,0,0,1,.648.2Z" transform="translate(121.888 33.905)"/></g><g class="a"><path class="b" d="M58.294,28.172h7.2v2.9H53.14l7.919-14.3H53.481V14.11h12.39Z" transform="translate(128.235 34.05)"/></g><g class="a"><path class="b" d="M60.74,15.2a1.95,1.95,0,0,1-1.331.444A1.574,1.574,0,0,1,57.6,13.9a1.574,1.574,0,0,1,1.809-1.741,1.849,1.849,0,0,1,1.331.444,1.636,1.636,0,0,1,.478,1.331A1.547,1.547,0,0,1,60.74,15.2M57.8,18.816h3.174V35.779H57.8Z" transform="translate(138.998 29.344)"/></g><g class="a"><path class="b" d="M67.357,35.972a7.094,7.094,0,0,1-1.707.171,7.174,7.174,0,0,1-1.468-.171,3.454,3.454,0,0,1-1.331-.648,3.538,3.538,0,0,1-.99-1.365,6.333,6.333,0,0,1-.341-2.287v-10H59.37V19.009h2.15V12.421l3.174-.341v6.929h2.731v2.662H64.695v10a1.6,1.6,0,0,0,.41,1.263,1.5,1.5,0,0,0,.922.307,3.272,3.272,0,0,0,1.058-.171c.307-.1.614-.239.922-.375l.41,2.833a6.169,6.169,0,0,1-1.058.444" transform="translate(143.269 29.151)"/></g><g class="a"><path class="b" d="M71.957,31.218v-1.5l-.512.512a3.531,3.531,0,0,1-.785.546,4.323,4.323,0,0,1-1.126.41A6.81,6.81,0,0,1,68,31.355a5.847,5.847,0,0,1-4.164-1.4A5.375,5.375,0,0,1,62.4,25.928a5.743,5.743,0,0,1,.444-2.389A4.807,4.807,0,0,1,64.038,21.8a5.061,5.061,0,0,1,1.809-1.058A6.782,6.782,0,0,1,68.1,20.4a5.687,5.687,0,0,1,2.355.444,4.069,4.069,0,0,1,1.5.956V19.716a2.445,2.445,0,0,0-.853-2.15,3.672,3.672,0,0,0-2.184-.614,9.711,9.711,0,0,0-2.7.375c-.819.273-1.468.478-1.911.683l-.341-2.935c.512-.2,1.195-.41,2.048-.649a12.354,12.354,0,0,1,3.277-.375,5.957,5.957,0,0,1,4.335,1.468,5.582,5.582,0,0,1,1.5,4.232V31.184H71.957Zm0-5.734a1.831,1.831,0,0,0-.99-1.6,4.094,4.094,0,0,0-2.219-.614,3.675,3.675,0,0,0-2.116.614A2.349,2.349,0,0,0,65.745,26a2.132,2.132,0,0,0,.922,1.945,3.9,3.9,0,0,0,2.082.58,3.77,3.77,0,0,0,1.263-.2,4.877,4.877,0,0,0,1.024-.546,2.466,2.466,0,0,0,.683-.785,1.737,1.737,0,0,0,.239-.887Z" transform="translate(150.581 33.905)"/></g><g class="a"><path class="b" d="M78.86,14.8V37.227H75.55V14.8H69.44V11.56H84.97V14.8Z" transform="translate(167.57 27.896)"/></g><g class="a"><path class="b" d="M88.042,26.713a7.814,7.814,0,0,1-1.638,2.7,5.8,5.8,0,0,1-2.423,1.5,8.84,8.84,0,0,1-5.734,0,6.425,6.425,0,0,1-2.423-1.5,7.328,7.328,0,0,1-1.638-2.7,11.421,11.421,0,0,1-.614-3.993,11.421,11.421,0,0,1,.614-3.993,7.873,7.873,0,0,1,1.672-2.7,6.026,6.026,0,0,1,2.423-1.5,8.658,8.658,0,0,1,2.833-.478,8.814,8.814,0,0,1,2.833.478,6.425,6.425,0,0,1,2.423,1.5,7.873,7.873,0,0,1,1.672,2.7,11.421,11.421,0,0,1,.614,3.993,13.269,13.269,0,0,1-.614,3.993m-3.925-8.294a3.8,3.8,0,0,0-3.038-1.468,3.7,3.7,0,0,0-3.038,1.468,6.768,6.768,0,0,0-1.195,4.335,6.288,6.288,0,0,0,1.229,4.2,3.9,3.9,0,0,0,6.041,0,6.479,6.479,0,0,0,1.195-4.2,6.834,6.834,0,0,0-1.195-4.335" transform="translate(177.536 33.905)"/></g><g class="a"><path class="b" d="M97.774,31.194V20.17a3.546,3.546,0,0,0-.751-2.355,2.68,2.68,0,0,0-2.15-.887,3.118,3.118,0,0,0-2.457.922A3.413,3.413,0,0,0,91.6,20.2v10.99H88.422V20.17a3.546,3.546,0,0,0-.751-2.355,2.728,2.728,0,0,0-2.15-.887,3.118,3.118,0,0,0-2.457.922,3.413,3.413,0,0,0-.819,2.355v10.99H79.07V14.231h3.174V15.7a5.29,5.29,0,0,1,1.365-1.092,4.635,4.635,0,0,1,2.423-.546,5.52,5.52,0,0,1,2.765.648,4.73,4.73,0,0,1,1.877,1.877,6.8,6.8,0,0,1,1.809-1.741,5.063,5.063,0,0,1,2.867-.785,5.3,5.3,0,0,1,3.993,1.57,6.1,6.1,0,0,1,1.536,4.437V31.194H97.774Z" transform="translate(190.808 33.929)"/></g><g class="a"><path class="b" d="M96.093,35.707V34.2l-.512.512a3.531,3.531,0,0,1-.785.546,4.323,4.323,0,0,1-1.126.41,6.81,6.81,0,0,1-1.536.171,5.7,5.7,0,0,1-4.13-1.4,5.375,5.375,0,0,1-1.434-4.028,5.743,5.743,0,0,1,.444-2.389,5.269,5.269,0,0,1,1.195-1.741,5.061,5.061,0,0,1,1.809-1.058,6.782,6.782,0,0,1,2.253-.341,5.687,5.687,0,0,1,2.355.444,4.069,4.069,0,0,1,1.5.956V24.2a2.445,2.445,0,0,0-.853-2.15,3.671,3.671,0,0,0-2.184-.614,9.711,9.711,0,0,0-2.7.375c-.819.273-1.468.478-1.911.683l-.341-2.935c.512-.2,1.195-.41,2.048-.649a12.354,12.354,0,0,1,3.277-.375A5.957,5.957,0,0,1,97.8,20.006a5.582,5.582,0,0,1,1.5,4.232V35.673H96.093Zm0-5.734a1.831,1.831,0,0,0-.99-1.6,4.094,4.094,0,0,0-2.219-.614,3.675,3.675,0,0,0-2.116.614,2.349,2.349,0,0,0-.887,2.116A2.132,2.132,0,0,0,90.8,32.43a3.9,3.9,0,0,0,2.082.58,3.77,3.77,0,0,0,1.263-.2,4.877,4.877,0,0,0,1.024-.546,2.466,2.466,0,0,0,.683-.785,1.653,1.653,0,0,0,.239-.887v-.614Zm-2.56-13.209H90.939l3.072-4.574h3.652Z" transform="translate(208.907 29.416)"/></g><g class="a"><path class="b" d="M101.605,34.58c-.956.853-2.56,1.3-4.744,1.3a10.222,10.222,0,0,1-3.311-.444,14.422,14.422,0,0,1-2.082-.785l.546-3.038a16.685,16.685,0,0,0,2.219.887,9.224,9.224,0,0,0,2.628.375,4.407,4.407,0,0,0,1.945-.41,1.527,1.527,0,0,0,.853-1.536,1.747,1.747,0,0,0-.273-.956,2.351,2.351,0,0,0-.751-.649,4.924,4.924,0,0,0-1.058-.444c-.41-.1-.819-.239-1.263-.341a16.771,16.771,0,0,1-1.741-.512A5.39,5.39,0,0,1,93,27.174a4.122,4.122,0,0,1-1.16-1.365,4.378,4.378,0,0,1-.444-2.15,4.538,4.538,0,0,1,1.638-3.823,7.327,7.327,0,0,1,4.608-1.263,10.565,10.565,0,0,1,3.242.41c.853.273,1.434.478,1.809.614l-.512,3q-.666-.307-1.741-.717a7.738,7.738,0,0,0-2.731-.444,4.025,4.025,0,0,0-2.219.512,1.788,1.788,0,0,0-.819,1.638,1.1,1.1,0,0,0,.239.751,2.613,2.613,0,0,0,.648.546q.41.2.922.41c.341.1.751.239,1.126.341.614.171,1.229.341,1.877.58a6.651,6.651,0,0,1,1.775.887,4.361,4.361,0,0,1,1.3,1.434,4.538,4.538,0,0,1,.512,2.287,4.978,4.978,0,0,1-1.468,3.754M99.011,16.764H95.905L92.663,12.19H95.8l1.775,2.594,1.809-2.594h2.969Z" transform="translate(220.562 29.416)"/></g><g class="a"><path class="b" d="M99.013,24.051a5.018,5.018,0,0,0,1.434,3.345,4.222,4.222,0,0,0,2.765.99,10.151,10.151,0,0,0,2.969-.375,10.612,10.612,0,0,0,2.082-.887l.546,3.106c-.2.1-.478.2-.785.341a6.2,6.2,0,0,1-1.126.375,8.525,8.525,0,0,1-1.57.307,19,19,0,0,1-2.15.137,8.158,8.158,0,0,1-2.935-.512,6.97,6.97,0,0,1-2.423-1.536,7.654,7.654,0,0,1-1.638-2.662,10.6,10.6,0,0,1-.58-3.823,11.663,11.663,0,0,1,.546-3.789,8.9,8.9,0,0,1,1.5-2.765A6.273,6.273,0,0,1,99.9,14.63a6.8,6.8,0,0,1,2.765-.58,7.313,7.313,0,0,1,2.969.58,5.855,5.855,0,0,1,2.184,1.672A7.19,7.19,0,0,1,109.15,18.9a11.736,11.736,0,0,1,.444,3.379v1.707H99.013Zm6.383-5.939a3.382,3.382,0,0,0-2.662-1.126,3.866,3.866,0,0,0-1.229.2,2.874,2.874,0,0,0-1.126.717,4.247,4.247,0,0,0-.853,1.4,7.161,7.161,0,0,0-.478,2.184h7.372a5.244,5.244,0,0,0-1.024-3.379" transform="translate(230.698 33.905)"/></g><g class="a"><path class="b" d="M116.052,35.281a8.5,8.5,0,0,1-5.9,1.945h-7V11.56h7.509a7.717,7.717,0,0,1,5.427,1.809,6.481,6.481,0,0,1,1.945,5.017,5.422,5.422,0,0,1-1.024,3.481,7.365,7.365,0,0,1-2.594,2.048,5.931,5.931,0,0,1,2.731,2.287,6.5,6.5,0,0,1,1.024,3.618,6.839,6.839,0,0,1-2.116,5.461m-2.526-19.557a4.1,4.1,0,0,0-2.765-.922h-4.266V22.38h3.789a4.979,4.979,0,0,0,3.14-.922,3.4,3.4,0,0,0,1.195-2.833,3.61,3.61,0,0,0-1.092-2.9m-.034,10.99a4.688,4.688,0,0,0-3.242-1.126h-3.789v8.4h3.789a4.758,4.758,0,0,0,3.242-1.058,3.763,3.763,0,0,0,1.263-3.038,4.091,4.091,0,0,0-1.263-3.174" transform="translate(248.917 27.896)"/></g><g class="a"><path class="b" d="M118.007,31.218v-1.5l-.512.512a3.531,3.531,0,0,1-.785.546,4.323,4.323,0,0,1-1.126.41,6.81,6.81,0,0,1-1.536.171,5.847,5.847,0,0,1-4.164-1.4,5.375,5.375,0,0,1-1.434-4.028,5.743,5.743,0,0,1,.444-2.389,4.807,4.807,0,0,1,1.195-1.741A5.062,5.062,0,0,1,111.9,20.74a6.782,6.782,0,0,1,2.253-.341,5.687,5.687,0,0,1,2.355.444,4.069,4.069,0,0,1,1.5.956V19.716a2.445,2.445,0,0,0-.853-2.15,3.672,3.672,0,0,0-2.184-.614,9.711,9.711,0,0,0-2.7.375c-.819.273-1.468.478-1.911.683l-.341-2.935c.512-.2,1.195-.41,2.048-.649a12.354,12.354,0,0,1,3.277-.375,5.957,5.957,0,0,1,4.335,1.468,5.582,5.582,0,0,1,1.5,4.232V31.184h-3.174Zm0-5.734a1.831,1.831,0,0,0-.99-1.6,4.093,4.093,0,0,0-2.219-.614,3.675,3.675,0,0,0-2.116.614A2.349,2.349,0,0,0,111.795,26a2.132,2.132,0,0,0,.922,1.945,3.9,3.9,0,0,0,2.082.58,3.77,3.77,0,0,0,1.263-.2,4.878,4.878,0,0,0,1.024-.546,2.107,2.107,0,0,0,.683-.785,1.653,1.653,0,0,0,.239-.887v-.614Z" transform="translate(261.707 33.905)"/></g><g class="a"><path class="b" d="M120.981,35.948a7.094,7.094,0,0,1-1.707.171,7.174,7.174,0,0,1-1.468-.171,3.455,3.455,0,0,1-1.331-.649,3.538,3.538,0,0,1-.99-1.365,5.355,5.355,0,0,1-.375-2.253v-10h-2.15V19.019h2.15V12.431l3.174-.341v6.929h2.731v2.662h-2.731v10a1.6,1.6,0,0,0,.41,1.263,1.5,1.5,0,0,0,.922.307,3.272,3.272,0,0,0,1.058-.171c.307-.1.614-.239.922-.375l.41,2.833a7.942,7.942,0,0,1-1.024.41" transform="translate(272.59 29.175)"/></g><g class="a"><path class="b" d="M119.37,15.2a1.95,1.95,0,0,1-1.331.444A1.574,1.574,0,0,1,116.23,13.9a1.574,1.574,0,0,1,1.809-1.741,1.849,1.849,0,0,1,1.331.444,1.7,1.7,0,0,1,.478,1.331,1.449,1.449,0,0,1-.478,1.263m-2.9,3.618h3.174V35.779h-3.174Z" transform="translate(280.481 29.344)"/></g><g class="a"><path class="b" d="M129.333,31.073H126.3L120.22,14.11h3.516l4.1,12.663,4.1-12.663h3.481Z" transform="translate(290.11 34.05)"/></g><g class="a"><path class="b" d="M128.4,24.051a5.018,5.018,0,0,0,1.434,3.345,4.222,4.222,0,0,0,2.765.99,10.151,10.151,0,0,0,2.969-.375,10.613,10.613,0,0,0,2.082-.887l.546,3.106c-.2.1-.478.2-.785.341a6.2,6.2,0,0,1-1.126.375,8.526,8.526,0,0,1-1.57.307,19,19,0,0,1-2.15.137,8.158,8.158,0,0,1-2.935-.512,6.97,6.97,0,0,1-2.423-1.536,7.654,7.654,0,0,1-1.638-2.662,10.6,10.6,0,0,1-.58-3.823,11.663,11.663,0,0,1,.546-3.789,8.9,8.9,0,0,1,1.5-2.765,6.273,6.273,0,0,1,2.253-1.672,6.8,6.8,0,0,1,2.765-.58,7.313,7.313,0,0,1,2.969.58,5.938,5.938,0,0,1,2.184,1.672A7.77,7.77,0,0,1,138.54,18.9a11.735,11.735,0,0,1,.444,3.379v1.707H128.4Zm6.383-5.939a3.334,3.334,0,0,0-2.662-1.126,3.865,3.865,0,0,0-1.229.2,2.874,2.874,0,0,0-1.126.717,4.248,4.248,0,0,0-.853,1.4,7.161,7.161,0,0,0-.478,2.184h7.372a5.244,5.244,0,0,0-1.024-3.379" transform="translate(301.62 33.905)"/></g><g class="a"><path class="b" d="M136.945,33.984h9.693v3.243H132.03L142.406,14.8h-9.693V11.56h14.643Z" transform="translate(318.609 27.896)"/></g><g class="a"><rect class="b" width="3.174" height="25.667" transform="translate(468.695 39.456)"/></g><g class="a"><path class="b" d="M142.1,16.764H139.47l3.072-4.574h3.652Zm-2.048,1.98h3.174V35.707H140.05Z" transform="translate(336.563 29.416)"/></g><g class="a"><path class="b" d="M151.234,31.194V20.17a3.546,3.546,0,0,0-.751-2.355,2.608,2.608,0,0,0-2.116-.887,3.041,3.041,0,0,0-2.423.922,3.412,3.412,0,0,0-.819,2.355v10.99H141.95V14.231h3.174V15.7a5.292,5.292,0,0,1,1.365-1.092,4.635,4.635,0,0,1,2.423-.546,5.271,5.271,0,0,1,3.959,1.57,6.1,6.1,0,0,1,1.536,4.437V31.194h-3.174Z" transform="translate(342.547 33.929)"/></g><g class="a"><path class="b" d="M150.079,28.539a5.185,5.185,0,0,0,1.434,3.345,4.222,4.222,0,0,0,2.765.99,10.15,10.15,0,0,0,2.969-.375,10.613,10.613,0,0,0,2.082-.887l.546,3.106c-.2.1-.478.2-.785.341a6.2,6.2,0,0,1-1.126.375,8.525,8.525,0,0,1-1.57.307,19,19,0,0,1-2.15.137,8.158,8.158,0,0,1-2.935-.512,6.97,6.97,0,0,1-2.423-1.536,7.124,7.124,0,0,1-1.6-2.662,10.6,10.6,0,0,1-.58-3.823,11.663,11.663,0,0,1,.546-3.789,8.9,8.9,0,0,1,1.5-2.765A6.273,6.273,0,0,1,151,19.119a6.8,6.8,0,0,1,2.765-.58,7.313,7.313,0,0,1,2.969.58,5.938,5.938,0,0,1,2.184,1.672,7.19,7.19,0,0,1,1.331,2.594,12.858,12.858,0,0,1,.444,3.379v1.707H150.079Zm5.768-11.775h-3.14l-3.277-4.574H152.6l1.775,2.594,1.809-2.594h3Zm.614,5.837a3.382,3.382,0,0,0-2.662-1.126,3.865,3.865,0,0,0-1.229.2,2.874,2.874,0,0,0-1.126.717,4.248,4.248,0,0,0-.853,1.4,7.16,7.16,0,0,0-.478,2.184h7.372a5.244,5.244,0,0,0-1.024-3.379" transform="translate(354.01 29.416)"/></g><g class="a"><path class="c" d="M13.73,9.58v9.011L39.568,9.682v-.1Z" transform="translate(33.133 23.118)"/></g><g class="a"><path class="c" d="M13.73,50.875v.751c0,2.355,2.082,3.584,4.574,3.584a10.9,10.9,0,0,0,2.526-.444c.683-.239,24.916-8.84,24.916-8.84V10.6L20.9,19.44a7.194,7.194,0,0,1-2.492.444c-2.457,0-4.505-1.229-4.505-2.492h-.1V50.875Z" transform="translate(33.133 25.58)"/></g></g></svg>