<svg xmlns="http://www.w3.org/2000/svg" width="1097.229" height="853.948" viewBox="0 0 1097.229 853.948"><g transform="translate(-7413.133 2779.23)"><g transform="translate(7413.133 -2779.23)"><path d="M7463.282-2414.845l7.323,4.316,8.139,5.939,13.284,5.482,9.125,3.138,9.846,2.408,6.511,4.318,2.446,3.425-.262,3.792-1.167,2.982.726,1.623-2.166.457-21.577-.13-21.756.322-11.646-.063-6.145-2.513-7.23-3.42-4.335-.705-1,4.516-.273,2.168-16.411-.052-9.3-.249-.093-1.173-.278-3.159-1-3.157-1.722-2.7-.911-3.248-.283-5.145.621-4.786,2.154-4.97,4.767-7.775,5.42,1.341,8.312,2.612,4.786.531,5.328.258,4.873-.643,7.758-2.553Z" transform="translate(-7413.132 2414.845)" fill="#ff54cc"/><path d="M7714.565-2414.845l7.322,4.316,8.14,5.939,13.284,5.482,9.125,3.138,9.846,2.408,6.511,4.318,2.445,3.425-.262,3.792-1.167,2.982.727,1.623-2.165.457-21.577-.13-21.757.322-11.646-.063-6.145-2.513-7.23-3.42-4.335-.705-1,4.516-.271,2.168-16.412-.052-9.3-.249-.094-1.173-.277-3.159-1-3.157-1.722-2.7-.91-3.248-.283-5.145.621-4.786,2.155-4.97,4.766-7.775,5.42,1.341,8.312,2.612,4.786.531,5.327.258,4.874-.643,7.758-2.553Z" transform="translate(-7533.141 2414.845)" fill="#ff54cc"/><path d="M7965.849-2414.845l7.322,4.316,8.139,5.939,13.284,5.482,9.126,3.138,9.846,2.408,6.51,4.318,2.446,3.425-.262,3.792-1.167,2.982.726,1.623-2.166.457-21.577-.13-21.757.322-11.646-.063-6.145-2.513-7.23-3.42-4.335-.705-1,4.516-.272,2.168-16.411-.052-9.3-.249-.093-1.173-.279-3.159-1-3.157-1.722-2.7-.911-3.248-.283-5.145.621-4.786,2.154-4.97,4.766-7.775,5.42,1.341,8.312,2.612,4.786.531,5.327.258,4.873-.643,7.758-2.553Z" transform="translate(-7653.15 2414.845)" fill="#ff54cc"/><path d="M8217.131-2414.845l7.322,4.316,8.139,5.939,13.285,5.482,9.125,3.138,9.846,2.408,6.512,4.318,2.444,3.425-.261,3.792-1.168,2.982.727,1.623-2.166.457-21.576-.13-21.757.322-11.646-.063-6.146-2.513-7.229-3.42-4.336-.705-1,4.516-.271,2.168-16.412-.052-9.3-.249-.093-1.173-.278-3.159-1-3.157-1.722-2.7-.911-3.248-.282-5.145.62-4.786,2.155-4.97,4.766-7.775,5.42,1.341,8.313,2.612,4.785.531,5.327.258,4.875-.643,7.757-2.553Z" transform="translate(-7773.159 2414.845)" fill="#ff54cc"/><path d="M8468.413-2414.845l7.323,4.316,8.139,5.939,13.285,5.482,9.125,3.138,9.846,2.408,6.511,4.318,2.445,3.425-.262,3.792-1.167,2.982.726,1.623-2.164.457-21.578-.13-21.757.322-11.646-.063-6.145-2.513-7.231-3.42-4.335-.705-1,4.516-.272,2.168-16.411-.052-9.3-.249-.093-1.173-.278-3.159-1-3.157-1.722-2.7-.909-3.248-.283-5.145.621-4.786,2.153-4.97,4.768-7.775,5.42,1.341,8.312,2.612,4.786.531,5.326.258,4.874-.643,7.759-2.553Z" transform="translate(-7893.167 2414.845)" fill="#ff54cc"/><path d="M8719.7-2414.845l7.323,4.316,8.139,5.939,13.283,5.482,9.126,3.138,9.846,2.408,6.511,4.318,2.445,3.425-.263,3.792-1.165,2.982.726,1.623-2.165.457-21.577-.13-21.757.322-11.646-.063-6.145-2.513-7.23-3.42-4.335-.705-1,4.516-.271,2.168-16.411-.052-9.3-.249-.091-1.173-.279-3.159-1-3.157-1.722-2.7-.91-3.248-.282-5.145.62-4.786,2.154-4.97,4.768-7.775,5.42,1.341,8.311,2.612,4.786.531,5.327.258,4.874-.643,7.758-2.553Z" transform="translate(-8013.176 2414.845)" fill="#ff54cc"/><path d="M8970.978-2414.845l7.323,4.316,8.14,5.939,13.283,5.482,9.127,3.138,9.847,2.408,6.509,4.318,2.446,3.425-.262,3.792-1.167,2.982.727,1.623-2.167.457-21.576-.13-21.757.322-11.646-.063-6.146-2.513-7.23-3.42-4.335-.705-1,4.516-.272,2.168-16.411-.052-9.3-.249-.092-1.173-.278-3.159-1-3.157-1.723-2.7-.911-3.248-.281-5.145.62-4.786,2.155-4.97,4.767-7.775,5.419,1.341,8.313,2.612,4.786.531,5.326.258,4.874-.643,7.759-2.553Z" transform="translate(-8133.184 2414.845)" fill="#ff54cc"/><path d="M9222.262-2414.845l7.322,4.316,8.139,5.939,13.285,5.482,9.125,3.138,9.846,2.408,6.512,4.318,2.445,3.425-.262,3.792-1.166,2.982.725,1.623-2.166.457-21.576-.13-21.756.322-11.646-.063-6.146-2.513-7.229-3.42-4.334-.705-1,4.516-.271,2.168-16.412-.052-9.3-.249-.094-1.173-.277-3.159-1-3.157-1.723-2.7-.91-3.248-.283-5.145.621-4.786,2.154-4.97,4.766-7.775,5.42,1.341,8.313,2.612,4.787.531,5.326.258,4.875-.643,7.756-2.553Z" transform="translate(-8253.191 2414.845)" fill="#ff54cc"/></g><g transform="translate(7484.62 -2716.171)"><path d="M7600.122-2294.137l7.322,4.316,8.14,5.939,13.283,5.482,9.125,3.138,9.847,2.408,6.51,4.318,2.446,3.425-.263,3.792-1.167,2.982.727,1.623-2.166.457-21.576-.13-21.757.322-11.646-.063-6.145-2.513-7.23-3.42-4.335-.706-1,4.517-.272,2.167-16.411-.052-9.3-.249-.092-1.174-.278-3.159-1-3.157-1.721-2.7-.91-3.248-.283-5.145.62-4.786,2.156-4.97,4.766-7.775,5.42,1.342,8.312,2.612,4.787.53,5.327.258,4.874-.644,7.758-2.552Z" transform="translate(-7549.971 2294.137)" fill="#ff54cc"/><path d="M7851.4-2294.137l7.322,4.316,8.139,5.939,13.284,5.482,9.126,3.138,9.846,2.408,6.51,4.318,2.446,3.425-.263,3.792-1.166,2.982.727,1.623-2.166.457-21.576-.13-21.757.322-11.646-.063-6.145-2.513-7.23-3.42-4.336-.706-1,4.517-.272,2.167-16.411-.052-9.3-.249-.094-1.174-.278-3.159-1-3.157-1.722-2.7-.91-3.248-.284-5.145.621-4.786,2.155-4.97,4.767-7.775,5.42,1.342,8.312,2.612,4.786.53,5.327.258,4.874-.644,7.758-2.552Z" transform="translate(-7669.979 2294.137)" fill="#ff54cc"/><path d="M8102.687-2294.137l7.323,4.316,8.139,5.939,13.284,5.482,9.126,3.138,9.845,2.408,6.511,4.318,2.446,3.425-.262,3.792-1.166,2.982.725,1.623-2.166.457-21.577-.13-21.756.322-11.646-.063-6.146-2.513-7.23-3.42-4.334-.706-1,4.517-.272,2.167-16.411-.052-9.3-.249-.093-1.174-.279-3.159-1-3.157-1.722-2.7-.911-3.248-.282-5.145.621-4.786,2.154-4.97,4.766-7.775,5.42,1.342,8.312,2.612,4.785.53,5.328.258,4.873-.644,7.758-2.552Z" transform="translate(-7789.989 2294.137)" fill="#ff54cc"/><path d="M8353.969-2294.137l7.322,4.316,8.141,5.939,13.283,5.482,9.125,3.138,9.848,2.408,6.51,4.318,2.445,3.425-.262,3.792-1.166,2.982.725,1.623-2.164.457-21.578-.13-21.756.322-11.646-.063-6.145-2.513-7.23-3.42-4.335-.706-1,4.517-.273,2.167-16.41-.052-9.3-.249-.094-1.174-.277-3.159-1-3.157-1.723-2.7-.91-3.248-.282-5.145.62-4.786,2.156-4.97,4.766-7.775,5.42,1.342,8.313,2.612,4.785.53,5.328.258,4.873-.644,7.758-2.552Z" transform="translate(-7909.997 2294.137)" fill="#ff54cc"/><path d="M8605.252-2294.137l7.323,4.316,8.139,5.939L8634-2278.4l9.126,3.138,9.845,2.408,6.512,4.318,2.445,3.425-.263,3.792-1.166,2.982.727,1.623-2.166.457-21.576-.13-21.758.322-11.646-.063-6.144-2.513-7.23-3.42-4.336-.706-1,4.517-.272,2.167-16.411-.052-9.3-.249-.093-1.174-.278-3.159-1-3.157-1.722-2.7-.909-3.248-.284-5.145.621-4.786,2.155-4.97,4.766-7.775,5.42,1.342,8.313,2.612,4.785.53,5.328.258,4.872-.644,7.759-2.552Z" transform="translate(-8030.005 2294.137)" fill="#ff54cc"/><path d="M8856.535-2294.137l7.323,4.316,8.138,5.939,13.285,5.482,9.125,3.138,9.846,2.408,6.511,4.318,2.445,3.425-.262,3.792-1.167,2.982.727,1.623-2.166.457-21.577-.13-21.756.322-11.646-.063-6.145-2.513-7.23-3.42-4.335-.706-1,4.517-.271,2.167-16.412-.052-9.3-.249-.093-1.174-.278-3.159-1-3.157-1.721-2.7-.911-3.248-.282-5.145.62-4.786,2.154-4.97,4.767-7.775,5.421,1.342,8.312,2.612,4.785.53,5.328.258,4.873-.644,7.758-2.552Z" transform="translate(-8150.015 2294.137)" fill="#ff54cc"/><path d="M9107.816-2294.137l7.323,4.316,8.14,5.939,13.284,5.482,9.126,3.138,9.847,2.408,6.509,4.318,2.446,3.425-.262,3.792-1.167,2.982.726,1.623-2.165.457-21.578-.13-21.756.322-11.646-.063-6.144-2.513-7.231-3.42-4.335-.706-1,4.517-.272,2.167-16.41-.052-9.3-.249-.093-1.174-.278-3.159-1-3.157-1.723-2.7-.908-3.248-.284-5.145.621-4.786,2.155-4.97,4.767-7.775,5.419,1.342,8.313,2.612,4.786.53,5.326.258,4.874-.644,7.759-2.552Z" transform="translate(-8270.021 2294.137)" fill="#ff54cc"/><path d="M9359.1-2294.137l7.323,4.316,8.139,5.939,13.283,5.482,9.127,3.138,9.845,2.408,6.512,4.318,2.444,3.425-.262,3.792-1.165,2.982.726,1.623-2.166.457-21.577-.13-21.757.322-11.646-.063-6.145-2.513-7.23-3.42-4.334-.706-1,4.517-.271,2.167-16.411-.052-9.3-.249-.092-1.174-.278-3.159-1-3.157-1.723-2.7-.91-3.248-.282-5.145.62-4.786,2.155-4.97,4.766-7.775,5.421,1.342,8.311,2.612,4.786.53,5.327.258,4.874-.644,7.757-2.552Z" transform="translate(-8390.031 2294.137)" fill="#ff54cc"/></g><g transform="translate(7413.133 -2653.495)"><path d="M7463.282-2174.164l7.323,4.316,8.139,5.939,13.284,5.482,9.125,3.138,9.846,2.408,6.511,4.318,2.446,3.425-.262,3.792-1.167,2.982.726,1.623-2.166.456-21.577-.129-21.756.322-11.646-.062-6.145-2.513-7.23-3.42-4.335-.706-1,4.516-.273,2.167-16.411-.052-9.3-.249-.093-1.174-.278-3.159-1-3.158-1.722-2.7-.911-3.248-.283-5.145.621-4.786,2.154-4.97,4.767-7.775,5.42,1.342,8.312,2.612,4.786.53,5.328.258,4.873-.644,7.758-2.552Z" transform="translate(-7413.132 2174.164)" fill="#ff54cc"/><path d="M7714.565-2174.164l7.322,4.316,8.14,5.939,13.284,5.482,9.125,3.138,9.846,2.408,6.511,4.318,2.445,3.425-.262,3.792-1.167,2.982.727,1.623-2.165.456-21.577-.129-21.757.322-11.646-.062-6.145-2.513-7.23-3.42-4.335-.706-1,4.516-.271,2.167-16.412-.052-9.3-.249-.094-1.174-.277-3.159-1-3.158-1.722-2.7-.91-3.248-.283-5.145.621-4.786,2.155-4.97,4.766-7.775,5.42,1.342,8.312,2.612,4.786.53,5.327.258,4.874-.644,7.758-2.552Z" transform="translate(-7533.141 2174.164)" fill="#ff54cc"/><path d="M7965.849-2174.164l7.322,4.316,8.139,5.939,13.284,5.482,9.126,3.138,9.846,2.408,6.51,4.318,2.446,3.425-.262,3.792-1.167,2.982.726,1.623-2.166.456-21.577-.129-21.757.322-11.646-.062-6.145-2.513-7.23-3.42-4.335-.706-1,4.516-.272,2.167-16.411-.052-9.3-.249-.093-1.174-.279-3.159-1-3.158-1.722-2.7-.911-3.248L7915.7-2155l.621-4.786,2.154-4.97,4.766-7.775,5.42,1.342,8.312,2.612,4.786.53,5.327.258,4.873-.644,7.758-2.552Z" transform="translate(-7653.15 2174.164)" fill="#ff54cc"/><path d="M8217.131-2174.164l7.322,4.316,8.139,5.939,13.285,5.482,9.125,3.138,9.846,2.408,6.512,4.318,2.444,3.425-.261,3.792-1.168,2.982.727,1.623-2.166.456-21.576-.129-21.757.322-11.646-.062-6.146-2.513-7.229-3.42-4.336-.706-1,4.516-.271,2.167-16.412-.052-9.3-.249-.093-1.174-.278-3.159-1-3.158-1.722-2.7-.911-3.248-.282-5.145.62-4.786,2.155-4.97,4.766-7.775,5.42,1.342,8.313,2.612,4.785.53,5.327.258,4.875-.644,7.757-2.552Z" transform="translate(-7773.159 2174.164)" fill="#ff54cc"/><path d="M8468.413-2174.164l7.323,4.316,8.139,5.939,13.285,5.482,9.125,3.138,9.846,2.408,6.511,4.318,2.445,3.425-.262,3.792-1.167,2.982.726,1.623-2.164.456-21.578-.129-21.757.322-11.646-.062-6.145-2.513-7.231-3.42-4.335-.706-1,4.516-.272,2.167-16.411-.052-9.3-.249-.093-1.174-.278-3.159-1-3.158-1.722-2.7-.909-3.248-.283-5.145.621-4.786,2.153-4.97,4.768-7.775,5.42,1.342,8.312,2.612,4.786.53,5.326.258,4.874-.644,7.759-2.552Z" transform="translate(-7893.167 2174.164)" fill="#ff54cc"/><path d="M8719.7-2174.164l7.323,4.316,8.139,5.939,13.283,5.482,9.126,3.138,9.846,2.408,6.511,4.318,2.445,3.425-.263,3.792-1.165,2.982.726,1.623-2.165.456-21.577-.129-21.757.322-11.646-.062-6.145-2.513-7.23-3.42-4.335-.706-1,4.516-.271,2.167-16.411-.052-9.3-.249-.091-1.174-.279-3.159-1-3.158-1.722-2.7-.91-3.248-.282-5.145.62-4.786,2.154-4.97,4.768-7.775,5.42,1.342,8.311,2.612,4.786.53,5.327.258,4.874-.644,7.758-2.552Z" transform="translate(-8013.176 2174.164)" fill="#ff54cc"/><path d="M8970.978-2174.164l7.323,4.316,8.14,5.939,13.283,5.482,9.127,3.138,9.847,2.408,6.509,4.318,2.446,3.425-.262,3.792-1.167,2.982.727,1.623-2.167.456-21.576-.129-21.757.322-11.646-.062-6.146-2.513-7.23-3.42-4.335-.706-1,4.516-.272,2.167-16.411-.052-9.3-.249-.092-1.174-.278-3.159-1-3.158-1.723-2.7-.911-3.248-.281-5.145.62-4.786,2.155-4.97,4.767-7.775,5.419,1.342,8.313,2.612,4.786.53,5.326.258,4.874-.644,7.759-2.552Z" transform="translate(-8133.184 2174.164)" fill="#ff54cc"/><path d="M9222.262-2174.164l7.322,4.316,8.139,5.939,13.285,5.482,9.125,3.138,9.846,2.408,6.512,4.318,2.445,3.425-.262,3.792-1.166,2.982.725,1.623-2.166.456-21.576-.129-21.756.322-11.646-.062-6.146-2.513-7.229-3.42-4.334-.706-1,4.516-.271,2.167-16.412-.052-9.3-.249-.094-1.174-.277-3.159-1-3.158-1.723-2.7-.91-3.248-.283-5.145.621-4.786,2.154-4.97,4.766-7.775,5.42,1.342,8.313,2.612,4.787.53,5.326.258,4.875-.644,7.756-2.552Z" transform="translate(-8253.191 2174.164)" fill="#ff54cc"/></g><g transform="translate(7484.62 -2590.819)"><path d="M7600.122-2054.191l7.322,4.316,8.14,5.939,13.283,5.482,9.125,3.138,9.847,2.408,6.51,4.318,2.446,3.425-.263,3.792-1.167,2.982.727,1.623-2.166.457-21.576-.13-21.757.322-11.646-.063-6.145-2.513-7.23-3.42-4.335-.706-1,4.516-.272,2.167-16.411-.052-9.3-.249-.092-1.173-.278-3.159-1-3.157-1.721-2.7-.91-3.248-.283-5.145.62-4.786,2.156-4.97,4.766-7.775,5.42,1.341,8.312,2.612,4.787.53,5.327.258,4.874-.643,7.758-2.553Z" transform="translate(-7549.971 2054.191)" fill="#ff54cc"/><path d="M7851.4-2054.191l7.322,4.316,8.139,5.939,13.284,5.482,9.126,3.138,9.846,2.408,6.51,4.318,2.446,3.425-.263,3.792-1.166,2.982.727,1.623-2.166.457-21.576-.13-21.757.322-11.646-.063-6.145-2.513-7.23-3.42-4.336-.706-1,4.516-.272,2.167-16.411-.052-9.3-.249-.094-1.173-.278-3.159-1-3.157-1.722-2.7-.91-3.248-.284-5.145.621-4.786,2.155-4.97,4.767-7.775,5.42,1.341,8.312,2.612,4.786.53,5.327.258,4.874-.643,7.758-2.553Z" transform="translate(-7669.979 2054.191)" fill="#ff54cc"/><path d="M8102.687-2054.191l7.323,4.316,8.139,5.939,13.284,5.482,9.126,3.138,9.845,2.408,6.511,4.318,2.446,3.425-.262,3.792-1.166,2.982.725,1.623-2.166.457-21.577-.13-21.756.322-11.646-.063-6.146-2.513-7.23-3.42-4.334-.706-1,4.516-.272,2.167-16.411-.052-9.3-.249-.093-1.173-.279-3.159-1-3.157-1.722-2.7-.911-3.248-.282-5.145.621-4.786,2.154-4.97,4.766-7.775,5.42,1.341,8.312,2.612,4.785.53,5.328.258,4.873-.643,7.758-2.553Z" transform="translate(-7789.989 2054.191)" fill="#ff54cc"/><path d="M8353.969-2054.191l7.322,4.316,8.141,5.939,13.283,5.482,9.125,3.138,9.848,2.408,6.51,4.318,2.445,3.425-.262,3.792-1.166,2.982.725,1.623-2.164.457-21.578-.13-21.756.322-11.646-.063-6.145-2.513-7.23-3.42-4.335-.706-1,4.516-.273,2.167-16.41-.052-9.3-.249-.094-1.173-.277-3.159-1-3.157-1.723-2.7-.91-3.248-.282-5.145.62-4.786,2.156-4.97,4.766-7.775,5.42,1.341,8.313,2.612,4.785.53,5.328.258,4.873-.643,7.758-2.553Z" transform="translate(-7909.997 2054.191)" fill="#ff54cc"/><path d="M8605.252-2054.191l7.323,4.316,8.139,5.939,13.284,5.482,9.126,3.138,9.845,2.408,6.512,4.318,2.445,3.425-.263,3.792-1.166,2.982.727,1.623-2.166.457-21.576-.13-21.758.322-11.646-.063-6.144-2.513-7.23-3.42-4.336-.706-1,4.516-.272,2.167-16.411-.052-9.3-.249-.093-1.173-.278-3.159-1-3.157-1.722-2.7-.909-3.248-.284-5.145.621-4.786,2.155-4.97,4.766-7.775,5.42,1.341,8.313,2.612,4.785.53,5.328.258,4.872-.643,7.759-2.553Z" transform="translate(-8030.005 2054.191)" fill="#ff54cc"/><path d="M8856.535-2054.191l7.323,4.316,8.138,5.939,13.285,5.482,9.125,3.138,9.846,2.408,6.511,4.318,2.445,3.425-.262,3.792-1.167,2.982.727,1.623-2.166.457-21.577-.13-21.756.322-11.646-.063-6.145-2.513-7.23-3.42-4.335-.706-1,4.516-.271,2.167-16.412-.052-9.3-.249-.093-1.173-.278-3.159-1-3.157-1.721-2.7-.911-3.248-.282-5.145.62-4.786,2.154-4.97,4.767-7.775,5.421,1.341,8.312,2.612,4.785.53,5.328.258,4.873-.643,7.758-2.553Z" transform="translate(-8150.015 2054.191)" fill="#ff54cc"/><path d="M9107.816-2054.191l7.323,4.316,8.14,5.939,13.284,5.482,9.126,3.138,9.847,2.408,6.509,4.318,2.446,3.425-.262,3.792-1.167,2.982.726,1.623-2.165.457-21.578-.13-21.756.322-11.646-.063-6.144-2.513-7.231-3.42-4.335-.706-1,4.516-.272,2.167-16.41-.052-9.3-.249-.093-1.173-.278-3.159-1-3.157-1.723-2.7-.908-3.248-.284-5.145.621-4.786,2.155-4.97,4.767-7.775,5.419,1.341,8.313,2.612,4.786.53,5.326.258,4.874-.643,7.759-2.553Z" transform="translate(-8270.021 2054.191)" fill="#ff54cc"/><path d="M9359.1-2054.191l7.323,4.316,8.139,5.939,13.283,5.482,9.127,3.138,9.845,2.408,6.512,4.318,2.444,3.425-.262,3.792-1.165,2.982.726,1.623-2.166.457-21.577-.13-21.757.322-11.646-.063-6.145-2.513-7.23-3.42-4.334-.706-1,4.516-.271,2.167-16.411-.052-9.3-.249-.092-1.173-.278-3.159-1-3.157-1.723-2.7-.91-3.248-.282-5.145.62-4.786,2.155-4.97,4.766-7.775,5.421,1.341,8.311,2.612,4.786.53,5.327.258,4.874-.643,7.757-2.553Z" transform="translate(-8390.031 2054.191)" fill="#ff54cc"/></g><g transform="translate(7413.133 -2528.143)"><path d="M7463.282-1934.218l7.323,4.316,8.139,5.939,13.284,5.482,9.125,3.138,9.846,2.408,6.511,4.318,2.446,3.425-.262,3.792-1.167,2.982.726,1.623-2.166.457-21.577-.13-21.756.322-11.646-.063-6.145-2.513-7.23-3.42-4.335-.705-1,4.516-.273,2.167-16.411-.052-9.3-.249-.093-1.173-.278-3.159-1-3.157-1.722-2.7-.911-3.248-.283-5.145.621-4.786,2.154-4.97,4.767-7.775,5.42,1.341,8.312,2.612,4.786.53,5.328.258,4.873-.643,7.758-2.553Z" transform="translate(-7413.132 1934.218)" fill="#ff54cc"/><path d="M7714.565-1934.218l7.322,4.316,8.14,5.939,13.284,5.482,9.125,3.138,9.846,2.408,6.511,4.318,2.445,3.425-.262,3.792-1.167,2.982.727,1.623-2.165.457-21.577-.13-21.757.322-11.646-.063-6.145-2.513-7.23-3.42-4.335-.705-1,4.516-.271,2.167-16.412-.052-9.3-.249-.094-1.173-.277-3.159-1-3.157-1.722-2.7-.91-3.248-.283-5.145.621-4.786,2.155-4.97,4.766-7.775,5.42,1.341,8.312,2.612,4.786.53,5.327.258,4.874-.643,7.758-2.553Z" transform="translate(-7533.141 1934.218)" fill="#ff54cc"/><path d="M7965.849-1934.218l7.322,4.316,8.139,5.939,13.284,5.482,9.126,3.138,9.846,2.408,6.51,4.318,2.446,3.425-.262,3.792-1.167,2.982.726,1.623-2.166.457-21.577-.13-21.757.322-11.646-.063-6.145-2.513-7.23-3.42-4.335-.705-1,4.516-.272,2.167-16.411-.052-9.3-.249-.093-1.173-.279-3.159-1-3.157-1.722-2.7-.911-3.248-.283-5.145.621-4.786,2.154-4.97,4.766-7.775,5.42,1.341,8.312,2.612,4.786.53,5.327.258,4.873-.643,7.758-2.553Z" transform="translate(-7653.15 1934.218)" fill="#ff54cc"/><path d="M8217.131-1934.218l7.322,4.316,8.139,5.939,13.285,5.482,9.125,3.138,9.846,2.408,6.512,4.318,2.444,3.425-.261,3.792-1.168,2.982.727,1.623-2.166.457-21.576-.13-21.757.322-11.646-.063-6.146-2.513-7.229-3.42-4.336-.705-1,4.516-.271,2.167-16.412-.052-9.3-.249-.093-1.173-.278-3.159-1-3.157-1.722-2.7-.911-3.248-.282-5.145.62-4.786,2.155-4.97,4.766-7.775,5.42,1.341,8.313,2.612,4.785.53,5.327.258,4.875-.643,7.757-2.553Z" transform="translate(-7773.159 1934.218)" fill="#ff54cc"/><path d="M8468.413-1934.218l7.323,4.316,8.139,5.939,13.285,5.482,9.125,3.138,9.846,2.408,6.511,4.318,2.445,3.425-.262,3.792-1.167,2.982.726,1.623-2.164.457-21.578-.13-21.757.322-11.646-.063-6.145-2.513-7.231-3.42-4.335-.705-1,4.516-.272,2.167-16.411-.052-9.3-.249-.093-1.173-.278-3.159-1-3.157-1.722-2.7-.909-3.248-.283-5.145.621-4.786,2.153-4.97,4.768-7.775,5.42,1.341,8.312,2.612,4.786.53,5.326.258,4.874-.643,7.759-2.553Z" transform="translate(-7893.167 1934.218)" fill="#ff54cc"/><path d="M8719.7-1934.218l7.323,4.316,8.139,5.939,13.283,5.482,9.126,3.138,9.846,2.408,6.511,4.318,2.445,3.425-.263,3.792-1.165,2.982.726,1.623-2.165.457-21.577-.13-21.757.322-11.646-.063-6.145-2.513-7.23-3.42-4.335-.705-1,4.516-.271,2.167-16.411-.052-9.3-.249-.091-1.173-.279-3.159-1-3.157-1.722-2.7-.91-3.248-.282-5.145.62-4.786,2.154-4.97,4.768-7.775,5.42,1.341,8.311,2.612,4.786.53,5.327.258,4.874-.643,7.758-2.553Z" transform="translate(-8013.176 1934.218)" fill="#ff54cc"/><path d="M8970.978-1934.218l7.323,4.316,8.14,5.939,13.283,5.482,9.127,3.138,9.847,2.408,6.509,4.318,2.446,3.425-.262,3.792-1.167,2.982.727,1.623-2.167.457-21.576-.13-21.757.322-11.646-.063-6.146-2.513-7.23-3.42-4.335-.705-1,4.516-.272,2.167-16.411-.052-9.3-.249-.092-1.173-.278-3.159-1-3.157-1.723-2.7-.911-3.248-.281-5.145.62-4.786,2.155-4.97,4.767-7.775,5.419,1.341,8.313,2.612,4.786.53,5.326.258,4.874-.643,7.759-2.553Z" transform="translate(-8133.184 1934.218)" fill="#ff54cc"/><path d="M9222.262-1934.218l7.322,4.316,8.139,5.939,13.285,5.482,9.125,3.138,9.846,2.408,6.512,4.318,2.445,3.425-.262,3.792-1.166,2.982.725,1.623-2.166.457-21.576-.13-21.756.322-11.646-.063-6.146-2.513-7.229-3.42-4.334-.705-1,4.516-.271,2.167-16.412-.052-9.3-.249-.094-1.173-.277-3.159-1-3.157-1.723-2.7-.91-3.248-.283-5.145.621-4.786,2.154-4.97,4.766-7.775,5.42,1.341,8.313,2.612,4.787.53,5.326.258,4.875-.643,7.756-2.553Z" transform="translate(-8253.191 1934.218)" fill="#ff54cc"/></g><g transform="translate(7484.62 -2465.467)"><path d="M7600.122-1814.245l7.322,4.316,8.14,5.939,13.283,5.482,9.125,3.138,9.847,2.408,6.51,4.318,2.446,3.425-.263,3.792-1.167,2.982.727,1.624-2.166.456-21.576-.13-21.757.322-11.646-.063-6.145-2.513-7.23-3.42-4.335-.705-1,4.516-.272,2.167-16.411-.052-9.3-.249-.092-1.174-.278-3.159-1-3.157-1.721-2.7-.91-3.248-.283-5.145.62-4.786,2.156-4.971,4.766-7.775,5.42,1.341,8.312,2.612,4.787.53,5.327.258,4.874-.644,7.758-2.553Z" transform="translate(-7549.971 1814.245)" fill="#ff54cc"/><path d="M7851.4-1814.245l7.322,4.316,8.139,5.939,13.284,5.482,9.126,3.138,9.846,2.408,6.51,4.318,2.446,3.425-.263,3.792-1.166,2.982.727,1.624-2.166.456-21.576-.13-21.757.322-11.646-.063-6.145-2.513-7.23-3.42-4.336-.705-1,4.516-.272,2.167-16.411-.052-9.3-.249-.094-1.174-.278-3.159-1-3.157-1.722-2.7-.91-3.248-.284-5.145.621-4.786,2.155-4.971,4.767-7.775,5.42,1.341,8.312,2.612,4.786.53,5.327.258,4.874-.644,7.758-2.553Z" transform="translate(-7669.979 1814.245)" fill="#ff54cc"/><path d="M8102.687-1814.245l7.323,4.316,8.139,5.939,13.284,5.482,9.126,3.138,9.845,2.408,6.511,4.318,2.446,3.425-.262,3.792-1.166,2.982.725,1.624-2.166.456-21.577-.13-21.756.322-11.646-.063-6.146-2.513-7.23-3.42-4.334-.705-1,4.516-.272,2.167-16.411-.052-9.3-.249-.093-1.174-.279-3.159-1-3.157-1.722-2.7-.911-3.248-.282-5.145.621-4.786,2.154-4.971,4.766-7.775,5.42,1.341,8.312,2.612,4.785.53,5.328.258,4.873-.644,7.758-2.553Z" transform="translate(-7789.989 1814.245)" fill="#ff54cc"/><path d="M8353.969-1814.245l7.322,4.316,8.141,5.939,13.283,5.482,9.125,3.138,9.848,2.408,6.51,4.318,2.445,3.425-.262,3.792-1.166,2.982.725,1.624-2.164.456-21.578-.13-21.756.322-11.646-.063-6.145-2.513-7.23-3.42-4.335-.705-1,4.516-.273,2.167-16.41-.052-9.3-.249-.094-1.174-.277-3.159-1-3.157-1.723-2.7-.91-3.248-.282-5.145.62-4.786,2.156-4.971,4.766-7.775,5.42,1.341,8.313,2.612,4.785.53,5.328.258,4.873-.644,7.758-2.553Z" transform="translate(-7909.997 1814.245)" fill="#ff54cc"/><path d="M8605.252-1814.245l7.323,4.316,8.139,5.939,13.284,5.482,9.126,3.138,9.845,2.408,6.512,4.318,2.445,3.425-.263,3.792-1.166,2.982.727,1.624-2.166.456-21.576-.13-21.758.322-11.646-.063-6.144-2.513-7.23-3.42-4.336-.705-1,4.516-.272,2.167-16.411-.052-9.3-.249-.093-1.174-.278-3.159-1-3.157-1.722-2.7-.909-3.248-.284-5.145.621-4.786,2.155-4.971,4.766-7.775,5.42,1.341,8.313,2.612,4.785.53,5.328.258,4.872-.644,7.759-2.553Z" transform="translate(-8030.005 1814.245)" fill="#ff54cc"/><path d="M8856.535-1814.245l7.323,4.316,8.138,5.939,13.285,5.482,9.125,3.138,9.846,2.408,6.511,4.318,2.445,3.425-.262,3.792-1.167,2.982.727,1.624-2.166.456-21.577-.13-21.756.322-11.646-.063-6.145-2.513-7.23-3.42-4.335-.705-1,4.516-.271,2.167-16.412-.052-9.3-.249-.093-1.174-.278-3.159-1-3.157-1.721-2.7-.911-3.248-.282-5.145.62-4.786,2.154-4.971,4.767-7.775,5.421,1.341,8.312,2.612,4.785.53,5.328.258,4.873-.644,7.758-2.553Z" transform="translate(-8150.015 1814.245)" fill="#ff54cc"/><path d="M9107.816-1814.245l7.323,4.316,8.14,5.939,13.284,5.482,9.126,3.138,9.847,2.408,6.509,4.318,2.446,3.425-.262,3.792-1.167,2.982.726,1.624-2.165.456-21.578-.13-21.756.322-11.646-.063-6.144-2.513-7.231-3.42-4.335-.705-1,4.516-.272,2.167-16.41-.052-9.3-.249-.093-1.174-.278-3.159-1-3.157-1.723-2.7-.908-3.248-.284-5.145.621-4.786,2.155-4.971,4.767-7.775,5.419,1.341,8.313,2.612,4.786.53,5.326.258,4.874-.644,7.759-2.553Z" transform="translate(-8270.021 1814.245)" fill="#ff54cc"/><path d="M9359.1-1814.245l7.323,4.316,8.139,5.939,13.283,5.482,9.127,3.138,9.845,2.408,6.512,4.318,2.444,3.425-.262,3.792-1.165,2.982.726,1.624-2.166.456-21.577-.13-21.757.322-11.646-.063-6.145-2.513-7.23-3.42-4.334-.705-1,4.516-.271,2.167-16.411-.052-9.3-.249-.092-1.174-.278-3.159-1-3.157-1.723-2.7-.91-3.248-.282-5.145.62-4.786,2.155-4.971,4.766-7.775,5.421,1.341,8.311,2.612,4.786.53,5.327.258,4.874-.644,7.757-2.553Z" transform="translate(-8390.031 1814.245)" fill="#ff54cc"/></g><g transform="translate(7413.133 -2402.792)"><path d="M7463.282-1694.272l7.323,4.316,8.139,5.939,13.284,5.482,9.125,3.138,9.846,2.408,6.511,4.318,2.446,3.425-.262,3.792-1.167,2.982.726,1.623-2.166.456-21.577-.13-21.756.322-11.646-.063-6.145-2.513-7.23-3.42-4.335-.705-1,4.516-.273,2.167-16.411-.052-9.3-.249-.093-1.173-.278-3.159-1-3.157-1.722-2.7-.911-3.248-.283-5.145.621-4.786,2.154-4.97,4.767-7.775,5.42,1.341,8.312,2.612,4.786.531,5.328.258,4.873-.643,7.758-2.553Z" transform="translate(-7413.132 1694.272)" fill="#ff54cc"/><path d="M7714.565-1694.272l7.322,4.316,8.14,5.939,13.284,5.482,9.125,3.138,9.846,2.408,6.511,4.318,2.445,3.425-.262,3.792-1.167,2.982.727,1.623-2.165.456-21.577-.13-21.757.322-11.646-.063-6.145-2.513-7.23-3.42-4.335-.705-1,4.516-.271,2.167-16.412-.052-9.3-.249-.094-1.173-.277-3.159-1-3.157-1.722-2.7-.91-3.248-.283-5.145.621-4.786,2.155-4.97,4.766-7.775,5.42,1.341,8.312,2.612,4.786.531,5.327.258,4.874-.643,7.758-2.553Z" transform="translate(-7533.141 1694.272)" fill="#ff54cc"/><path d="M7965.849-1694.272l7.322,4.316,8.139,5.939,13.284,5.482,9.126,3.138,9.846,2.408,6.51,4.318,2.446,3.425-.262,3.792-1.167,2.982.726,1.623-2.166.456-21.577-.13-21.757.322-11.646-.063-6.145-2.513-7.23-3.42-4.335-.705-1,4.516-.272,2.167-16.411-.052-9.3-.249-.093-1.173-.279-3.159-1-3.157-1.722-2.7-.911-3.248-.283-5.145.621-4.786,2.154-4.97,4.766-7.775,5.42,1.341,8.312,2.612,4.786.531,5.327.258,4.873-.643,7.758-2.553Z" transform="translate(-7653.15 1694.272)" fill="#ff54cc"/><path d="M8217.131-1694.272l7.322,4.316,8.139,5.939,13.285,5.482L8255-1675.4l9.846,2.408,6.512,4.318,2.444,3.425-.261,3.792-1.168,2.982.727,1.623-2.166.456-21.576-.13-21.757.322-11.646-.063-6.146-2.513-7.229-3.42-4.336-.705-1,4.516-.271,2.167-16.412-.052-9.3-.249-.093-1.173-.278-3.159-1-3.157-1.722-2.7-.911-3.248-.282-5.145.62-4.786,2.155-4.97,4.766-7.775,5.42,1.341,8.313,2.612,4.785.531,5.327.258,4.875-.643,7.757-2.553Z" transform="translate(-7773.159 1694.272)" fill="#ff54cc"/><path d="M8468.413-1694.272l7.323,4.316,8.139,5.939,13.285,5.482,9.125,3.138,9.846,2.408,6.511,4.318,2.445,3.425-.262,3.792-1.167,2.982.726,1.623-2.164.456-21.578-.13-21.757.322-11.646-.063-6.145-2.513-7.231-3.42-4.335-.705-1,4.516-.272,2.167-16.411-.052-9.3-.249-.093-1.173-.278-3.159-1-3.157-1.722-2.7-.909-3.248-.283-5.145.621-4.786,2.153-4.97,4.768-7.775,5.42,1.341,8.312,2.612,4.786.531,5.326.258,4.874-.643,7.759-2.553Z" transform="translate(-7893.167 1694.272)" fill="#ff54cc"/><path d="M8719.7-1694.272l7.323,4.316,8.139,5.939,13.283,5.482,9.126,3.138,9.846,2.408,6.511,4.318,2.445,3.425-.263,3.792-1.165,2.982.726,1.623-2.165.456-21.577-.13-21.757.322-11.646-.063-6.145-2.513-7.23-3.42-4.335-.705-1,4.516-.271,2.167-16.411-.052-9.3-.249-.091-1.173-.279-3.159-1-3.157-1.722-2.7-.91-3.248-.282-5.145.62-4.786,2.154-4.97,4.768-7.775,5.42,1.341,8.311,2.612,4.786.531,5.327.258,4.874-.643,7.758-2.553Z" transform="translate(-8013.176 1694.272)" fill="#ff54cc"/><path d="M8970.978-1694.272l7.323,4.316,8.14,5.939,13.283,5.482,9.127,3.138,9.847,2.408,6.509,4.318,2.446,3.425-.262,3.792-1.167,2.982.727,1.623-2.167.456-21.576-.13-21.757.322-11.646-.063-6.146-2.513-7.23-3.42-4.335-.705-1,4.516-.272,2.167-16.411-.052-9.3-.249-.092-1.173-.278-3.159-1-3.157-1.723-2.7-.911-3.248-.281-5.145.62-4.786,2.155-4.97,4.767-7.775,5.419,1.341,8.313,2.612,4.786.531,5.326.258,4.874-.643,7.759-2.553Z" transform="translate(-8133.184 1694.272)" fill="#ff54cc"/><path d="M9222.262-1694.272l7.322,4.316,8.139,5.939,13.285,5.482,9.125,3.138,9.846,2.408,6.512,4.318,2.445,3.425-.262,3.792-1.166,2.982.725,1.623-2.166.456-21.576-.13-21.756.322-11.646-.063-6.146-2.513-7.229-3.42-4.334-.705-1,4.516-.271,2.167-16.412-.052-9.3-.249-.094-1.173-.277-3.159-1-3.157-1.723-2.7-.91-3.248-.283-5.145.621-4.786,2.154-4.97,4.766-7.775,5.42,1.341,8.313,2.612,4.787.531,5.326.258,4.875-.643,7.756-2.553Z" transform="translate(-8253.191 1694.272)" fill="#ff54cc"/></g><g transform="translate(7484.62 -2340.115)"><path d="M7600.122-1574.3l7.322,4.316,8.14,5.939,13.283,5.482,9.125,3.138,9.847,2.408,6.51,4.318,2.446,3.425-.263,3.792-1.167,2.982.727,1.623-2.166.456-21.576-.13-21.757.322-11.646-.063-6.145-2.513-7.23-3.42-4.335-.705-1,4.516-.272,2.167-16.411-.052-9.3-.249-.092-1.173-.278-3.159-1-3.157-1.721-2.7-.91-3.248-.283-5.145.62-4.786,2.156-4.97,4.766-7.775,5.42,1.341,8.312,2.612,4.787.531,5.327.258,4.874-.643,7.758-2.553Z" transform="translate(-7549.971 1574.3)" fill="#ff54cc"/><path d="M7851.4-1574.3l7.322,4.316,8.139,5.939,13.284,5.482,9.126,3.138,9.846,2.408,6.51,4.318,2.446,3.425-.263,3.792-1.166,2.982.727,1.623-2.166.456-21.576-.13-21.757.322-11.646-.063-6.145-2.513-7.23-3.42-4.336-.705-1,4.516-.272,2.167-16.411-.052-9.3-.249-.094-1.173-.278-3.159-1-3.157-1.722-2.7-.91-3.248-.284-5.145.621-4.786,2.155-4.97,4.767-7.775,5.42,1.341,8.312,2.612,4.786.531,5.327.258,4.874-.643,7.758-2.553Z" transform="translate(-7669.979 1574.3)" fill="#ff54cc"/><path d="M8102.687-1574.3l7.323,4.316,8.139,5.939,13.284,5.482,9.126,3.138,9.845,2.408,6.511,4.318,2.446,3.425-.262,3.792-1.166,2.982.725,1.623-2.166.456-21.577-.13-21.756.322-11.646-.063-6.146-2.513-7.23-3.42-4.334-.705-1,4.516-.272,2.167-16.411-.052-9.3-.249-.093-1.173-.279-3.159-1-3.157-1.722-2.7-.911-3.248-.282-5.145.621-4.786,2.154-4.97,4.766-7.775,5.42,1.341,8.312,2.612,4.785.531,5.328.258,4.873-.643,7.758-2.553Z" transform="translate(-7789.989 1574.3)" fill="#ff54cc"/><path d="M8353.969-1574.3l7.322,4.316,8.141,5.939,13.283,5.482,9.125,3.138,9.848,2.408,6.51,4.318,2.445,3.425-.262,3.792-1.166,2.982.725,1.623-2.164.456-21.578-.13-21.756.322-11.646-.063-6.145-2.513-7.23-3.42-4.335-.705-1,4.516-.273,2.167-16.41-.052-9.3-.249-.094-1.173-.277-3.159-1-3.157-1.723-2.7-.91-3.248-.282-5.145.62-4.786,2.156-4.97,4.766-7.775,5.42,1.341,8.313,2.612,4.785.531,5.328.258,4.873-.643,7.758-2.553Z" transform="translate(-7909.997 1574.3)" fill="#ff54cc"/><path d="M8605.252-1574.3l7.323,4.316,8.139,5.939,13.284,5.482,9.126,3.138,9.845,2.408,6.512,4.318,2.445,3.425-.263,3.792-1.166,2.982.727,1.623-2.166.456-21.576-.13-21.758.322-11.646-.063-6.144-2.513-7.23-3.42-4.336-.705-1,4.516-.272,2.167-16.411-.052-9.3-.249-.093-1.173-.278-3.159-1-3.157-1.722-2.7-.909-3.248-.284-5.145.621-4.786,2.155-4.97,4.766-7.775,5.42,1.341,8.313,2.612,4.785.531,5.328.258,4.872-.643,7.759-2.553Z" transform="translate(-8030.005 1574.3)" fill="#ff54cc"/><path d="M8856.535-1574.3l7.323,4.316,8.138,5.939,13.285,5.482,9.125,3.138,9.846,2.408,6.511,4.318,2.445,3.425-.262,3.792-1.167,2.982.727,1.623-2.166.456-21.577-.13-21.756.322-11.646-.063-6.145-2.513-7.23-3.42-4.335-.705-1,4.516-.271,2.167-16.412-.052-9.3-.249-.093-1.173-.278-3.159-1-3.157-1.721-2.7-.911-3.248-.282-5.145.62-4.786,2.154-4.97,4.767-7.775,5.421,1.341,8.312,2.612,4.785.531,5.328.258,4.873-.643,7.758-2.553Z" transform="translate(-8150.015 1574.3)" fill="#ff54cc"/><path d="M9107.816-1574.3l7.323,4.316,8.14,5.939,13.284,5.482,9.126,3.138,9.847,2.408,6.509,4.318,2.446,3.425-.262,3.792-1.167,2.982.726,1.623-2.165.456-21.578-.13-21.756.322-11.646-.063-6.144-2.513-7.231-3.42-4.335-.705-1,4.516-.272,2.167-16.41-.052-9.3-.249-.093-1.173-.278-3.159-1-3.157-1.723-2.7-.908-3.248-.284-5.145.621-4.786,2.155-4.97,4.767-7.775,5.419,1.341,8.313,2.612,4.786.531,5.326.258,4.874-.643,7.759-2.553Z" transform="translate(-8270.021 1574.3)" fill="#ff54cc"/><path d="M9359.1-1574.3l7.323,4.316,8.139,5.939,13.283,5.482,9.127,3.138,9.845,2.408,6.512,4.318,2.444,3.425-.262,3.792-1.165,2.982.726,1.623-2.166.456-21.577-.13-21.757.322-11.646-.063-6.145-2.513-7.23-3.42-4.334-.705-1,4.516-.271,2.167-16.411-.052-9.3-.249-.092-1.173-.278-3.159-1-3.157-1.723-2.7-.91-3.248-.282-5.145.62-4.786,2.155-4.97,4.766-7.775,5.421,1.341,8.311,2.612,4.786.531,5.327.258,4.874-.643,7.757-2.553Z" transform="translate(-8390.031 1574.3)" fill="#ff54cc"/></g><g transform="translate(7413.133 -2277.44)"><path d="M7463.282-1454.327l7.323,4.316,8.139,5.939,13.284,5.482,9.125,3.138,9.846,2.408,6.511,4.318,2.446,3.425-.262,3.792-1.167,2.982.726,1.623-2.166.456-21.577-.13-21.756.322-11.646-.063-6.145-2.513-7.23-3.42-4.335-.706-1,4.516-.273,2.167-16.411-.052-9.3-.249-.093-1.173-.278-3.159-1-3.157-1.722-2.7-.911-3.248-.283-5.145.621-4.786,2.154-4.97,4.767-7.775,5.42,1.341,8.312,2.612,4.786.531,5.328.258,4.873-.643,7.758-2.553Z" transform="translate(-7413.132 1454.327)" fill="#ff54cc"/><path d="M7714.565-1454.327l7.322,4.316,8.14,5.939,13.284,5.482,9.125,3.138,9.846,2.408,6.511,4.318,2.445,3.425-.262,3.792-1.167,2.982.727,1.623-2.165.456-21.577-.13-21.757.322-11.646-.063-6.145-2.513-7.23-3.42-4.335-.706-1,4.516-.271,2.167-16.412-.052-9.3-.249-.094-1.173-.277-3.159-1-3.157-1.722-2.7-.91-3.248-.283-5.145.621-4.786,2.155-4.97,4.766-7.775,5.42,1.341,8.312,2.612,4.786.531,5.327.258,4.874-.643,7.758-2.553Z" transform="translate(-7533.141 1454.327)" fill="#ff54cc"/><path d="M7965.849-1454.327l7.322,4.316,8.139,5.939,13.284,5.482,9.126,3.138,9.846,2.408,6.51,4.318,2.446,3.425-.262,3.792-1.167,2.982.726,1.623-2.166.456-21.577-.13-21.757.322-11.646-.063-6.145-2.513-7.23-3.42-4.335-.706-1,4.516-.272,2.167-16.411-.052-9.3-.249-.093-1.173-.279-3.159-1-3.157-1.722-2.7-.911-3.248-.283-5.145.621-4.786,2.154-4.97,4.766-7.775,5.42,1.341,8.312,2.612,4.786.531,5.327.258,4.873-.643,7.758-2.553Z" transform="translate(-7653.15 1454.327)" fill="#ff54cc"/><path d="M8217.131-1454.327l7.322,4.316,8.139,5.939,13.285,5.482,9.125,3.138,9.846,2.408,6.512,4.318,2.444,3.425-.261,3.792-1.168,2.982.727,1.623-2.166.456-21.576-.13-21.757.322-11.646-.063-6.146-2.513-7.229-3.42-4.336-.706-1,4.516-.271,2.167-16.412-.052-9.3-.249-.093-1.173-.278-3.159-1-3.157-1.722-2.7-.911-3.248-.282-5.145.62-4.786,2.155-4.97,4.766-7.775,5.42,1.341,8.313,2.612,4.785.531,5.327.258,4.875-.643,7.757-2.553Z" transform="translate(-7773.159 1454.327)" fill="#ff54cc"/><path d="M8468.413-1454.327l7.323,4.316,8.139,5.939,13.285,5.482,9.125,3.138,9.846,2.408,6.511,4.318,2.445,3.425-.262,3.792-1.167,2.982.726,1.623-2.164.456-21.578-.13-21.757.322-11.646-.063-6.145-2.513-7.231-3.42-4.335-.706-1,4.516-.272,2.167-16.411-.052-9.3-.249-.093-1.173-.278-3.159-1-3.157-1.722-2.7-.909-3.248-.283-5.145.621-4.786,2.153-4.97,4.768-7.775,5.42,1.341,8.312,2.612,4.786.531,5.326.258,4.874-.643,7.759-2.553Z" transform="translate(-7893.167 1454.327)" fill="#ff54cc"/><path d="M8719.7-1454.327l7.323,4.316,8.139,5.939,13.283,5.482,9.126,3.138,9.846,2.408,6.511,4.318,2.445,3.425-.263,3.792-1.165,2.982.726,1.623-2.165.456-21.577-.13-21.757.322-11.646-.063-6.145-2.513-7.23-3.42-4.335-.706-1,4.516-.271,2.167-16.411-.052-9.3-.249-.091-1.173-.279-3.159-1-3.157-1.722-2.7-.91-3.248-.282-5.145.62-4.786,2.154-4.97,4.768-7.775,5.42,1.341,8.311,2.612,4.786.531,5.327.258,4.874-.643,7.758-2.553Z" transform="translate(-8013.176 1454.327)" fill="#ff54cc"/><path d="M8970.978-1454.327l7.323,4.316,8.14,5.939,13.283,5.482,9.127,3.138,9.847,2.408,6.509,4.318,2.446,3.425-.262,3.792-1.167,2.982.727,1.623-2.167.456-21.576-.13-21.757.322-11.646-.063-6.146-2.513-7.23-3.42-4.335-.706-1,4.516-.272,2.167-16.411-.052-9.3-.249-.092-1.173-.278-3.159-1-3.157-1.723-2.7-.911-3.248-.281-5.145.62-4.786,2.155-4.97,4.767-7.775,5.419,1.341,8.313,2.612,4.786.531,5.326.258,4.874-.643,7.759-2.553Z" transform="translate(-8133.184 1454.327)" fill="#ff54cc"/><path d="M9222.262-1454.327l7.322,4.316,8.139,5.939,13.285,5.482,9.125,3.138,9.846,2.408,6.512,4.318,2.445,3.425-.262,3.792-1.166,2.982.725,1.623-2.166.456-21.576-.13-21.756.322-11.646-.063-6.146-2.513-7.229-3.42-4.334-.706-1,4.516-.271,2.167-16.412-.052-9.3-.249-.094-1.173-.277-3.159-1-3.157-1.723-2.7-.91-3.248-.283-5.145.621-4.786,2.154-4.97,4.766-7.775,5.42,1.341,8.313,2.612,4.787.531,5.326.258,4.875-.643,7.756-2.553Z" transform="translate(-8253.191 1454.327)" fill="#ff54cc"/></g><g transform="translate(7413.133 -2276.734)"><path d="M7463.282-1452.976l7.323,4.316,8.139,5.939,13.284,5.483,9.125,3.138,9.846,2.408,6.511,4.318,2.446,3.425-.262,3.792-1.167,2.982.726,1.623-2.166.456-21.577-.13-21.756.322-11.646-.063-6.145-2.513-7.23-3.42-4.335-.705-1,4.516-.273,2.167-16.411-.052-9.3-.249-.093-1.173-.278-3.159-1-3.157-1.722-2.7-.911-3.248-.283-5.145.621-4.786,2.154-4.97,4.767-7.775,5.42,1.341,8.312,2.612,4.786.53,5.328.258,4.873-.644,7.758-2.553Z" transform="translate(-7413.132 1452.976)" fill="#ff54cc"/><path d="M7714.565-1452.976l7.322,4.316,8.14,5.939,13.284,5.483,9.125,3.138,9.846,2.408,6.511,4.318,2.445,3.425-.262,3.792-1.167,2.982.727,1.623-2.165.456-21.577-.13-21.757.322-11.646-.063-6.145-2.513-7.23-3.42-4.335-.705-1,4.516-.271,2.167-16.412-.052-9.3-.249-.094-1.173-.277-3.159-1-3.157-1.722-2.7-.91-3.248-.283-5.145.621-4.786,2.155-4.97,4.766-7.775,5.42,1.341,8.312,2.612,4.786.53,5.327.258,4.874-.644,7.758-2.553Z" transform="translate(-7533.141 1452.976)" fill="#ff54cc"/><path d="M7965.849-1452.976l7.322,4.316,8.139,5.939,13.284,5.483,9.126,3.138,9.846,2.408,6.51,4.318,2.446,3.425-.262,3.792-1.167,2.982.726,1.623-2.166.456-21.577-.13-21.757.322-11.646-.063-6.145-2.513-7.23-3.42-4.335-.705-1,4.516-.272,2.167-16.411-.052-9.3-.249-.093-1.173-.279-3.159-1-3.157-1.722-2.7-.911-3.248-.283-5.145.621-4.786,2.154-4.97,4.766-7.775,5.42,1.341,8.312,2.612,4.786.53,5.327.258,4.873-.644,7.758-2.553Z" transform="translate(-7653.15 1452.976)" fill="#ff54cc"/><path d="M8217.131-1452.976l7.322,4.316,8.139,5.939,13.285,5.483L8255-1434.1l9.846,2.408,6.512,4.318,2.444,3.425-.261,3.792-1.168,2.982.727,1.623-2.166.456-21.576-.13-21.757.322-11.646-.063-6.146-2.513-7.229-3.42-4.336-.705-1,4.516-.271,2.167-16.412-.052-9.3-.249-.093-1.173-.278-3.159-1-3.157-1.722-2.7-.911-3.248-.282-5.145.62-4.786,2.155-4.97,4.766-7.775,5.42,1.341,8.313,2.612,4.785.53,5.327.258,4.875-.644L8211-1449.8Z" transform="translate(-7773.159 1452.976)" fill="#ff54cc"/><path d="M8468.413-1452.976l7.323,4.316,8.139,5.939,13.285,5.483,9.125,3.138,9.846,2.408,6.511,4.318,2.445,3.425-.262,3.792-1.167,2.982.726,1.623-2.164.456-21.578-.13-21.757.322-11.646-.063-6.145-2.513-7.231-3.42-4.335-.705-1,4.516-.272,2.167-16.411-.052-9.3-.249-.093-1.173-.278-3.159-1-3.157-1.722-2.7-.909-3.248-.283-5.145.621-4.786,2.153-4.97,4.768-7.775,5.42,1.341,8.312,2.612,4.786.53,5.326.258,4.874-.644,7.759-2.553Z" transform="translate(-7893.167 1452.976)" fill="#ff54cc"/><path d="M8719.7-1452.976l7.323,4.316,8.139,5.939,13.283,5.483,9.126,3.138,9.846,2.408,6.511,4.318,2.445,3.425-.263,3.792-1.165,2.982.726,1.623-2.165.456-21.577-.13-21.757.322-11.646-.063-6.145-2.513-7.23-3.42-4.335-.705-1,4.516-.271,2.167-16.411-.052-9.3-.249-.091-1.173-.279-3.159-1-3.157-1.722-2.7-.91-3.248-.282-5.145.62-4.786,2.154-4.97,4.768-7.775,5.42,1.341,8.311,2.612,4.786.53,5.327.258,4.874-.644,7.758-2.553Z" transform="translate(-8013.176 1452.976)" fill="#ff54cc"/><path d="M8970.978-1452.976l7.323,4.316,8.14,5.939,13.283,5.483,9.127,3.138,9.847,2.408,6.509,4.318,2.446,3.425-.262,3.792-1.167,2.982.727,1.623-2.167.456-21.576-.13-21.757.322-11.646-.063-6.146-2.513-7.23-3.42-4.335-.705-1,4.516-.272,2.167-16.411-.052-9.3-.249-.092-1.173-.278-3.159-1-3.157-1.723-2.7-.911-3.248-.281-5.145.62-4.786,2.155-4.97,4.767-7.775,5.419,1.341,8.313,2.612,4.786.53,5.326.258,4.874-.644,7.759-2.553Z" transform="translate(-8133.184 1452.976)" fill="#ff54cc"/><path d="M9222.262-1452.976l7.322,4.316,8.139,5.939,13.285,5.483,9.125,3.138,9.846,2.408,6.512,4.318,2.445,3.425-.262,3.792-1.166,2.982.725,1.623-2.166.456-21.576-.13-21.756.322-11.646-.063-6.146-2.513-7.229-3.42-4.334-.705-1,4.516-.271,2.167-16.412-.052-9.3-.249-.094-1.173-.277-3.159-1-3.157-1.723-2.7-.91-3.248-.283-5.145.621-4.786,2.154-4.97,4.766-7.775,5.42,1.341,8.313,2.612,4.787.53,5.326.258,4.875-.644,7.756-2.553Z" transform="translate(-8253.191 1452.976)" fill="#ff54cc"/></g><g transform="translate(7484.62 -2214.058)"><path d="M7600.122-1333l7.322,4.316,8.14,5.939,13.283,5.482,9.125,3.138,9.847,2.408,6.51,4.318,2.446,3.425-.263,3.792-1.167,2.982.727,1.623-2.166.457-21.576-.13-21.757.322-11.646-.063-6.145-2.513-7.23-3.42-4.335-.705-1,4.516-.272,2.167-16.411-.052-9.3-.249-.092-1.173-.278-3.159-1-3.157-1.721-2.7-.91-3.248-.283-5.145.62-4.786,2.156-4.97,4.766-7.775,5.42,1.341,8.312,2.612,4.787.53,5.327.258,4.874-.643,7.758-2.553Z" transform="translate(-7549.971 1333.003)" fill="#ff54cc"/><path d="M7851.4-1333l7.322,4.316,8.139,5.939,13.284,5.482,9.126,3.138,9.846,2.408,6.51,4.318,2.446,3.425-.263,3.792-1.166,2.982.727,1.623-2.166.457-21.576-.13-21.757.322-11.646-.063-6.145-2.513-7.23-3.42-4.336-.705-1,4.516-.272,2.167L7814.84-1295l-9.3-.249-.094-1.173-.278-3.159-1-3.157-1.722-2.7-.91-3.248-.284-5.145.621-4.786,2.155-4.97,4.767-7.775,5.42,1.341,8.312,2.612,4.786.53,5.327.258,4.874-.643,7.758-2.553Z" transform="translate(-7669.979 1333.003)" fill="#ff54cc"/><path d="M8102.687-1333l7.323,4.316,8.139,5.939,13.284,5.482,9.126,3.138,9.845,2.408,6.511,4.318,2.446,3.425-.262,3.792-1.166,2.982.725,1.623-2.166.457-21.577-.13-21.756.322-11.646-.063-6.146-2.513-7.23-3.42-4.334-.705-1,4.516-.272,2.167-16.411-.052-9.3-.249-.093-1.173-.279-3.159-1-3.157-1.722-2.7-.911-3.248-.282-5.145.621-4.786,2.154-4.97,4.766-7.775,5.42,1.341,8.312,2.612,4.785.53,5.328.258,4.873-.643,7.758-2.553Z" transform="translate(-7789.989 1333.003)" fill="#ff54cc"/><path d="M8353.969-1333l7.322,4.316,8.141,5.939,13.283,5.482,9.125,3.138,9.848,2.408,6.51,4.318,2.445,3.425-.262,3.792-1.166,2.982.725,1.623-2.164.457-21.578-.13-21.756.322-11.646-.063-6.145-2.513-7.23-3.42-4.335-.705-1,4.516-.273,2.167-16.41-.052-9.3-.249-.094-1.173-.277-3.159-1-3.157-1.723-2.7-.91-3.248-.282-5.145.62-4.786,2.156-4.97,4.766-7.775,5.42,1.341,8.313,2.612,4.785.53,5.328.258,4.873-.643,7.758-2.553Z" transform="translate(-7909.997 1333.003)" fill="#ff54cc"/><path d="M8605.252-1333l7.323,4.316,8.139,5.939,13.284,5.482,9.126,3.138,9.845,2.408,6.512,4.318,2.445,3.425-.263,3.792-1.166,2.982.727,1.623-2.166.457-21.576-.13-21.758.322-11.646-.063-6.144-2.513-7.23-3.42-4.336-.705-1,4.516-.272,2.167-16.411-.052-9.3-.249-.093-1.173-.278-3.159-1-3.157-1.722-2.7-.909-3.248-.284-5.145.621-4.786,2.155-4.97,4.766-7.775,5.42,1.341,8.313,2.612,4.785.53,5.328.258,4.872-.643,7.759-2.553Z" transform="translate(-8030.005 1333.003)" fill="#ff54cc"/><path d="M8856.535-1333l7.323,4.316,8.138,5.939,13.285,5.482,9.125,3.138,9.846,2.408,6.511,4.318,2.445,3.425-.262,3.792-1.167,2.982.727,1.623-2.166.457-21.577-.13-21.756.322-11.646-.063-6.145-2.513-7.23-3.42-4.335-.705-1,4.516-.271,2.167-16.412-.052-9.3-.249-.093-1.173-.278-3.159-1-3.157-1.721-2.7-.911-3.248-.282-5.145.62-4.786,2.154-4.97,4.767-7.775,5.421,1.341,8.312,2.612,4.785.53,5.328.258,4.873-.643,7.758-2.553Z" transform="translate(-8150.015 1333.003)" fill="#ff54cc"/><path d="M9107.816-1333l7.323,4.316,8.14,5.939,13.284,5.482,9.126,3.138,9.847,2.408,6.509,4.318,2.446,3.425-.262,3.792-1.167,2.982.726,1.623-2.165.457-21.578-.13-21.756.322-11.646-.063-6.144-2.513-7.231-3.42-4.335-.705-1,4.516-.272,2.167-16.41-.052-9.3-.249-.093-1.173-.278-3.159-1-3.157-1.723-2.7-.908-3.248-.284-5.145.621-4.786,2.155-4.97,4.767-7.775,5.419,1.341,8.313,2.612,4.786.53,5.326.258,4.874-.643,7.759-2.553Z" transform="translate(-8270.021 1333.003)" fill="#ff54cc"/><path d="M9359.1-1333l7.323,4.316,8.139,5.939,13.283,5.482,9.127,3.138,9.845,2.408,6.512,4.318,2.444,3.425-.262,3.792-1.165,2.982.726,1.623-2.166.457-21.577-.13-21.757.322-11.646-.063-6.145-2.513-7.23-3.42-4.334-.705-1,4.516-.271,2.167-16.411-.052-9.3-.249-.092-1.173-.278-3.159-1-3.157-1.723-2.7-.91-3.248-.282-5.145.62-4.786,2.155-4.97,4.766-7.775,5.421,1.341,8.311,2.612,4.786.53,5.327.258,4.874-.643,7.757-2.553Z" transform="translate(-8390.031 1333.003)" fill="#ff54cc"/></g><g transform="translate(7413.133 -2151.383)"><path d="M7463.282-1213.03l7.323,4.316,8.139,5.939,13.284,5.482,9.125,3.138,9.846,2.408,6.511,4.318,2.446,3.425-.262,3.792-1.167,2.982.726,1.623-2.166.456-21.577-.13-21.756.322-11.646-.063-6.145-2.513-7.23-3.42-4.335-.705-1,4.516-.273,2.167-16.411-.052-9.3-.249-.093-1.173-.278-3.159-1-3.157-1.722-2.7-.911-3.248-.283-5.145.621-4.786,2.154-4.97,4.767-7.775,5.42,1.341,8.312,2.612,4.786.53,5.328.258,4.873-.643,7.758-2.553Z" transform="translate(-7413.132 1213.03)" fill="#ff54cc"/><path d="M7714.565-1213.03l7.322,4.316,8.14,5.939,13.284,5.482,9.125,3.138,9.846,2.408,6.511,4.318,2.445,3.425-.262,3.792-1.167,2.982.727,1.623-2.165.456-21.577-.13-21.757.322-11.646-.063-6.145-2.513-7.23-3.42-4.335-.705-1,4.516-.271,2.167-16.412-.052-9.3-.249-.094-1.173-.277-3.159-1-3.157-1.722-2.7-.91-3.248-.283-5.145.621-4.786,2.155-4.97,4.766-7.775,5.42,1.341,8.312,2.612,4.786.53,5.327.258,4.874-.643,7.758-2.553Z" transform="translate(-7533.141 1213.03)" fill="#ff54cc"/><path d="M7965.849-1213.03l7.322,4.316,8.139,5.939,13.284,5.482,9.126,3.138,9.846,2.408,6.51,4.318,2.446,3.425-.262,3.792-1.167,2.982.726,1.623-2.166.456-21.577-.13-21.757.322-11.646-.063-6.145-2.513-7.23-3.42-4.335-.705-1,4.516-.272,2.167-16.411-.052-9.3-.249-.093-1.173-.279-3.159-1-3.157-1.722-2.7-.911-3.248-.283-5.145.621-4.786,2.154-4.97,4.766-7.775,5.42,1.341,8.312,2.612,4.786.53,5.327.258,4.873-.643,7.758-2.553Z" transform="translate(-7653.15 1213.03)" fill="#ff54cc"/><path d="M8217.131-1213.03l7.322,4.316,8.139,5.939,13.285,5.482,9.125,3.138,9.846,2.408,6.512,4.318L8273.8-1184l-.261,3.792-1.168,2.982.727,1.623-2.166.456-21.576-.13-21.757.322-11.646-.063-6.146-2.513-7.229-3.42-4.336-.705-1,4.516-.271,2.167-16.412-.052-9.3-.249-.093-1.173-.278-3.159-1-3.157-1.722-2.7-.911-3.248-.282-5.145.62-4.786,2.155-4.97,4.766-7.775,5.42,1.341,8.313,2.612,4.785.53,5.327.258,4.875-.643,7.757-2.553Z" transform="translate(-7773.159 1213.03)" fill="#ff54cc"/><path d="M8468.413-1213.03l7.323,4.316,8.139,5.939,13.285,5.482,9.125,3.138,9.846,2.408,6.511,4.318,2.445,3.425-.262,3.792-1.167,2.982.726,1.623-2.164.456-21.578-.13-21.757.322-11.646-.063-6.145-2.513-7.231-3.42-4.335-.705-1,4.516-.272,2.167-16.411-.052-9.3-.249-.093-1.173-.278-3.159-1-3.157-1.722-2.7-.909-3.248-.283-5.145.621-4.786,2.153-4.97,4.768-7.775,5.42,1.341,8.312,2.612,4.786.53,5.326.258,4.874-.643,7.759-2.553Z" transform="translate(-7893.167 1213.03)" fill="#ff54cc"/><path d="M8719.7-1213.03l7.323,4.316,8.139,5.939,13.283,5.482,9.126,3.138,9.846,2.408,6.511,4.318,2.445,3.425-.263,3.792-1.165,2.982.726,1.623-2.165.456-21.577-.13-21.757.322-11.646-.063-6.145-2.513-7.23-3.42-4.335-.705-1,4.516-.271,2.167-16.411-.052-9.3-.249-.091-1.173-.279-3.159-1-3.157-1.722-2.7-.91-3.248-.282-5.145.62-4.786,2.154-4.97,4.768-7.775,5.42,1.341,8.311,2.612,4.786.53,5.327.258,4.874-.643,7.758-2.553Z" transform="translate(-8013.176 1213.03)" fill="#ff54cc"/><path d="M8970.978-1213.03l7.323,4.316,8.14,5.939,13.283,5.482,9.127,3.138,9.847,2.408,6.509,4.318,2.446,3.425-.262,3.792-1.167,2.982.727,1.623-2.167.456-21.576-.13-21.757.322-11.646-.063-6.146-2.513-7.23-3.42-4.335-.705-1,4.516-.272,2.167-16.411-.052-9.3-.249-.092-1.173-.278-3.159-1-3.157-1.723-2.7-.911-3.248-.281-5.145.62-4.786,2.155-4.97,4.767-7.775,5.419,1.341,8.313,2.612,4.786.53,5.326.258,4.874-.643,7.759-2.553Z" transform="translate(-8133.184 1213.03)" fill="#ff54cc"/><path d="M9222.262-1213.03l7.322,4.316,8.139,5.939,13.285,5.482,9.125,3.138,9.846,2.408,6.512,4.318,2.445,3.425-.262,3.792-1.166,2.982.725,1.623-2.166.456-21.576-.13-21.756.322-11.646-.063-6.146-2.513-7.229-3.42-4.334-.705-1,4.516-.271,2.167-16.412-.052-9.3-.249-.094-1.173-.277-3.159-1-3.157-1.723-2.7-.91-3.248-.283-5.145.621-4.786,2.154-4.97,4.766-7.775,5.42,1.341,8.313,2.612,4.787.53,5.326.258,4.875-.643,7.756-2.553Z" transform="translate(-8253.191 1213.03)" fill="#ff54cc"/></g><g transform="translate(7484.62 -2088.707)"><path d="M7600.122-1093.057l7.322,4.316,8.14,5.939,13.283,5.483,9.125,3.138,9.847,2.408,6.51,4.318,2.446,3.425-.263,3.792-1.167,2.982.727,1.623-2.166.457-21.576-.13-21.757.322-11.646-.063-6.145-2.513-7.23-3.42-4.335-.705-1,4.516-.272,2.167-16.411-.052-9.3-.249-.092-1.173-.278-3.159-1-3.157-1.721-2.7-.91-3.248-.283-5.145.62-4.786,2.156-4.971,4.766-7.775,5.42,1.341,8.312,2.612,4.787.531,5.327.258,4.874-.643,7.758-2.553Z" transform="translate(-7549.971 1093.057)" fill="#ff54cc"/><path d="M7851.4-1093.057l7.322,4.316,8.139,5.939,13.284,5.483,9.126,3.138,9.846,2.408,6.51,4.318,2.446,3.425-.263,3.792-1.166,2.982.727,1.623-2.166.457-21.576-.13-21.757.322-11.646-.063-6.145-2.513-7.23-3.42-4.336-.705-1,4.516-.272,2.167-16.411-.052-9.3-.249-.094-1.173-.278-3.159-1-3.157-1.722-2.7-.91-3.248-.284-5.145.621-4.786,2.155-4.971,4.767-7.775,5.42,1.341,8.312,2.612,4.786.531,5.327.258,4.874-.643,7.758-2.553Z" transform="translate(-7669.979 1093.057)" fill="#ff54cc"/><path d="M8102.687-1093.057l7.323,4.316,8.139,5.939,13.284,5.483,9.126,3.138,9.845,2.408,6.511,4.318,2.446,3.425-.262,3.792-1.166,2.982.725,1.623-2.166.457-21.577-.13-21.756.322-11.646-.063-6.146-2.513-7.23-3.42-4.334-.705-1,4.516-.272,2.167-16.411-.052-9.3-.249-.093-1.173-.279-3.159-1-3.157-1.722-2.7-.911-3.248-.282-5.145.621-4.786,2.154-4.971,4.766-7.775,5.42,1.341,8.312,2.612,4.785.531,5.328.258,4.873-.643,7.758-2.553Z" transform="translate(-7789.989 1093.057)" fill="#ff54cc"/><path d="M8353.969-1093.057l7.322,4.316,8.141,5.939,13.283,5.483,9.125,3.138,9.848,2.408,6.51,4.318,2.445,3.425-.262,3.792-1.166,2.982.725,1.623-2.164.457-21.578-.13-21.756.322-11.646-.063-6.145-2.513-7.23-3.42-4.335-.705-1,4.516-.273,2.167-16.41-.052-9.3-.249-.094-1.173-.277-3.159-1-3.157-1.723-2.7-.91-3.248-.282-5.145.62-4.786,2.156-4.971,4.766-7.775,5.42,1.341,8.313,2.612,4.785.531,5.328.258,4.873-.643,7.758-2.553Z" transform="translate(-7909.997 1093.057)" fill="#ff54cc"/><path d="M8605.252-1093.057l7.323,4.316,8.139,5.939L8634-1077.32l9.126,3.138,9.845,2.408,6.512,4.318,2.445,3.425-.263,3.792-1.166,2.982.727,1.623-2.166.457-21.576-.13-21.758.322-11.646-.063-6.144-2.513-7.23-3.42-4.336-.705-1,4.516L8585.1-1055l-16.411-.052-9.3-.249-.093-1.173-.278-3.159-1-3.157-1.722-2.7-.909-3.248-.284-5.145.621-4.786,2.155-4.971,4.766-7.775,5.42,1.341,8.313,2.612,4.785.531,5.328.258,4.872-.643,7.759-2.553Z" transform="translate(-8030.005 1093.057)" fill="#ff54cc"/><path d="M8856.535-1093.057l7.323,4.316L8872-1082.8l13.285,5.483,9.125,3.138,9.846,2.408,6.511,4.318,2.445,3.425-.262,3.792-1.167,2.982.727,1.623-2.166.457-21.577-.13-21.756.322-11.646-.063-6.145-2.513-7.23-3.42-4.335-.705-1,4.516-.271,2.167-16.412-.052-9.3-.249-.093-1.173-.278-3.159-1-3.157-1.721-2.7-.911-3.248-.282-5.145.62-4.786,2.154-4.971,4.767-7.775,5.421,1.341,8.312,2.612,4.785.531,5.328.258,4.873-.643,7.758-2.553Z" transform="translate(-8150.015 1093.057)" fill="#ff54cc"/><path d="M9107.816-1093.057l7.323,4.316,8.14,5.939,13.284,5.483,9.126,3.138,9.847,2.408,6.509,4.318,2.446,3.425-.262,3.792-1.167,2.982.726,1.623-2.165.457-21.578-.13-21.756.322-11.646-.063-6.144-2.513-7.231-3.42-4.335-.705-1,4.516-.272,2.167-16.41-.052-9.3-.249-.093-1.173-.278-3.159-1-3.157-1.723-2.7-.908-3.248-.284-5.145.621-4.786,2.155-4.971,4.767-7.775,5.419,1.341,8.313,2.612,4.786.531,5.326.258,4.874-.643,7.759-2.553Z" transform="translate(-8270.021 1093.057)" fill="#ff54cc"/><path d="M9359.1-1093.057l7.323,4.316,8.139,5.939,13.283,5.483,9.127,3.138,9.845,2.408,6.512,4.318,2.444,3.425-.262,3.792-1.165,2.982.726,1.623-2.166.457-21.577-.13-21.757.322-11.646-.063-6.145-2.513-7.23-3.42-4.334-.705-1,4.516-.271,2.167-16.411-.052-9.3-.249-.092-1.173-.278-3.159-1-3.157-1.723-2.7-.91-3.248-.282-5.145.62-4.786,2.155-4.971,4.766-7.775,5.421,1.341,8.311,2.612,4.786.531,5.327.258,4.874-.643,7.757-2.553Z" transform="translate(-8390.031 1093.057)" fill="#ff54cc"/></g><g transform="translate(7413.133 -2026.031)"><path d="M7463.282-973.084l7.323,4.316,8.139,5.939,13.284,5.482,9.125,3.138L7511-951.8l6.511,4.318,2.446,3.425-.262,3.792-1.167,2.982.726,1.623-2.166.456-21.577-.13-21.756.322-11.646-.063-6.145-2.513-7.23-3.42-4.335-.705-1,4.516-.273,2.167-16.411-.052-9.3-.249-.093-1.173-.278-3.159-1-3.157-1.722-2.7-.911-3.248-.283-5.145.621-4.786,2.154-4.97,4.767-7.775,5.42,1.341,8.312,2.612,4.786.53,5.328.258,4.873-.643,7.758-2.553Z" transform="translate(-7413.132 973.084)" fill="#ff54cc"/><path d="M7714.565-973.084l7.322,4.316,8.14,5.939,13.284,5.482,9.125,3.138,9.846,2.408,6.511,4.318,2.445,3.425-.262,3.792-1.167,2.982.727,1.623-2.165.456-21.577-.13-21.757.322-11.646-.063-6.145-2.513-7.23-3.42-4.335-.705-1,4.516-.271,2.167L7678-935.081l-9.3-.249-.094-1.173-.277-3.159-1-3.157-1.722-2.7-.91-3.248-.283-5.145.621-4.786,2.155-4.97,4.766-7.775,5.42,1.341,8.312,2.612,4.786.53,5.327.258,4.874-.643,7.758-2.553Z" transform="translate(-7533.141 973.084)" fill="#ff54cc"/><path d="M7965.849-973.084l7.322,4.316,8.139,5.939,13.284,5.482,9.126,3.138,9.846,2.408,6.51,4.318,2.446,3.425-.262,3.792-1.167,2.982.726,1.623-2.166.456-21.577-.13-21.757.322-11.646-.063-6.145-2.513-7.23-3.42-4.335-.705-1,4.516-.272,2.167-16.411-.052-9.3-.249-.093-1.173-.279-3.159-1-3.157-1.722-2.7-.911-3.248-.283-5.145.621-4.786,2.154-4.97,4.766-7.775,5.42,1.341,8.312,2.612,4.786.53,5.327.258,4.873-.643,7.758-2.553Z" transform="translate(-7653.15 973.084)" fill="#ff54cc"/><path d="M8217.131-973.084l7.322,4.316,8.139,5.939,13.285,5.482,9.125,3.138,9.846,2.408,6.512,4.318,2.444,3.425-.261,3.792-1.168,2.982.727,1.623-2.166.456-21.576-.13-21.757.322-11.646-.063-6.146-2.513-7.229-3.42-4.336-.705-1,4.516-.271,2.167-16.412-.052-9.3-.249-.093-1.173-.278-3.159-1-3.157-1.722-2.7-.911-3.248-.282-5.145.62-4.786,2.155-4.97,4.766-7.775,5.42,1.341,8.313,2.612,4.785.53,5.327.258,4.875-.643L8211-969.9Z" transform="translate(-7773.159 973.084)" fill="#ff54cc"/><path d="M8468.413-973.084l7.323,4.316,8.139,5.939,13.285,5.482,9.125,3.138,9.846,2.408,6.511,4.318,2.445,3.425-.262,3.792-1.167,2.982.726,1.623-2.164.456-21.578-.13-21.757.322-11.646-.063-6.145-2.513-7.231-3.42-4.335-.705-1,4.516-.272,2.167-16.411-.052-9.3-.249-.093-1.173-.278-3.159-1-3.157-1.722-2.7-.909-3.248-.283-5.145.621-4.786,2.153-4.97,4.768-7.775,5.42,1.341,8.312,2.612,4.786.53,5.326.258,4.874-.643,7.759-2.553Z" transform="translate(-7893.167 973.084)" fill="#ff54cc"/><path d="M8719.7-973.084l7.323,4.316,8.139,5.939,13.283,5.482,9.126,3.138,9.846,2.408,6.511,4.318,2.445,3.425-.263,3.792-1.165,2.982.726,1.623-2.165.456-21.577-.13-21.757.322-11.646-.063-6.145-2.513-7.23-3.42-4.335-.705-1,4.516-.271,2.167-16.411-.052-9.3-.249-.091-1.173-.279-3.159-1-3.157-1.722-2.7-.91-3.248-.282-5.145.62-4.786,2.154-4.97,4.768-7.775,5.42,1.341,8.311,2.612,4.786.53,5.327.258,4.874-.643,7.758-2.553Z" transform="translate(-8013.176 973.084)" fill="#ff54cc"/><path d="M8970.978-973.084l7.323,4.316,8.14,5.939,13.283,5.482,9.127,3.138,9.847,2.408,6.509,4.318,2.446,3.425-.262,3.792-1.167,2.982.727,1.623-2.167.456-21.576-.13-21.757.322-11.646-.063-6.146-2.513-7.23-3.42-4.335-.705-1,4.516-.272,2.167-16.411-.052-9.3-.249-.092-1.173-.278-3.159-1-3.157-1.723-2.7-.911-3.248-.281-5.145.62-4.786,2.155-4.97,4.767-7.775,5.419,1.341,8.313,2.612,4.786.53,5.326.258,4.874-.643,7.759-2.553Z" transform="translate(-8133.184 973.084)" fill="#ff54cc"/><path d="M9222.262-973.084l7.322,4.316,8.139,5.939,13.285,5.482,9.125,3.138,9.846,2.408,6.512,4.318,2.445,3.425-.262,3.792-1.166,2.982.725,1.623-2.166.456-21.576-.13-21.756.322-11.646-.063-6.146-2.513-7.229-3.42-4.334-.705-1,4.516-.271,2.167-16.412-.052-9.3-.249-.094-1.173-.277-3.159-1-3.157-1.723-2.7-.91-3.248-.283-5.145.621-4.786,2.154-4.97,4.766-7.775,5.42,1.341,8.313,2.612,4.787.53,5.326.258,4.875-.643,7.756-2.553Z" transform="translate(-8253.191 973.084)" fill="#ff54cc"/></g><g transform="translate(7484.62 -1963.355)"><path d="M7600.122-853.111l7.322,4.316,8.14,5.939,13.283,5.482,9.125,3.138,9.847,2.408,6.51,4.318,2.446,3.425-.263,3.792-1.167,2.982.727,1.623-2.166.456-21.576-.13-21.757.322-11.646-.063-6.145-2.513-7.23-3.42-4.335-.705-1,4.516-.272,2.167-16.411-.052-9.3-.249-.092-1.173-.278-3.159-1-3.157-1.721-2.7-.91-3.248-.283-5.145.62-4.786,2.156-4.97,4.766-7.775,5.42,1.341,8.312,2.612,4.787.53,5.327.258,4.874-.643,7.758-2.553Z" transform="translate(-7549.971 853.111)" fill="#ff54cc"/><path d="M7851.4-853.111l7.322,4.316,8.139,5.939,13.284,5.482,9.126,3.138,9.846,2.408,6.51,4.318,2.446,3.425-.263,3.792-1.166,2.982.727,1.623-2.166.456-21.576-.13-21.757.322-11.646-.063-6.145-2.513-7.23-3.42-4.336-.705-1,4.516-.272,2.167-16.411-.052-9.3-.249-.094-1.173-.278-3.159-1-3.157-1.722-2.7-.91-3.248-.284-5.145.621-4.786,2.155-4.97,4.767-7.775,5.42,1.341,8.312,2.612,4.786.53,5.327.258,4.874-.643,7.758-2.553Z" transform="translate(-7669.979 853.111)" fill="#ff54cc"/><path d="M8102.687-853.111l7.323,4.316,8.139,5.939,13.284,5.482,9.126,3.138,9.845,2.408,6.511,4.318,2.446,3.425-.262,3.792-1.166,2.982.725,1.623-2.166.456-21.577-.13-21.756.322-11.646-.063-6.146-2.513-7.23-3.42-4.334-.705-1,4.516-.272,2.167-16.411-.052-9.3-.249-.093-1.173-.279-3.159-1-3.157-1.722-2.7-.911-3.248-.282-5.145.621-4.786,2.154-4.97,4.766-7.775,5.42,1.341,8.312,2.612,4.785.53,5.328.258,4.873-.643,7.758-2.553Z" transform="translate(-7789.989 853.111)" fill="#ff54cc"/><path d="M8353.969-853.111l7.322,4.316,8.141,5.939,13.283,5.482,9.125,3.138,9.848,2.408,6.51,4.318,2.445,3.425-.262,3.792-1.166,2.982.725,1.623-2.164.456-21.578-.13-21.756.322-11.646-.063-6.145-2.513-7.23-3.42-4.335-.705-1,4.516-.273,2.167-16.41-.052-9.3-.249-.094-1.173-.277-3.159-1-3.157-1.723-2.7-.91-3.248-.282-5.145.62-4.786,2.156-4.97,4.766-7.775,5.42,1.341,8.313,2.612,4.785.53,5.328.258,4.873-.643,7.758-2.553Z" transform="translate(-7909.997 853.111)" fill="#ff54cc"/><path d="M8605.252-853.111l7.323,4.316,8.139,5.939L8634-837.374l9.126,3.138,9.845,2.408,6.512,4.318,2.445,3.425-.263,3.792-1.166,2.982.727,1.623-2.166.456-21.576-.13-21.758.322-11.646-.063-6.144-2.513-7.23-3.42-4.336-.705-1,4.516-.272,2.167-16.411-.052-9.3-.249-.093-1.173-.278-3.159-1-3.157-1.722-2.7-.909-3.248-.284-5.145.621-4.786,2.155-4.97,4.766-7.775,5.42,1.341,8.313,2.612,4.785.53,5.328.258,4.872-.643,7.759-2.553Z" transform="translate(-8030.005 853.111)" fill="#ff54cc"/><path d="M8856.535-853.111l7.323,4.316,8.138,5.939,13.285,5.482,9.125,3.138,9.846,2.408,6.511,4.318,2.445,3.425-.262,3.792-1.167,2.982.727,1.623-2.166.456-21.577-.13-21.756.322-11.646-.063-6.145-2.513-7.23-3.42-4.335-.705-1,4.516-.271,2.167-16.412-.052-9.3-.249-.093-1.173-.278-3.159-1-3.157-1.721-2.7-.911-3.248-.282-5.145.62-4.786,2.154-4.97,4.767-7.775,5.421,1.341,8.312,2.612,4.785.53,5.328.258,4.873-.643,7.758-2.553Z" transform="translate(-8150.015 853.111)" fill="#ff54cc"/><path d="M9107.816-853.111l7.323,4.316,8.14,5.939,13.284,5.482,9.126,3.138,9.847,2.408,6.509,4.318,2.446,3.425-.262,3.792-1.167,2.982.726,1.623-2.165.456-21.578-.13-21.756.322-11.646-.063-6.144-2.513-7.231-3.42-4.335-.705-1,4.516-.272,2.167-16.41-.052-9.3-.249-.093-1.173-.278-3.159-1-3.157-1.723-2.7-.908-3.248-.284-5.145.621-4.786,2.155-4.97,4.767-7.775,5.419,1.341,8.313,2.612,4.786.53,5.326.258,4.874-.643,7.759-2.553Z" transform="translate(-8270.021 853.111)" fill="#ff54cc"/><path d="M9359.1-853.111l7.323,4.316,8.139,5.939,13.283,5.482,9.127,3.138,9.845,2.408,6.512,4.318,2.444,3.425-.262,3.792-1.165,2.982.726,1.623-2.166.456-21.577-.13-21.757.322-11.646-.063-6.145-2.513-7.23-3.42-4.334-.705-1,4.516-.271,2.167-16.411-.052-9.3-.249-.092-1.173-.278-3.159-1-3.157-1.723-2.7-.91-3.248-.282-5.145.62-4.786,2.155-4.97,4.766-7.775,5.421,1.341,8.311,2.612,4.786.53,5.327.258,4.874-.643,7.757-2.553Z" transform="translate(-8390.031 853.111)" fill="#ff54cc"/></g></g></svg>