<svg xmlns="http://www.w3.org/2000/svg" width="42.013" height="42.113" viewBox="0 0 42.013 42.113"><g transform="translate(0)"><path d="M19.54,23.552a4.573,4.573,0,0,1,4.412-4.312,4.412,4.412,0,1,1,0,8.824A4.608,4.608,0,0,1,19.54,23.552Z" transform="translate(-2.995 -2.595)" fill="#015562"/><path d="M24.922,21.106c0,2.206,0,2.206-2.206,2.206-2.306,0-2.306,0-2.306-2.206,0-2.306,0-2.306,2.206-2.306C24.922,18.8,24.922,18.8,24.922,21.106Z" transform="translate(4.858 -6.567)" fill="#015562"/><path d="M36.657,21.037v7.721c0,1-.3,1.3-1.4,1.3H20.413c-1,0-1.3-.3-1.3-1.3V20.435c0-.7.2-.9.9-.9,1,.1,1,0,.9,1a6.991,6.991,0,0,0,13.637,2.808,6.187,6.187,0,0,0,.1-3.309c0-.4.1-.5.4-.5C36.657,19.432,36.657,19.432,36.657,21.037Z" transform="translate(-6.877 -0.281)" fill="#015562"/><path d="M38.846,17.58A21.057,21.057,0,1,0,59.9,38.637,21.033,21.033,0,0,0,38.846,17.58ZM50.277,46.959a2.7,2.7,0,0,1-3.008,3.008H30.424a2.671,2.671,0,0,1-2.908-3.008V30.314a2.659,2.659,0,0,1,3.008-3.008H47.269a2.671,2.671,0,0,1,3.008,2.908Z" transform="translate(-17.89 -17.58)" fill="#015562"/></g></svg>