<svg xmlns="http://www.w3.org/2000/svg" xmlns:xlink="http://www.w3.org/1999/xlink" viewBox="0 0 169.784 91.45"><defs><style>.a{fill:#fff;}.b{fill:#015562;}.c{filter:url(#a);}</style><filter id="a" x="0" y="18.572" width="169.784" height="72.879" filterUnits="userSpaceOnUse"><feOffset dy="4" input="SourceAlpha"/><feGaussianBlur stdDeviation="2" result="b"/><feFlood flood-opacity="0.161"/><feComposite operator="in" in2="b"/><feComposite in="SourceGraphic"/></filter></defs><g transform="translate(6 0)"><g class="c" transform="matrix(1, 0, 0, 1, -6, 0)"><path class="a" d="M656.963,192.6l-6.752,16.774a14.645,14.645,0,0,0,13.782,19.6h17.262a14.642,14.642,0,0,1,12.29,6.681l3.928,6.061c5.346,8.252,17.146,7.354,23.484-.162h0a14.643,14.643,0,0,1,11.194-5.2H777.99a14.645,14.645,0,0,0,12.974-7.85L807,192.6C812.1,182.853,659.052,186.789,656.963,192.6Z" transform="translate(-643.34 -166.1)"/></g><g transform="translate(7.272)"><g transform="translate(98.483 52.305)"><path class="b" d="M1294.8,535.945l2.732-2.086a3.782,3.782,0,0,0,.725-.689,1.04,1.04,0,0,0,.213-.626.689.689,0,0,0-.225-.543.861.861,0,0,0-.589-.2,1.212,1.212,0,0,0-.694.225,4.211,4.211,0,0,0-.756.715l-1.366-1.136a6.335,6.335,0,0,1,.594-.667,3.292,3.292,0,0,1,.651-.49,3.094,3.094,0,0,1,.772-.3,4.028,4.028,0,0,1,.954-.1,3.307,3.307,0,0,1,1.091.172,2.628,2.628,0,0,1,.849.474,2.129,2.129,0,0,1,.553.735,2.256,2.256,0,0,1,.2.945v.021a2.556,2.556,0,0,1-.11.782,2.186,2.186,0,0,1-.33.641,3.571,3.571,0,0,1-.531.569c-.208.18-.448.369-.72.563l-1.251.876h3.014v1.648H1294.8v-1.52Z" transform="translate(-1294.8 -530.02)"/><path class="b" d="M1338.688,537.515a3.244,3.244,0,0,1-1.409-.3,3.086,3.086,0,0,1-1.058-.813,3.711,3.711,0,0,1-.667-1.205,4.463,4.463,0,0,1-.235-1.46v-.021a4.432,4.432,0,0,1,.24-1.466,3.752,3.752,0,0,1,.677-1.21,3.345,3.345,0,0,1,3.877-.825,3.147,3.147,0,0,1,1.058.813,3.662,3.662,0,0,1,.672,1.205,4.47,4.47,0,0,1,.235,1.46v.021a4.542,4.542,0,0,1-.235,1.464,3.609,3.609,0,0,1-.677,1.21,3.248,3.248,0,0,1-1.069.818A3.177,3.177,0,0,1,1338.688,537.515Zm.02-1.794a1.083,1.083,0,0,0,.553-.146,1.25,1.25,0,0,0,.423-.412,2.116,2.116,0,0,0,.266-.626,3.171,3.171,0,0,0,.094-.8v-.021a3.093,3.093,0,0,0-.1-.8,2.182,2.182,0,0,0-.277-.631,1.341,1.341,0,0,0-.428-.417,1.04,1.04,0,0,0-.553-.151,1.057,1.057,0,0,0-.548.146,1.323,1.323,0,0,0-.421.407,2.012,2.012,0,0,0-.272.626,3.223,3.223,0,0,0-.093.8v.021a3.144,3.144,0,0,0,.1.809,2.073,2.073,0,0,0,.277.636,1.293,1.293,0,0,0,.428.412A1.084,1.084,0,0,0,1338.708,535.72Z" transform="translate(-1328.675 -529.92)"/><path class="b" d="M1380.215,532.388l-1.23.282-.385-1.565,2.139-.605h1.471v7.354h-1.993v-5.466Z" transform="translate(-1364.857 -530.405)"/><path class="b" d="M1410.868,537.523a3.969,3.969,0,0,1-1.428-.236,4.209,4.209,0,0,1-1.117-.635l.949-1.4a2.73,2.73,0,0,0,.751.443,2.31,2.31,0,0,0,.813.141,1.19,1.19,0,0,0,.964-.4,1.993,1.993,0,0,0,.412-1.109,2.177,2.177,0,0,1-.669.433,2.253,2.253,0,0,1-.879.161,2.912,2.912,0,0,1-.982-.161,2.321,2.321,0,0,1-.779-.459,2.035,2.035,0,0,1-.512-.725,2.4,2.4,0,0,1-.182-.959v-.021a2.661,2.661,0,0,1,.218-1.1,2.459,2.459,0,0,1,.61-.84,2.761,2.761,0,0,1,.923-.538,3.47,3.47,0,0,1,1.158-.187,3.372,3.372,0,0,1,1.309.22,2.906,2.906,0,0,1,.933.636,2.864,2.864,0,0,1,.636,1.043,4.821,4.821,0,0,1,.239,1.658v.021a5.752,5.752,0,0,1-.218,1.637,3.626,3.626,0,0,1-.643,1.268,2.9,2.9,0,0,1-1.055.818A3.434,3.434,0,0,1,1410.868,537.523Zm.349-4.057a1.008,1.008,0,0,0,.754-.277.93.93,0,0,0,.272-.676v-.021a.971.971,0,0,0-.284-.713,1.034,1.034,0,0,0-.764-.282,1,1,0,0,0-.754.277.967.967,0,0,0-.272.707v.021a.919.919,0,0,0,.284.692A1.052,1.052,0,0,0,1411.218,533.466Z" transform="translate(-1389.611 -529.928)"/></g><g transform="translate(65.401 52.452)"><path class="b" d="M1096.46,538.266a4.692,4.692,0,0,1-1.409-.2,2.721,2.721,0,0,1-1.064-.61,2.675,2.675,0,0,1-.672-1.043,4.242,4.242,0,0,1-.234-1.486v-4.1h2.065v4.057a1.641,1.641,0,0,0,.362,1.173,1.277,1.277,0,0,0,.973.38,1.31,1.31,0,0,0,.973-.364,1.558,1.558,0,0,0,.362-1.136v-4.11h2.065v4.047a4.312,4.312,0,0,1-.244,1.528,2.65,2.65,0,0,1-1.763,1.663A4.775,4.775,0,0,1,1096.46,538.266Z" transform="translate(-1093.08 -530.828)"/><path class="b" d="M1141.429,532.593h-2.189V530.82h6.4v1.773h-2.191v5.528h-2.024v-5.528Z" transform="translate(-1131.67 -530.82)"/><path class="b" d="M1183.211,530.82h3.738a3.653,3.653,0,0,1,1.176.167,2.077,2.077,0,0,1,.812.49,1.586,1.586,0,0,1,.343.512,1.675,1.675,0,0,1,.125.667v.021a1.576,1.576,0,0,1-.317,1.027,2.064,2.064,0,0,1-.8.6,2.511,2.511,0,0,1,1.063.631,1.607,1.607,0,0,1,.392,1.153v.021a1.735,1.735,0,0,1-.725,1.481,3.4,3.4,0,0,1-2.039.531h-3.765v-7.3Zm3.244,2.909a1.332,1.332,0,0,0,.715-.157.528.528,0,0,0,.244-.479v-.021a.535.535,0,0,0-.23-.464,1.194,1.194,0,0,0-.689-.161h-1.314v1.282Zm.292,2.765a1.264,1.264,0,0,0,.72-.172.564.564,0,0,0,.251-.5v-.021a.565.565,0,0,0-.239-.479,1.27,1.27,0,0,0-.751-.177h-1.543v1.345Z" transform="translate(-1168.429 -530.82)"/></g><ellipse class="b" cx="3.142" cy="3.003" rx="3.142" ry="3.003" transform="translate(0 47.083)"/><ellipse class="b" cx="3.516" cy="3.359" rx="3.516" ry="3.359" transform="translate(62.151 7.832)"/><path class="b" d="M709.6,342.947s8.552-17.011,11.494-31.436c0,0,.09-.692,1.051-.479,0,0,.825.1.346.884,0,0-6.65,22.164-12.1,31.031" transform="translate(-707.088 -294.59)"/><path class="b" d="M767.95,344.227s1.143,3.482,3.1,21.782c0,0,.052.912,1.114.589a35.6,35.6,0,0,0,4.625-1.687s.658-.19.4-1.155c0,0-2.506-19.1-3.127-22.546,0,0-.12-1.245-1.532-.82l-4.016,1.594Z" transform="translate(-755.868 -319.093)"/><path class="b" d="M796.981,417.63s-9.428,17.408-9.551,19.2c0,0,.128.71.723.172,0,0,8.659-18.361,9.53-18.878Z" transform="translate(-772.154 -383.74)"/><path class="b" d="M853.174,327.724s-1.128-.016-.746,1.145c0,0,5.73,21.118,7.727,25.037a1.153,1.153,0,0,0,1.579.694l3.375-1.033s1.3-.717.453-2.627c0,0-6.43-15.307-6.768-21.962a1.636,1.636,0,0,0-2.148-1.835C854.253,327.573,853.174,327.724,853.174,327.724Z" transform="translate(-826.426 -308.046)"/><path class="b" d="M843.914,357.083S848,351.5,849.541,354.3l1.241-2.76-5.451-8.16s1.235,7.783-1.761,12.815Z" transform="translate(-819.087 -321.667)"/><g transform="translate(38.265 34.762)"><path class="b" d="M941.02,430.81l-1.4,3.393c-2.1,1.824-10.543-.772-10.883-4.969S938.6,423.7,938.6,423.7l2.417,7.114-.469-6.16-1.606-1.7s-11.293.622-11.335,6.263c0,0,.7,6.2,11.952,7.28l1.732-2.1Z" transform="translate(-927.61 -422.95)"/><path class="b" d="M1009.38,470.88Z" transform="translate(-995.97 -463.02)"/></g><path class="b" d="M943.653,336.694s-1.5-.517-3.91,5.712c0,0-1.086.759-1.233-.508,0,0,2.617-6.329,4.359-6.491a34.36,34.36,0,0,1,6.406-.512s1.243-.2,2.063,1.945c0,0,2.357,7.426,2.809,23.132a1.39,1.39,0,0,1-.546,1.263s-3.646,1.728-4.518,1.955-1.246-.807-1.246-.807.221-18.218-2.808-24.686c0,0-.367-.763-.881-.93A2.468,2.468,0,0,0,943.653,336.694Z" transform="translate(-898.457 -314.538)"/><path class="b" d="M985.566,344.256c-2.043,25.724-7.331,47.952-9.605,48.375-.576.107-2.093-1.722-2.093-1.722s-3.852-5.9-4.231-9.418c0,0-.354-.366-.436.2,0,0-.431,3.918,3.58,10.245,5.292,8.346,14.952-7.552,19.022-47.547,0,0,.477-1.574-.8-1.822a16.156,16.156,0,0,0-4.415.515S985.6,343.868,985.566,344.256Z" transform="translate(-924.104 -320.949)"/><path class="b" d="M1122.371,345.9a3.392,3.392,0,0,1,.687-4.748c2.6-2.348,2.9-2.626,4.175-3.08s7.053.172,7.053.172a1.419,1.419,0,0,1,1.168.874,21.649,21.649,0,0,1,3.416,11.178,116.871,116.871,0,0,1,.005,12.178.62.62,0,0,1-.482.745c-.608.134-4.851.84-4.851.84s-.572.138-.633-.4-.2-11.452-.208-12.611c0-.664-1.3-10.245-4.508-11.983-1.524-.825-4.812,3.332-5.018,3.693a3.424,3.424,0,0,0-.289,1.351,8.466,8.466,0,0,0,.394,1.433s.061.464-.313.592A.523.523,0,0,1,1122.371,345.9Z" transform="translate(-1051.599 -317.088)"/><path class="b" d="M1128.56,421.929s-8.959-2.1-9.052-5.635,14.93-4.077,14.93-4.077l.663-.087s.554-.271.007-.464c0,0-17.52-.91-19.26,4.507-1.432,4.456,14.532,12.4,15.409,7.795C1131.417,423.118,1128.56,421.929,1128.56,421.929Z" transform="translate(-1046.636 -378.707)"/><path class="b" d="M1207.316,305.439s5.551-8.693,7.606-9.213l.9-1.338-.333-2.017s-6.72,8.018-8.592,11.263S1207.316,305.439,1207.316,305.439Z" transform="translate(-1122.218 -279.44)"/><path class="b" d="M1246.308,212.825s.11-1.848,1.651-1.845,3.849.184,3.849.184.951-.228.722,1.032c0,0-3.972,28.634-4.92,51.991l-.052,2.439a1.3,1.3,0,0,1-.938,1.289c-.969.233-4.318.831-4.318.831s-.779.338-.746-1.114C1242.037,247.023,1246.308,212.825,1246.308,212.825Z" transform="translate(-1151.804 -210.98)"/><path class="b" d="M1307,325.209c-.981.392-13.444,13.954-1.01,22.9,10.3,7.411,21.723.835,21.723.835l-.659-.589a15.38,15.38,0,0,1-16.006-2.76c-8.237-7.237-.53-18.094-.53-18.094s1.222-2.522,3.585-2.291c.228.023.789.151.905-.136s-.443-1.012-1.433-1.122A16.663,16.663,0,0,0,1307,325.209Z" transform="translate(-1201.087 -305.395)"/><path class="b" d="M1342.124,335.058s1.246,7.714.694,8.561a12.242,12.242,0,0,1-4.828.267v1s5.671.2,5.865-.466c.49-1.694-.192-8.961-.93-10.2" transform="translate(-1232.424 -314.009)"/><path class="b" d="M1405.022,325.882a46.952,46.952,0,0,0,8.685,11.7,2.069,2.069,0,0,0,1.479.8h.328l-3.534-14.387s-3.437-11.042,5.784-12.49,13.841,1.271,13.841,1.271,2.3,3.249-.7,1.7-1.2-2.845-8.813-1.633-3.272,13.356-3.272,13.356-2.306,3.608-1.994,6.379.794,7.227.794,7.227.038.533-.289.73l-.685.362a2.578,2.578,0,0,1-1.586-.492c-1.13-.833-10.2-10.979-10.627-14.076Z" transform="translate(-1287.968 -294.664)"/><path class="b" d="M1542.673,305.713c.062-.449.007-1.476,1.36-1.2.879.177,2.045.425,2.755.577a.185.185,0,0,1,.036.349,3.014,3.014,0,0,0-1.776,2.594c-.2,2.378-3.2,5.491-3.2,5.491s-1.706.989-1.23-.536A62.462,62.462,0,0,0,1542.673,305.713Z" transform="translate(-1401.748 -289.133)"/><path class="b" d="M1400.357,397.971l.571,1.184a.164.164,0,0,0,.248.061,5.872,5.872,0,0,1,1.96-1.11c.7-.079-.526-.469-.75-.485a8.4,8.4,0,0,0-1.93.182A.117.117,0,0,0,1400.357,397.971Z" transform="translate(-1284.553 -367.004)"/></g></g></svg>