<svg xmlns="http://www.w3.org/2000/svg" viewBox="0 0 537.65 127.11"><defs><style>.cls-1{fill:#c7322d;}.cls-2,.cls-3{fill:#fff;}.cls-2{fill-rule:evenodd;}.cls-4{fill:#221f20;}.cls-5{font-size:21.63px;fill:#e06436;font-family:Montserrat-SemiBold, Montserrat;font-weight:600;}.cls-6{letter-spacing:-0.01em;}.cls-7{letter-spacing:-0.01em;}.cls-8{letter-spacing:-0.03em;}.cls-9{letter-spacing:0em;}.cls-10{letter-spacing:-0.02em;}.cls-11{letter-spacing:-0.01em;}.cls-12{letter-spacing:-0.02em;}.cls-13{letter-spacing:0.01em;}.cls-14{letter-spacing:-0.02em;}.cls-15{letter-spacing:-0.01em;}.cls-16{letter-spacing:-0.01em;}.cls-17{letter-spacing:0.01em;}</style></defs><title>Asset 7</title><g id="Layer_2" data-name="Layer 2"><g id="Vrstva_1" data-name="Vrstva 1"><rect class="cls-1" y="64.37" width="253.15" height="62.74"/><path class="cls-2" d="M230.06,93.28v2.55s0,0,0,0h-3.69v-.74h-1.76v1.65h5c.11,0,.5.3.5.49v4.32a1,1,0,0,1-1,.63h-8.32V99.66h3.87v.7h1.77V98.53h-4.72c-.74,0-.92-.26-.92-.91V94.1c0-.6.25-.82.92-.82Z"/><path class="cls-2" d="M208.19,93.28v2l-4.35,5.06h2.36v-.69h2v2.56h-9.66v-1.69l4.35-5.4h-2.41v.74h-1.92v-2.6Z"/><path class="cls-2" d="M218.59,93.28h-8.82v1.86h1.11v5.22h-1.16v1.87h6.61v-1.87h-1.87V98.55h4.13c.59,0,.77-.28.77-.93V94.1c0-.57-.17-.82-.77-.82Zm-2.22,3.5h-1.93V95.14h1.93v1.64Z"/><path class="cls-2" d="M230.27,105.78a8.18,8.18,0,0,0,0-16.35h-4a14.6,14.6,0,0,0-24.21,0h-4a8.18,8.18,0,0,0,0,16.35h4a14.62,14.62,0,0,0,24.23,0Zm-16.09-20a11.8,11.8,0,0,1,8.58,3.68H205.6A11.8,11.8,0,0,1,214.18,85.74Zm0,23.72a11.8,11.8,0,0,1-8.58-3.69h17.17A11.83,11.83,0,0,1,214.18,109.46Zm16.09-5.38H198.08a6.46,6.46,0,0,1,0-12.92h32.19a6.46,6.46,0,0,1,0,12.92Z"/><path class="cls-2" d="M30.51,87.65s-.65,4.77-1.6,6.26a1.2,1.2,0,0,1-2.18-.68,2.18,2.18,0,0,1,.17-1.06,2.41,2.41,0,0,0,1.15.14,2,2,0,0,0,1.65-1.45l-.77-.68S28.8,91.92,27.4,92a1.15,1.15,0,0,1-.34-.06,1.69,1.69,0,0,1,.85-.61l-.71-.74a1.51,1.51,0,0,0-.71.67,2.19,2.19,0,0,1,0-.73,2.35,2.35,0,0,0,1.31-1s.08-.3-.14-.15a2.07,2.07,0,0,1-1,.4l1.28-3-1.55.39s-.25,0-.55.61a8.19,8.19,0,0,1-3,3.57,3.23,3.23,0,0,1-.52.22c1-2.49,5.82-6.63,5.82-6.63h-.12a4.24,4.24,0,0,1-2.19.67c-1.9.09-3.38.18-4.51,1s-.51,1.65-.22,1.74a4,4,0,0,0,2.47-.51l0-.13a6,6,0,0,1-1.92.46c-.42,0-1.38-.43,0-1.46a5.61,5.61,0,0,1,4.44-.34s-3.69,2.9-4.67,5.22a.91.91,0,0,1-.58-1.33l-1.05.39a1.48,1.48,0,0,0,1.41,1.7,2.46,2.46,0,0,0,1.63,2.87,2.55,2.55,0,0,0,3.15-1.79l-.86-.68c0,2.68-1.73,2-1.73,2s-1.5-.3-1.28-2.39a5.58,5.58,0,0,0,2.59-2.27,8.88,8.88,0,0,0,1.36.51,1.76,1.76,0,0,0,.16,1.06,4,4,0,0,0-.09,1.84c.16,1.1,1.53,1.79,3,.77s2.17-6.9,2.17-6.9Zm-5.45,2h0c.39-.59.91-1.47.91-1.47a11.74,11.74,0,0,0,1.18-.4,16.51,16.51,0,0,1-.78,2C26.3,89.79,25.1,89.69,25.06,89.68Z"/><path class="cls-3" d="M34.85,90.59h-.09v-.09c0-.31,0-.63,0-.95v-.09h.09a5.28,5.28,0,0,0,1.88-.63c0-.24-.13-.85-.18-1.08a5.15,5.15,0,0,0-2,0h-.09l0-.08c-.09-.31-.19-.61-.31-.91l0-.08.08,0a4.93,4.93,0,0,0,1.59-1.18c-.1-.21-.38-.76-.5-1a5,5,0,0,0-1.88.62l-.08.05,0-.08a8,8,0,0,0-.57-.77l-.05-.06.06-.06a5.13,5.13,0,0,0,1.15-1.62c-.16-.17-.6-.6-.78-.76A4.88,4.88,0,0,0,31.49,83l-.06.06-.07,0a8.54,8.54,0,0,0-.78-.56l-.07,0,0-.07a4.94,4.94,0,0,0,.59-1.89c-.2-.12-.75-.4-1-.49A5.16,5.16,0,0,0,29,81.57l0,.08-.08,0c-.31-.11-.61-.21-.92-.29l-.08,0,0-.08a5.41,5.41,0,0,0,0-2c-.24,0-.84-.14-1.08-.16a4.88,4.88,0,0,0-.6,1.88v.09h-.09c-.31,0-.63,0-.95,0h-.09V81a5.2,5.2,0,0,0-.63-1.87,9.73,9.73,0,0,0-1.08.18,5.13,5.13,0,0,0,0,2v.08l-.08,0a7.45,7.45,0,0,0-.91.3l-.08,0,0-.08A4.93,4.93,0,0,0,21.1,80c-.21.1-.76.38-1,.51a5.16,5.16,0,0,0,.62,1.88l0,.07-.08,0c-.26.17-.52.37-.77.57l-.06,0-.06-.06A5.25,5.25,0,0,0,18.22,82c-.17.16-.6.6-.76.78a5,5,0,0,0,1.18,1.6l.06,0-.05.07a8.54,8.54,0,0,0-.56.78l-.05.07-.07,0a5.36,5.36,0,0,0-1.89-.59c-.12.21-.4.76-.49,1a5.38,5.38,0,0,0,1.61,1.15l.08,0,0,.08c-.11.31-.21.62-.29.92l0,.08h-.08a5,5,0,0,0-2,0c-.05.23-.15.84-.17,1.08a5.23,5.23,0,0,0,1.89.59h.09v.09c0,.31,0,.63,0,1v.08l-.09,0a5,5,0,0,0-1.87.63,10,10,0,0,0,.18,1.07,5,5,0,0,0,2,0l.08,0,0,.08a8.85,8.85,0,0,0,.31.91l0,.08-.08,0a4.93,4.93,0,0,0-1.59,1.18c.1.22.38.76.51,1a5.26,5.26,0,0,0,1.88-.63l.07,0,.05.07c.17.26.37.52.57.77l.05.06-.06.06a5.25,5.25,0,0,0-1.15,1.62c.16.18.6.61.78.76A5.06,5.06,0,0,0,20,97.19l.05-.07.07.06a8.43,8.43,0,0,0,.78.55l.07,0,0,.08a5,5,0,0,0-.59,1.89c.21.12.76.39,1,.48a5.09,5.09,0,0,0,1.15-1.61l0-.08.08,0a8.14,8.14,0,0,0,.92.29l.08,0V99a5,5,0,0,0,0,2c.23,0,.84.14,1.08.16a5.23,5.23,0,0,0,.59-1.89v-.09h.09c.31,0,.63,0,1,0h.08v.08a5.21,5.21,0,0,0,.64,1.88c.23,0,.84-.13,1.07-.18a5.06,5.06,0,0,0,0-2l0-.09.08,0c.31-.09.61-.19.91-.31l.08,0,0,.08a4.93,4.93,0,0,0,1.18,1.59c.22-.1.76-.38,1-.5a5.15,5.15,0,0,0-.63-1.88l0-.08.07,0a8,8,0,0,0,.77-.57l.07,0,.05.06a5.25,5.25,0,0,0,1.62,1.15c.18-.16.61-.6.76-.78a5.18,5.18,0,0,0-1.17-1.59l-.07-.06.06-.07a8.43,8.43,0,0,0,.55-.78l0-.07.08,0a4.84,4.84,0,0,0,1.89.59c.12-.2.39-.75.48-1a4.78,4.78,0,0,0-1.61-1.15l-.08,0,0-.08a8,8,0,0,0,.29-.91l0-.09.09,0a5.45,5.45,0,0,0,2,0c.05-.24.14-.84.16-1.08A5,5,0,0,0,34.85,90.59Zm-2.07.56a7.13,7.13,0,1,1-6-8.1A7.14,7.14,0,0,1,32.78,91.15Z"/><path class="cls-3" d="M50.16,106.92l-.08,0v-.08c.06-.31.11-.63.14-.95v-.09h.09a5.21,5.21,0,0,0,2-.35c0-.24,0-.85,0-1.09a5.09,5.09,0,0,0-2-.27H50.2V104c0-.32-.1-.64-.17-.95l0-.08.08,0a5.26,5.26,0,0,0,1.75-.93c-.07-.23-.27-.81-.36-1a5.13,5.13,0,0,0-1.95.34l-.08,0,0-.07a8.6,8.6,0,0,0-.45-.85l-.05-.07.07,0a5.15,5.15,0,0,0,1.37-1.43c-.13-.2-.5-.69-.65-.87a5,5,0,0,0-1.75.93l-.07,0-.06-.06q-.33-.35-.69-.66l-.06-.06,0-.07A5.26,5.26,0,0,0,48,96.35c-.19-.15-.69-.5-.9-.62a5.07,5.07,0,0,0-1.37,1.42l-.05.07-.07,0-.86-.42-.08,0,0-.08a5,5,0,0,0,.27-2c-.22-.09-.81-.26-1-.32A5.1,5.1,0,0,0,43,96.15l0,.09-.09,0a9.25,9.25,0,0,0-.94-.13h-.09V96a5.11,5.11,0,0,0-.35-2c-.24,0-.85,0-1.09,0a5.06,5.06,0,0,0-.27,2v.09h-.09a7.73,7.73,0,0,0-.94.17l-.08,0,0-.08a5.15,5.15,0,0,0-.93-1.75,9.67,9.67,0,0,0-1,.36,5.16,5.16,0,0,0,.34,2l0,.08-.08,0c-.28.14-.57.29-.84.46l-.07,0-.05-.07A5.15,5.15,0,0,0,35,96c-.2.13-.69.5-.87.66A5.08,5.08,0,0,0,35,98.38l0,.06L35,98.5q-.35.33-.66.69l-.06.07-.07-.05a5.25,5.25,0,0,0-1.78-.87c-.15.19-.5.7-.63.9a5.35,5.35,0,0,0,1.43,1.37l.07,0,0,.08c-.15.28-.29.57-.42.86l0,.08-.08,0a5.2,5.2,0,0,0-2-.27c-.09.23-.26.81-.32,1.05a5.24,5.24,0,0,0,1.78.86l.09,0,0,.08a9.45,9.45,0,0,0-.13.95v.08H32.1a5.11,5.11,0,0,0-2,.35c0,.24,0,.86,0,1.1a5.24,5.24,0,0,0,2,.27h.09v.09a7.4,7.4,0,0,0,.17.94l0,.08-.09,0a4.83,4.83,0,0,0-1.74.94,9.67,9.67,0,0,0,.36,1,5.06,5.06,0,0,0,1.95-.35l.08,0,0,.08q.21.43.45.84l0,.08-.07,0a4.88,4.88,0,0,0-1.37,1.43c.13.2.5.69.66.87a5.5,5.5,0,0,0,1.75-.94l.06,0,.06.06c.22.23.45.46.69.67l.07.05,0,.07a5.26,5.26,0,0,0-.87,1.79c.19.14.69.5.9.62a5.18,5.18,0,0,0,1.37-1.43l0-.07.07,0a8.64,8.64,0,0,0,.87.42l.08,0,0,.08a5,5,0,0,0-.27,2c.22.08.81.26,1.05.31a5.13,5.13,0,0,0,.86-1.78l0-.08.09,0c.31.06.63.1,1,.13h.08v.09a5.16,5.16,0,0,0,.35,2c.24,0,.86,0,1.09,0a5,5,0,0,0,.28-2v-.08h.09c.31,0,.63-.1.94-.17l.08,0,0,.08a5,5,0,0,0,.94,1.75c.23-.07.81-.27,1-.36a5,5,0,0,0-.35-2l0-.08.08,0a8.44,8.44,0,0,0,.84-.45l.08,0,.05.06a5.14,5.14,0,0,0,1.43,1.38c.2-.14.68-.51.87-.66a5.3,5.3,0,0,0-.94-1.75l-.05-.07.06-.06a8.75,8.75,0,0,0,.67-.69l0-.06.07.05a5,5,0,0,0,1.78.86c.15-.19.5-.69.63-.9a5.18,5.18,0,0,0-1.43-1.37l-.07,0,0-.07a7.58,7.58,0,0,0,.42-.86l0-.08.08,0a5,5,0,0,0,2,.27c.08-.22.26-.81.31-1A5.19,5.19,0,0,0,50.16,106.92Zm-2.13.25a7.13,7.13,0,1,1-4.76-8.88A7.13,7.13,0,0,1,48,107.17Z"/><path class="cls-3" d="M38.92,100.81a1.15,1.15,0,0,0-.84.37,1.17,1.17,0,0,0-.85-.37A1.16,1.16,0,0,0,36.08,102v7.12a.31.31,0,0,0,.62,0V102a.54.54,0,0,1,1.07,0v7.12a.31.31,0,0,0,.31.31.31.31,0,0,0,.31-.31V102a.53.53,0,0,1,1.06,0v7.12a.31.31,0,1,0,.62,0V102A1.16,1.16,0,0,0,38.92,100.81Zm7.1,7.13a.31.31,0,0,0-.31.31.53.53,0,0,1-1.06,0V102a.53.53,0,0,1,1.06,0,.31.31,0,1,0,.62,0,1.15,1.15,0,1,0-2.3,0v6.28a1.15,1.15,0,0,0,2.3,0A.31.31,0,0,0,46,107.94Zm-4-7.13A1.15,1.15,0,0,0,40.9,102v7.12a.31.31,0,0,0,.62,0v-1.54h1.06v1.54a.31.31,0,0,0,.62,0V102A1.15,1.15,0,0,0,42.05,100.81Zm.53,6.17H41.52v-5a.53.53,0,1,1,1.06,0Z"/><path class="cls-2" d="M60.68,112.4a1.64,1.64,0,0,1-1.63-1.64V86h-1.7a1.61,1.61,0,1,1,0-3.22H64A1.61,1.61,0,0,1,64,86H62.32v24.73A1.65,1.65,0,0,1,60.68,112.4Z"/><path class="cls-2" d="M74.47,112.4a1.65,1.65,0,0,1-1.64-1.64v-4.49h-2.2v4.49a1.64,1.64,0,1,1-3.27,0V87.21a4.37,4.37,0,0,1,8.74,0v23.55A1.64,1.64,0,0,1,74.47,112.4Zm-1.64-9.17v-16a1.1,1.1,0,0,0-2.2,0v16Z"/><path class="cls-2" d="M116.31,87.21a4.37,4.37,0,0,0-8.74,0h0v23.55a1.64,1.64,0,1,0,3.27,0v-4.49H113v4.49a1.64,1.64,0,1,0,3.27,0V87.21Zm-5.47,16v-16a1.1,1.1,0,0,1,2.2,0v16Z"/><path class="cls-2" d="M81.07,108.32a1.63,1.63,0,0,0-3.25.24,1.86,1.86,0,0,0,0,.35A4.36,4.36,0,0,0,86.5,108h0V84.48a1.64,1.64,0,1,0-3.27,0V108a1.1,1.1,0,0,1-1.1,1.1A1.12,1.12,0,0,1,81.07,108.32Z"/><path class="cls-2" d="M104.14,87.21A4.37,4.37,0,0,0,97,83.8a4.38,4.38,0,0,0-7.11,3.41h0v23.55a1.64,1.64,0,1,0,3.27,0V87.21a1.1,1.1,0,0,1,2.2,0v23.55a1.64,1.64,0,1,0,3.27,0V87.21h0a1.1,1.1,0,0,1,2.2,0v23.55a1.64,1.64,0,1,0,3.27,0V87.21Z"/><path class="cls-2" d="M126.84,106.39a1.63,1.63,0,0,0-1.63,1.64,1.1,1.1,0,0,1-2.2,0h0V87.21h0a1.1,1.1,0,0,1,2.2,0,1.64,1.64,0,0,0,3.27,0,4.37,4.37,0,1,0-8.74,0V108a4.37,4.37,0,0,0,8.74,0A1.63,1.63,0,0,0,126.84,106.39Z"/><path class="cls-2" d="M133.48,99.2a1.6,1.6,0,0,1,0-3.19h10.39a1.6,1.6,0,0,1,0,3.19Z"/><path class="cls-2" d="M167.58,82.84h-5.42V110.7a1.67,1.67,0,0,0,1.53,1.69,1.63,1.63,0,0,0,1.74-1.63V106.1h2.15a3.28,3.28,0,0,0,3.28-3.28V86.12A3.28,3.28,0,0,0,167.58,82.84Zm0,19.46a.53.53,0,0,1-.53.53h-1.63V86.12h1.64a.52.52,0,0,1,.52.52Z"/><path class="cls-2" d="M148.89,112.4,154.74,86h-4a1.61,1.61,0,0,1,0-3.22h7.94l-5.84,26.37h4a1.61,1.61,0,1,1,0,3.22Z"/><path class="cls-2" d="M177.65,87.21a1.11,1.11,0,0,1,1.18-1.1,1.14,1.14,0,0,1,1,1.14,1.63,1.63,0,0,0,1.71,1.59,1.7,1.7,0,0,0,1.56-1.73,4.37,4.37,0,0,0-4.4-4.27,4.44,4.44,0,0,0-4.34,4.47v2.6a9.55,9.55,0,0,0,1,4.17l3.45,7.08a9.38,9.38,0,0,1,1,4.16V108a1.1,1.1,0,0,1-1.18,1.09,1.12,1.12,0,0,1-1-1.13,1.65,1.65,0,0,0-1.71-1.6,1.7,1.7,0,0,0-1.56,1.74,4.37,4.37,0,0,0,4.4,4.27,4.44,4.44,0,0,0,4.33-4.48v-2.6a9.58,9.58,0,0,0-.63-4.26L178.93,94a9.57,9.57,0,0,1-1.29-4.08Z"/><path class="cls-4" d="M519.52,111.12h0ZM331,110.49Zm49.55-2.36h0Zm103-18.46v0m0,0Zm41.16-8.87c-.44.12-3,1-3.91,1.27-.35.1-.35.2-.11.53a12.89,12.89,0,0,1,1.09,2.92s0,21.66,0,22.7c0,1.46,0,3.42-1.28,4.94-.33.37-.46.45.5.52q3.18.34,6.38.74c.84.11.85.12.52-.33a8.56,8.56,0,0,1-1.34-5.26q0-11.49,0-23a4,4,0,0,1,2.33-1.4,3.14,3.14,0,0,1,2.18,3.28v21.42a14.12,14.12,0,0,0,1,5.85,6.27,6.27,0,0,0,1.78,2.44c.55.52,2.55,2.51,3.19,3.09.49.46.32.18.12-.25-1.27-2.74-1.37-6.77-1.37-8.11,0-.4,0-4.49,0-9.12.1-1.51.23-2.59,1.82-3.44-1.61-1.16-1.77-2.7-1.82-4.21V89.12a10.24,10.24,0,0,0-1.05-5.31,5.43,5.43,0,0,0-4.84-2.63,15.73,15.73,0,0,1-3.52,2.55A8.89,8.89,0,0,0,525.26,81a.39.39,0,0,0-.34-.2l-.17,0m-207,22.44a16.78,16.78,0,0,1,.95-5.85c1.06-2.37,3-3.27,4.29-5.53,0,3.37,0,7.66,0,9.59v5.83c0,1.68-1,3.31-2.5,3.46h-.13c-1.81,0-2.6-3.43-2.6-7.5m2.74-23.06c-3.72.35-6.61,2.77-6.61,5.22,0,1.58,1.37,2.89.57,4.46a4.06,4.06,0,0,0,2.45-3.16c.26-1.5.49-3.93,2.75-4.15,2.67-.25,3.34,2.2,3.34,5.62h0c0-.24,0-.33,0-.19,0,3.8-4,6.84-7.84,7.42a18.69,18.69,0,0,0-2.48,10.17c0,3.53,1,8.26,4.48,9.2l.1,0a37,37,0,0,0,6.14-4.31,6.19,6.19,0,0,0,3.71,3.54c1.81-1.46,3.85-3.46,4-3.46-2.79-.41-3.15-4.07-3.15-4.07s0-16.19,0-18.76c0-6-2.69-7.57-6.16-7.57-.41,0-.82,0-1.24.06m188.56,29.3c-1.89-.16-2.72-3.79-2.72-7.93a15,15,0,0,1,.94-5.65c1.07-2.16,3-2.71,4.27-4.74,0,3.36,0,7.62,0,9.54v5.8c0,1.6-.91,3-2.31,3h-.17m-6.58-26.38c0,1.58,1.36,3.13.57,4.55a3.23,3.23,0,0,0,2.44-2.69c.26-1.46.49-3.84,2.74-3.65,2.66.23,3.32,2.79,3.32,6.19h0c0-.24,0-.34,0-.19,0,3.77-4,6.09-7.8,6-1.69,2.44-2.48,5.57-2.48,9.66,0,3.51,1,8.7,4.47,10.27l.1,0a27.72,27.72,0,0,0,6.11-3.49,7.92,7.92,0,0,0,3.68,4.17c1.8-1.13,3.82-2.75,3.93-2.73-2.76-.91-3.12-4.61-3.12-4.61s0-16.09,0-18.66c0-6.61-3.32-8.43-7.36-8.78l-.8,0c-3.3,0-5.78,1.78-5.78,4M337.9,106.36V86.6c0-2.89,1.11-4.75,2.46-4.49,1.18.24,2.68,1.37,2.68,15.88,0,7-.94,10.57-2.7,12-1.45,0-2.44-1.71-2.44-3.63m0-24.28s-1.66-2-1.65-3.13l-4.6,3.74A6.67,6.67,0,0,1,333.13,87v8.21a.6.6,0,0,0-.06.27c0,.56,0,6.22,0,11.45a14,14,0,0,1-.63,3.35l.63.37c0,2.79,0,4.94,0,5.27,0,1.45.1,3.36-1.11,4.78-.31.36-.32.36.12.46l5.41,1.33a4.12,4.12,0,0,0,.42.09c0-.37,0-.73,0-1.09V113c7.94-2.69,10.08-8.6,10.08-18.67,0-13.62-2.33-14.66-5.36-15.75-1.71,1.11-3.81,2.26-4.71,3.53m153.22,26.08c-1.16-.37-2.95-1.4-2.95-15.83,0-7,.84-9.88,2.15-11.11a3.49,3.49,0,0,1,3,3.42v19.24c0,2.59-.67,4.34-1.79,4.34a1.36,1.36,0,0,1-.38-.06m-7.54-18.44v0s0,.1,0,.14c0,.29-.07.58-.09.88a4.94,4.94,0,0,1-2.15,3.69,6.19,6.19,0,0,1,2,4.83v0c.4,10,2.55,10.84,5.25,12.11,1.7-.9,3.79-1.77,4.69-2.93a1.22,1.22,0,0,0,.15.12c.18,2.74,1.8,4.6,1.8,7a2,2,0,0,1-2.45,2.28c-1.24-.09-2.77-1.3-4.28-1.95-2.49-1.07-4.11-1.32-6.49-.57a17.79,17.79,0,0,0-3.21,1.67c-.15.08-1.5,1.1-.63.71,4.39-1.9,7.11,1.7,11.3,2.26,5.55.74,9.67-3,9.67-6.64,0-2.26-1.11-4-1.11-6.74v-1.8c0-4.52,0-12.74,0-18.93h0a13.41,13.41,0,0,1,.67-4.31l-3.2-2.36a.27.27,0,0,0-.08-.07l-.09-.06h0a10.05,10.05,0,0,0-1.75-1c-6.49,1.25-9.17,5.13-10,11.73M367.25,100.11a16,16,0,0,1,1-5.79c1.08-2.3,3-3.1,4.3-5.28,0,3.38,0,7.66,0,9.59v5.83c0,1.68-1,3.25-2.5,3.31h-.06c-1.87,0-2.69-3.54-2.69-7.66M370,77.21c-3.73.13-6.64,2.36-6.64,4.81,0,1.58,1.37,3,.57,4.5a3.78,3.78,0,0,0,2.47-3c.26-1.49.5-3.91,2.76-4,2.69-.09,3.35,2.4,3.35,5.82h0c0-.24,0-.33,0-.19,0,3.8-4.06,6.61-7.88,6.94a18,18,0,0,0-2.5,10c0,3.54,1,8.34,4.51,9.5l.1,0a33.75,33.75,0,0,0,6.17-4,6.63,6.63,0,0,0,3.72,3.74c1.81-1.37,3.85-3.25,4-3.25-2.79-.55-3.16-4.23-3.16-4.23s0-16.19,0-18.77c0-6.36-3.08-7.92-6.92-7.92H370m110,.17c-.92,1.46-3,4.2-3.65,5.37v-5c0-.49.06-.49-.36-.39l-5.49,1.49c-.67.21-.5.14-.07.58,1.27,1.33,1.1,3.3,1.1,4.76,0,2.91-.1,13.15,0,20.43,0,2.17-.1,3.7-1.25,5.11-.35.41-.26.41,0,.41h.13c1.05,0,1.06,0,6.9.31.85.07.71.05.37-.38a8.2,8.2,0,0,1-1.33-5.2c0-13.4,0-12.61,0-11.81,0,.4,0,.8,0-.58a33.55,33.55,0,0,1,.57-7.64c.8-2.5,2.07-3.67,3.25-3s1,2.08.85,2.89c-.08.36-.18.64-.08.7s.5-.55.84-.93c1.13-1.24,3.18-3.31,2.57-5.24a3,3,0,0,0-3.08-2.07,4.33,4.33,0,0,0-1.27.19M456.79,91.12c0-7,1-10,2.35-11.26,2.19.23,3.36,4,3.36,11.85,0,10.8-.84,15.55-2.52,15.55h0c-1.22,0-3.17-1.71-3.17-16.14m-4.61-2.66h0c0,.13-.08.58-.08.69-.22,1.69-.52,3.21-2,4.12,1.54,1.15,1.64,2.9,1.84,4.77.6,10.11,3.58,11.42,6.55,12.39,7.57-2.11,9-8.64,9-18.25,0-7.88-1.21-13-3.78-14.71l-.07,0h0a9.2,9.2,0,0,0-1.74-.91c-6.45,2-8.93,5.39-9.75,11.95M387.51,76.53l-5.44,1.83c-.43.14-.42.14-.11.47,1.21,1.3,1.11,3.23,1.11,4.68,0,.27,0,1.89,0,4.11-.05,1.9-.51,3.83-2.14,5a5.66,5.66,0,0,1,2.14,4.57c0,3.92,0,7.25,0,7.66,0,1.48,0,3.57-1.26,5.12-.34.42-.51.56.44.49l6.65-.14c1,0,.58-.07.27-.5a8,8,0,0,1-1.26-5q0-13.9,0-27.82c0-.39,0-.52-.12-.52a1.41,1.41,0,0,0-.29.07m14.16-.13a19.32,19.32,0,0,1-3.57,3.07,7.81,7.81,0,0,0-1.17-2.65.41.41,0,0,0-.53-.11c-.44.18-3,1.38-3.94,1.78-.36.15-.36.25-.12.55a11.26,11.26,0,0,1,1.11,2.8v22.81a8,8,0,0,1-1.29,5.15c-.33.41-.46.51.51.45,2.14,0,4.3-.06,6.45-.09.86,0,.87,0,.53-.41a7.81,7.81,0,0,1-1.35-5.11q0-11.55,0-23.11a5,5,0,0,1,2.36-1.74c1.21.24,2.18,1,2.21,3v21.53c0,2.4.18,3.77,1,5a1.83,1.83,0,0,0,1.8.79c.56,0,2.79,0,3.44,0,.5,0,.33-.13.12-.37-1.29-1.56-1.39-4-1.39-5.37,0-.91,0-18.86,0-20.85a9.4,9.4,0,0,0-1.16-5.17,4.61,4.61,0,0,0-4.13-2c-.28,0-.58,0-.88.05m-44.76-4.8c-.64.91-1.36,2.09-3,4.36-2.1,2.91-2.71,3.71-3.28,4.4-.38.44-.23.51.35.47l1.84-.09v8c-.05,1.9-.51,3.85-2.14,5.06a5.55,5.55,0,0,1,2.14,4.56v7.75c0,2.2,1,5.55,3.84,6.3,1.66-1.13,3.44-2.51,4-2.92s.28-.41.05-.47c-2.54-.68-3.1-3.5-3.1-4.86,0-.92,0-14.05,0-23.6.86,0,2.32-.08,2.72-.12s.5-.19.81-.58c.12-.17.71-1,1-1.37s.41-.68.16-.67l-4.65.2c0-3.07,0-5.83,0-6.14,0-.61-.05-.87-.19-.87s-.33.23-.59.63m-48.57-1.93a11.71,11.71,0,0,0-7.92,5A27.2,27.2,0,0,0,296,87.72h0c-.27,1.8-.54,4.58-2.23,6.09,1.68,1.13,2.18,3,2.42,5v.06s0,0,0,0h0a33.41,33.41,0,0,0,4.26,12.36,23.85,23.85,0,0,0,15.36,11.11c.64.15,1,.19,1-.39,0-.37,0-.37,0-.79s-.38-.58-.75-.77c-4.21-2.26-7.6-4.32-10.11-9.14-3-5.74-4.07-11.88-4.06-18.84a52.87,52.87,0,0,1,1.69-14.67c.64-2.21,1.93-5,4.21-5.25a2,2,0,0,1,2.56,2.26c0,1.73-1.47,3.7-2.13,5.19-.81,1.79-1,3-.37,4.47,0-1.71,2.25-4.1,3.5-5.32,1.65-1.62,3.59-3.47,3.59-5.85,0-2.21-1.54-3.69-4.89-3.69a14.29,14.29,0,0,0-1.66.1m74.09-1.07c0,1.57,2.89,3.24,2.32,5.62a4.93,4.93,0,0,0,1.18-8.7c-1.16,1-2.33,2-3.5,3.08m40.71-3.14a32,32,0,0,0-5.91.65c-4.3,1-4.94,3.09-4.51,4.43.62,1.87,4.36,1.54,5.39.71-2.24-1-1.94-3.31,1.63-4.29a17.49,17.49,0,0,1,4.22-.48,6.58,6.58,0,0,1,.89,4.67c-.07.6-.08.75-1.85,10.68-.41,2-1.23,3.86-3.13,4.71a6.12,6.12,0,0,1,1.36,5.26c-.1.57-.21,1.16-.31,1.77-1.44,8.31-2.61,25-14.56,27,2.08.88,5.37.16,7.92-1.37,4.52-2.76,7.06-6.08,8.62-12.7.24-.93,4.83-28,4.83-28,1.36,10.44,2.69,20.87,4.06,31.31,0,.29.09.32.25.33l2.44,0c.27,0,.25,0,.3-.24l5.85-31.4q1.23,13.32,2.45,26.63a13.09,13.09,0,0,0,1.29,4.92c.24.44.27.4.74.41l5.29.11c.61,0,.48-.16.15-.5a9.26,9.26,0,0,1-2.33-5.9c-.05-.78-3.07-31.92-3.19-33.25-.16-1.58-.15-3.59,1.14-4.84.33-.35.29-.38-.09-.38s-2.16,0-3.68-.09l-2.9-.09c-.34,0-.55,0-.62.43q-2.31,12.45-4.62,24.9L431.11,66c-.05-.45,0-.52-.63-.53l-7,0c-.24,0-.37,0-.39,0"/><text class="cls-5" transform="translate(189.53 18.39)"><tspan class="cls-6">H</tspan><tspan class="cls-7" x="17.26" y="0">l</tspan><tspan class="cls-8" x="23.23" y="0">a</tspan><tspan class="cls-9" x="35.67" y="0">v</tspan><tspan class="cls-10" x="48.08" y="0">n</tspan><tspan x="62.53" y="0">í </tspan><tspan class="cls-11" x="74.75" y="0">p</tspan><tspan class="cls-12" x="89.38" y="0">a</tspan><tspan class="cls-13" x="102.16" y="0">r</tspan><tspan class="cls-14" x="111.56" y="0">t</tspan><tspan class="cls-15" x="120.35" y="0">n</tspan><tspan class="cls-16" x="134.92" y="0">e</tspan><tspan class="cls-17" x="148.12" y="0">ř</tspan><tspan x="157.33" y="0">i</tspan></text></g></g></svg>