<svg xmlns="http://www.w3.org/2000/svg" viewBox="0 0 283.17 144.4"><defs><style>.cls-1{fill:#57b7d3;}.cls-2{fill:#fff;}.cls-3{font-size:21.63px;fill:#e06436;font-family:Montserrat-SemiBold, Montserrat;font-weight:600;}.cls-4{letter-spacing:-0.01em;}.cls-5{letter-spacing:-0.01em;}.cls-6{letter-spacing:-0.01em;}.cls-7{letter-spacing:-0.01em;}.cls-8{letter-spacing:-0.02em;}.cls-9{letter-spacing:-0.02em;}.cls-10{letter-spacing:-0.02em;}.cls-11{letter-spacing:-0.01em;}.cls-12{letter-spacing:-0.02em;}.cls-13{letter-spacing:0.01em;}.cls-14{letter-spacing:-0.01em;}</style></defs><title>Asset 5</title><g id="Layer_2" data-name="Layer 2"><g id="Vrstva_1" data-name="Vrstva 1"><path class="cls-1" d="M116.17,76,93.38,53.24a4,4,0,0,0-5.7,0L36.4,104.52a4,4,0,0,0,0,5.69L59.2,133a4,4,0,0,0,5.69,0l51.28-51.29a4,4,0,0,0,0-5.69"/><path d="M170.64,98.48l-2-24.9A1.57,1.57,0,0,0,166.9,72h-2.46a1.81,1.81,0,0,0-1.9,1.35l-5,12.59c-.64,1.67-1.39,4.13-1.39,4.13H156s-.8-2.46-1.44-4.13l-5-12.59A1.8,1.8,0,0,0,147.69,72h-2.51a1.58,1.58,0,0,0-1.71,1.59l-2,24.9a1.43,1.43,0,0,0,1.59,1.71h1.79a1.53,1.53,0,0,0,1.7-1.59l1.07-14.18c.13-1.87,0-4.41,0-4.41h.09s.91,2.78,1.55,4.41L153.33,94a1.81,1.81,0,0,0,1.9,1.31h1.67A1.81,1.81,0,0,0,158.77,94l4.09-9.61c.63-1.63,1.5-4.37,1.5-4.37h.08s-.08,2.5,0,4.37l1.08,14.18a1.55,1.55,0,0,0,1.7,1.59h1.79a1.44,1.44,0,0,0,1.59-1.71m17.75-27a14.11,14.11,0,0,0-14.58,14.38c0,8.3,6,14.78,14.58,14.78S203,94.19,203,85.89a14.1,14.1,0,0,0-14.57-14.38m0,24.47c-5.41,0-9.3-4.37-9.3-10.09,0-5.48,3.89-9.69,9.3-9.69s9.29,4.21,9.29,9.69c0,5.72-3.89,10.09-9.29,10.09m34-10.61v-.08a6.67,6.67,0,0,0,3.42-6c0-4.65-3.66-7.27-8.75-7.27h-8.41A1.48,1.48,0,0,0,207,73.66V98.52a1.47,1.47,0,0,0,1.63,1.67h8.53c5.25,0,9.73-2.54,9.73-8.18a6.63,6.63,0,0,0-4.52-6.64m-10.29-9H217a3.25,3.25,0,0,1,3.57,3.49,3.34,3.34,0,0,1-3.45,3.62h-5Zm5.48,19.38h-5.48V87.64h5.48a4.07,4.07,0,1,1,0,8.14M234.25,72h-1.83a1.48,1.48,0,0,0-1.62,1.67V98.52a1.46,1.46,0,0,0,1.62,1.67h1.83a1.47,1.47,0,0,0,1.63-1.67V73.66A1.48,1.48,0,0,0,234.25,72m22.91,23.79H246.64V73.66A1.49,1.49,0,0,0,245,72h-1.82a1.48,1.48,0,0,0-1.63,1.67V98.52a1.47,1.47,0,0,0,1.63,1.67h14a1.48,1.48,0,0,0,1.67-1.67V97.41a1.47,1.47,0,0,0-1.67-1.63M136.58,129.4h-1.75a1.46,1.46,0,0,0-1.66,1.63v1.79a1.47,1.47,0,0,0,1.66,1.67h1.75a1.49,1.49,0,0,0,1.67-1.67V131a1.48,1.48,0,0,0-1.67-1.63m28.8-1.31a1.45,1.45,0,0,0-2.31-.28,11.75,11.75,0,0,1-6.9,2.47c-6.08,0-9.5-4.81-9.5-10.09s3.3-9.69,9.45-9.69a11.79,11.79,0,0,1,6.36,2c1,.6,1.7.52,2.26-.39l.71-1.16a1.54,1.54,0,0,0-.31-2.3,15.76,15.76,0,0,0-9.21-2.82,14.07,14.07,0,0,0-14.54,14.46c0,8.3,5.72,14.69,14.57,14.69a15.81,15.81,0,0,0,10-3.49,1.55,1.55,0,0,0,.24-2.31Zm23.14,2h-11c-1.31,0-2.1.08-2.1.08v-.08a17.81,17.81,0,0,0,2.06-2.55l11.88-17a3.31,3.31,0,0,0,.63-2.11v-.47a1.46,1.46,0,0,0-1.62-1.63H171.29a1.5,1.5,0,0,0-1.67,1.66v1.12a1.48,1.48,0,0,0,1.67,1.63h10.17c1.31,0,2.1-.08,2.1-.08v.08a16.55,16.55,0,0,0-2.06,2.54l-11.84,17a3.37,3.37,0,0,0-.68,2.11v.47a1.5,1.5,0,0,0,1.67,1.67h17.87a1.49,1.49,0,0,0,1.67-1.67v-1.11a1.47,1.47,0,0,0-1.67-1.63"/><path d="M96.23,144.4,119,121.61l-2.85-2.85L93.38,141.55ZM82,135.86l8.55,8.54,2.85-2.85L84.83,133Zm34.19-17.1,2.85-2.85-5.7-5.69-2.85,2.85Zm-2.85-8.54,2.85-2.85-5.7-5.7-2.85,2.85Zm-2.85-8.55,2.85-2.85-5.7-5.7L104.78,96Zm-5.69-22.79-2.85,2.85,2.85,2.85,2.84-2.85Zm-11.4,5.7,2.85-2.85-2.85-2.85-2.85,2.85Zm0,5.69,2.85-2.84-2.85-2.85-2.85,2.85Zm-2.85,8.55,5.7-5.7-2.85-2.85L87.68,96Zm-4.27-47L73.44,64.63l-5.7-5.69-2.85,2.85,8.55,8.54L89.11,54.66a2,2,0,0,1,2.84,0l22.8,22.8a2,2,0,0,1,0,2.84l-7.13,7.13-2.84-2.85-2.85,2.85,5.69,5.69,10-10a6.05,6.05,0,0,0,0-8.54L94.8,51.81a6.05,6.05,0,0,0-8.54,0M52.07,105.94l-4.28,4.28a2,2,0,0,0,0,2.84l8.56,8.56a2,2,0,0,0,2.84,0l4.28-4.29a2,2,0,0,0,0-2.84l-8.55-8.55a2,2,0,0,0-2.85,0m7.12,10-1.42,1.43-5.7-5.7,1.42-1.42Zm31.34-11.39,2.85-2.85-2.85-2.85-2.85,2.85Zm8.55-37L90.53,76l2.85,2.85,5.7-5.7,5.7,5.7L107.62,76ZM47.8,96,45,98.82l2.85,2.85L53.49,96,42.1,84.58l-5.7,5.69,2.85,2.85,2.85-2.85ZM62,93.12l-2.85-2.85L53.49,96l2.85,2.85Zm8.55-8.54-2.85-2.85L62,87.43l2.85,2.84Zm-11.4,5.69L62,87.43,47.8,73.18l-8.55,8.55,2.85,2.85,5.7-5.7ZM50.65,64.63,45,70.33l2.85,2.85,5.7-5.7Zm25.64,8.55-2.85-2.85L67.74,76l-8.55-8.55,5.7-5.69L62,58.94,53.5,67.48,67.74,81.73Zm17.09,34.19-2.85-2.85L63.46,131.59a2,2,0,0,1-2.84,0l-22.8-22.8a2,2,0,0,1,0-2.84L45,98.82l-5.7-5.7L36.4,96l2.85,2.85L35,103.1a6.05,6.05,0,0,0,0,8.54l22.8,22.8a6.05,6.05,0,0,0,8.54,0l4.28-4.28,8.55,8.55L82,135.86l-8.54-8.55Z"/><path class="cls-2" d="M42.1,90.27l-2.85,2.85,5.7,5.7L47.8,96Zm5.7-11.39-5.7,5.7L53.49,96l5.7-5.7Zm5.69-11.4-5.69,5.7L62,87.43l5.7-5.7Zm11.4-5.69-5.7,5.69L67.74,76l5.7-5.7ZM93.38,78.88l2.85,2.85-2.85,2.85,2.85,2.85-2.85,2.84,2.85,2.85-5.7,5.7,2.85,2.85-2.85,2.85,2.85,2.85L73.44,127.31,82,135.86,84.83,133l8.55,8.54,22.79-22.79-5.7-5.69,2.85-2.85-5.7-5.7,2.85-2.85L104.78,96l2.84-2.85-5.69-5.69,2.85-2.85-2.85-2.85,2.85-2.85-5.7-5.7Z"/><text class="cls-3" transform="translate(44.46 18.39)"><tspan class="cls-4">G</tspan><tspan class="cls-5" x="16.52" y="0">e</tspan><tspan class="cls-6" x="29.75" y="0">n</tspan><tspan class="cls-5" x="44.33" y="0">e</tspan><tspan class="cls-7" x="57.57" y="0">r</tspan><tspan class="cls-8" x="66.43" y="0">á</tspan><tspan class="cls-9" x="79.22" y="0">l</tspan><tspan class="cls-10" x="85.09" y="0">n</tspan><tspan x="99.53" y="0">í </tspan><tspan class="cls-11" x="111.75" y="0">p</tspan><tspan class="cls-12" x="126.38" y="0">a</tspan><tspan class="cls-13" x="139.16" y="0">r</tspan><tspan class="cls-9" x="148.56" y="0">t</tspan><tspan class="cls-6" x="157.35" y="0">n</tspan><tspan class="cls-14" x="171.93" y="0">e</tspan><tspan x="185.16" y="0">r</tspan></text></g></g></svg>