<svg xmlns="http://www.w3.org/2000/svg" viewBox="0 0 283.17 146.28"><defs><style>.cls-1{font-size:21.63px;fill:#e06436;font-family:Montserrat-SemiBold, Montserrat;font-weight:600;}.cls-2{letter-spacing:-0.01em;}.cls-3{letter-spacing:-0.01em;}.cls-4{letter-spacing:-0.01em;}.cls-5{letter-spacing:-0.01em;}.cls-6{letter-spacing:-0.02em;}.cls-7{letter-spacing:-0.02em;}.cls-8{letter-spacing:-0.02em;}.cls-9{letter-spacing:-0.01em;}.cls-10{letter-spacing:0em;}.cls-11{letter-spacing:0em;}.cls-12{letter-spacing:-0.01em;}.cls-13{letter-spacing:-0.02em;}.cls-14{letter-spacing:0.01em;}.cls-15{letter-spacing:-0.01em;}.cls-16{fill:#ccab70;}.cls-17{fill:#fff;}.cls-18{fill:#295337;}.cls-19{fill:#ae2a25;}</style></defs><title>Asset 6</title><g id="Layer_2" data-name="Layer 2"><g id="Vrstva_1" data-name="Vrstva 1"><text class="cls-1" transform="translate(14.54 18.39)"><tspan class="cls-2">G</tspan><tspan class="cls-3" x="16.52" y="0">e</tspan><tspan class="cls-4" x="29.75" y="0">n</tspan><tspan class="cls-3" x="44.33" y="0">e</tspan><tspan class="cls-5" x="57.57" y="0">r</tspan><tspan class="cls-6" x="66.42" y="0">á</tspan><tspan class="cls-7" x="79.22" y="0">l</tspan><tspan class="cls-8" x="85.09" y="0">n</tspan><tspan x="99.53" y="0">í </tspan><tspan class="cls-9" x="111.75" y="0">p</tspan><tspan class="cls-10" x="126.35" y="0">i</tspan><tspan class="cls-11" x="132.5" y="0">v</tspan><tspan class="cls-8" x="144.92" y="0">n</tspan><tspan x="159.37" y="0">í </tspan><tspan class="cls-12" x="171.59" y="0">p</tspan><tspan class="cls-13" x="186.22" y="0">a</tspan><tspan class="cls-14" x="199" y="0">r</tspan><tspan class="cls-7" x="208.39" y="0">t</tspan><tspan class="cls-4" x="217.19" y="0">n</tspan><tspan class="cls-15" x="231.76" y="0">e</tspan><tspan x="245" y="0">r</tspan></text><path class="cls-16" d="M158.44,136.89l0,0a5,5,0,0,0,.26-1.51l.17-2.46c0-.28.05-.72-.2-.86l0,0,1.29-.42v0c0,.12.13.33.34.55l2,2a7.31,7.31,0,0,0,1.17,1v0l-1.24.4,0,0c.07-.24-.23-.55-.43-.75l-.25-.25-2,.65,0,.34c0,.28-.06.71.14.85l0,0Zm2.45-2.84-1.27-1.33-.13,1.78Z"/><path class="cls-16" d="M169.11,132.63c0,.25.26,1.1.53,1.26v0l-1.24.25v0a1.45,1.45,0,0,0-.66-.73L165,131.47l.46,1.91c.06.25.27,1.1.54,1.26v0l-1.19.25v-.05c.15-.24-.05-1.1-.11-1.34l-.54-2.21c-.06-.25-.15-.66-.41-.81v-.05l1.35-.27v0c.08.32.41.55.7.75l2.57,1.77-.53-2.19c-.06-.25-.16-.65-.43-.8v-.05l1.21-.24v0a1.22,1.22,0,0,0,0,.9Z"/><path class="cls-16" d="M175.8,131.52c0,.24.22,1.1.48,1.27v.05L175,133v0a1.37,1.37,0,0,0-.63-.76l-2.69-2,.37,1.92c0,.25.22,1.11.49,1.28v0l-1.2.19,0,0c.17-.24,0-1.1-.05-1.34l-.43-2.24a1.33,1.33,0,0,0-.38-.82v0l1.37-.21v0a1.57,1.57,0,0,0,.67.78l2.49,1.88-.43-2.21a1.29,1.29,0,0,0-.39-.82v0l1.22-.19v0a1.15,1.15,0,0,0-.06.89Z"/><path class="cls-16" d="M182.72,129.77a2.25,2.25,0,0,1-2.22,2.61,2.44,2.44,0,0,1-2.92-2,2.23,2.23,0,0,1,2.21-2.61A2.45,2.45,0,0,1,182.72,129.77Zm-4.27.48a1.63,1.63,0,0,0,1.94,1.4,1.5,1.5,0,0,0,1.45-1.78,1.64,1.64,0,0,0-1.94-1.4A1.5,1.5,0,0,0,178.45,130.25Z"/><path class="cls-16" d="M189.6,130.19c0,.25.12,1.12.42,1.31v0l-1.39.08v0c.26-.23.18-1.09.16-1.35l-.21-2.11a1.46,1.46,0,0,1-.69,0v0a2.36,2.36,0,0,0,.84-1l.78,0v0a1.33,1.33,0,0,0-.13.88Z"/><path class="cls-16" d="M192.09,129a.85.85,0,0,1-.71-.84c-.06-.95,1-1.3,1.88-1.32s2,.27,2.05,1.23a.77.77,0,0,1-.59.86h0a1.16,1.16,0,0,1,1,1.08c.07,1.1-1.17,1.47-2.14,1.49s-2.26-.28-2.34-1.38a1.08,1.08,0,0,1,.86-1.12Zm1.34.36c-.8,0-1.34.31-1.31.77s.6.66,1.4.64,1.34-.26,1.31-.71S194.22,129.31,193.43,129.33Zm-.12-1.78c-.7,0-1.1.16-1.07.58s.43.53,1.14.52,1.1-.17,1.08-.58S194,127.53,193.31,127.55Z"/><path class="cls-16" d="M197.93,126.75h0l.59.07,3,0v0a3,3,0,0,0-.54.87L200,130a2.38,2.38,0,0,0-.27,1.32v0h-1.3v0l1.76-3.75H199a4.86,4.86,0,0,0-1.52.23h0Z"/><path class="cls-16" d="M207,131.61l-3.71-.16c0-2.27,3.14-2,3.14-3.12,0-.4-.45-.63-.89-.65a1.46,1.46,0,0,0-1.41.9h0l-.43-.85.21-.18a2.27,2.27,0,0,1,1.67-.61c.81,0,1.78.47,1.78,1.45,0,1.54-2.42,1.36-3,2.35l.78,0a9.42,9.42,0,0,0,2.46-.16h.05Z"/><path class="cls-16" d="M133.76,116.39a21.59,21.59,0,0,0,1.62-9,24,24,0,0,0-1.14-6.34,30.52,30.52,0,0,0-2.31-5.36,41.24,41.24,0,0,0-8.65-10.6c-2.43-2.21-5-4.33-7.43-6.5A25.58,25.58,0,0,1,111.52,74a7.61,7.61,0,0,1-1.32-6.65,7.12,7.12,0,0,1,5.7-5.13,11.11,11.11,0,0,1,8.94,1.75,13,13,0,0,1,5.53,8.4,39,39,0,0,1,.48,3.91c.07.6.35.76.87.45a3.48,3.48,0,0,0,.72-.54,20.73,20.73,0,0,0,4.95-7.39,7,7,0,0,0,.6-2.88,5.63,5.63,0,0,0-1.66-3.58,13.14,13.14,0,0,0-4.93-3.15,23.82,23.82,0,0,0-9.33-1.61,19.58,19.58,0,0,0-8.76,2,11.85,11.85,0,0,0-5.76,6.08,19,19,0,0,0-1.34,7.71,17.06,17.06,0,0,0,1.63,6.73,23.12,23.12,0,0,0,3.73,5.71c2.05,2.3,4.19,4.54,6.32,6.78a65.62,65.62,0,0,1,6,6.91,22.59,22.59,0,0,1,3.85,8.13,20.67,20.67,0,0,1,.3,7.59c-.94,7-6.58,12.16-13.54,13.8a19.56,19.56,0,0,1-10.53-.32A15,15,0,0,1,96.34,123a9.77,9.77,0,0,1-1.79-7.88,14.71,14.71,0,0,1,11.72-11.65c4.12-.79,9.15,1.64,10.07,3.7.12.26.18.53.29.79s.3.37.57.21a1.92,1.92,0,0,0,.54-.48c.94-1.23,2.32-2.49,2-4-.65-3.5-6.93-8-13.1-7.23a18.7,18.7,0,0,0-7.08,2.44,19.42,19.42,0,0,0-6,5.39,16,16,0,0,0-2.9,6.45c-1.2,6.37,1.49,14,7.38,17.53,5.57,3.34,12.76,3.77,18,2.73C124.23,130,131.44,122.1,133.76,116.39Z"/><path class="cls-16" d="M255.06,112.14c-.73-.39-1.53-.65-2.29-1-.13-.07-.37-.24-.37-.24a1.36,1.36,0,0,1-.27-.36,1.76,1.76,0,0,1-.15-.77V90.9c0-4.18-1.78-6-4.18-6-3.17,0-4.37,1.72-5.34,3.3a.27.27,0,0,1-.51-.13,3.06,3.06,0,0,0-3.07-2.8,1,1,0,0,0-.79.33L235,89l.44.52a1.59,1.59,0,0,1,1-.59c.56,0,1.28.52,1.28,2.35V109a4.84,4.84,0,0,0,1.45,4c.69.76,2,1.28,2.84.41l3.29-3.64-.53-.65a1.92,1.92,0,0,1-1.11.47c-.58,0-1.36-.17-1.36-3.52V92.47c0-3.25,1.38-4.17,2.72-4.17s2.42,1,2.42,3.31v18.12c0,1.85.19,2.66,1.32,3.76a4.39,4.39,0,0,0,1.32.42,5.75,5.75,0,0,0,1.82-.22,4,4,0,0,1,2.88,0,3.78,3.78,0,0,1,2.15,3.71,8.57,8.57,0,0,1-4.28,8.07,16.36,16.36,0,0,1-9,2,31.14,31.14,0,0,1-6.76-1l-8.57-2.22c-2.73-.71-5.45-1.5-8.2-2.14s-5.77-1.3-8.67-1.79q-4.84-.82-9.72-1.36a135.31,135.31,0,0,0-26.92-.13c-2.55.22-5.08.51-7.61.86-3,.41-6.07.81-9.06,1.42A83.67,83.67,0,0,0,144,125a109.88,109.88,0,0,0-10.18,4.81,13.1,13.1,0,0,0-5.87,5.65,6.36,6.36,0,0,0,1,7.68c.92,1,1.92,1.94,2.89,2.9.43.42.72.37,1-.2a7.91,7.91,0,0,1,2.05-2.53,39.63,39.63,0,0,1,6.95-4.76,104.2,104.2,0,0,1,18.28-8.13c2.13-.69,4.26-1.33,6.43-1.87,1.66-.42,3.36-.69,5-1,2.23-.36,4.45-.72,6.69-1,2.63-.3,5.27-.54,7.91-.69,3.31-.18,6.63-.28,10-.34a116.7,116.7,0,0,1,12.8.54c3.18.3,6.35.69,9.53,1.09,1.89.24,3.77.55,5.65.89s3.83.74,5.75,1.1c2.54.48,5.08.92,7.63,1.41a43.59,43.59,0,0,0,10.84,1.15,17.24,17.24,0,0,0,6.25-1.37,9.56,9.56,0,0,0,5.58-10.74A9.94,9.94,0,0,0,255.06,112.14Z"/><path class="cls-16" d="M264.05,85.79c-5.92,0-8.43,7.67-8.49,13.73C255.44,109.88,259,115,264.05,115s8.61-5.1,8.49-15.46C272.47,93.46,270,85.79,264.05,85.79Zm0,27.34c-2.78,0-3.48-6.29-3.48-13.12,0-7.12,1-12.49,3.48-12.49s3.48,5.37,3.48,12.49C267.51,106.84,266.81,113.13,264,113.13Z"/><path class="cls-16" d="M221.41,88.05c.57,0,1.29.53,1.29,2.35v17.67a4.83,4.83,0,0,0,1.44,4c.7.77,2,1.28,2.84.41.57-.61,3.3-3.64,3.3-3.64l-.55-.65a1.86,1.86,0,0,1-1.1.48c-.58,0-1.35-.18-1.35-3.52V91.55c0-2.69,1.15-3.43,2.18-3.43,2,0,1.94,2.28,1.63,3.41l.86.27s2.12-2.52,2.12-5a2.37,2.37,0,0,0-2.55-2.4A3.5,3.5,0,0,0,229,85.6c-.47.54-1.35,1.53-1.56,1.74s-.47.16-.51-.14a3.06,3.06,0,0,0-3.06-2.8,1,1,0,0,0-.79.34c-.46.48-3.14,3.38-3.14,3.38l.42.52A1.71,1.71,0,0,1,221.41,88.05Z"/><path class="cls-16" d="M138.85,89.78c.16,0,.23.09.23.25v19.11c0,4.66,1.51,6.34,3.44,6.34,2.2,0,4.17-2.14,6.73-4.22a1.18,1.18,0,0,1,1.31-.29,4,4,0,0,0,3.5,1.75,7.84,7.84,0,0,0,5.62-2.59.25.25,0,0,1,.4.13c.59,1.4,1.12,2.73,2.57,2.73a1.19,1.19,0,0,0,1.06-.52c1-1,3.28-3.61,3.28-3.61l-.49-.62a2.13,2.13,0,0,1-1.11.49c-1.21,0-1.45-1.37-1.45-5V91.62c0-4.2-1.07-7.33-5.85-7.33-4.16,0-7.43,3.1-7.43,6.1,0,1.71.87,2.83,2.53,2.83a3.48,3.48,0,0,0,2.53-1.14.51.51,0,0,0-.09-.73A3.15,3.15,0,0,1,154.31,89c0-1.71,1.22-3.35,2.71-3.35s2.38,1.41,2.38,3.57v3.65a1.87,1.87,0,0,1-1.07,1.78,26.34,26.34,0,0,0-6.39,4.52,9,9,0,0,0-2.65,5.77.28.28,0,0,0,0,.09,12.92,12.92,0,0,0-.06,2c0,.24.08.7.13,1.21h0a2.91,2.91,0,0,1-1.69,2.57c-2.91,1.69-4,1-4-2.25V90a.22.22,0,0,1,.24-.25c1.94,0,3.83.07,4.67-.45a5,5,0,0,0,1.68-2.82,12.05,12.05,0,0,1-3,.72,25.2,25.2,0,0,1-3.3.1.22.22,0,0,1-.24-.25V79a1.75,1.75,0,0,1,0-.33l-.37-1.21A36.69,36.69,0,0,1,137.87,82l.63.79a2.22,2.22,0,0,1,.58,1.71v2.6c0,.15-.07.25-.23.25-2.86,0-4.2.37-5,1.09a2.82,2.82,0,0,0-.91,1.91,5.65,5.65,0,0,1,1.61-.44C135.58,89.76,137.85,89.78,138.85,89.78Zm17.73,8.57c1.33-.92,2.15-1.44,2.35-1.58a.28.28,0,0,1,.45.2c0,.21,0,7.69,0,9.75a3.08,3.08,0,0,1-2.79,3.22c-1.64,0-2.76-2.6-2.76-5C153.85,102.38,154.73,99.63,156.58,98.35Z"/><path class="cls-16" d="M190.65,82.94c-5.92,0-8.42,7.67-8.49,13.72-.12,10.36,3.46,15.46,8.49,15.46s8.61-5.1,8.49-15.46C199.08,90.61,196.56,82.94,190.65,82.94Zm0,27.34c-2.78,0-3.48-6.3-3.48-13.13,0-7.11,1-12.48,3.48-12.48s3.49,5.37,3.49,12.48C194.12,104,193.42,110.28,190.63,110.28Z"/><path class="cls-16" d="M179.18,91.35s2.12-2.53,2.12-5a2.37,2.37,0,0,0-2.55-2.4,3.45,3.45,0,0,0-2.48,1.2c-.48.54-1.36,1.52-1.57,1.74s-.46.15-.51-.14a3.06,3.06,0,0,0-3.07-2.8.93.93,0,0,0-.78.34l-3.14,3.39.43.51a1.67,1.67,0,0,1,1-.59c.57,0,1.29.52,1.29,2.35v17.67a4.83,4.83,0,0,0,1.44,4c.71.77,2,1.28,2.85.41.56-.6,3.29-3.64,3.29-3.64l-.54-.65a2,2,0,0,1-1.1.47c-.6,0-1.36-.17-1.36-3.51V91.1c0-2.68,1.15-3.42,2.19-3.42,2,0,1.93,2.27,1.62,3.4Z"/><path class="cls-16" d="M153.7,79.05a15.83,15.83,0,0,0,4.76.71,24.22,24.22,0,0,0,7.81-1.18,55.59,55.59,0,0,0,8-3.12c4-1.94,7.88-4,11.8-6a108.34,108.34,0,0,1,11.37-5.39,23.57,23.57,0,0,1,6.64-1.57,6.19,6.19,0,0,1,2.59.35,4.29,4.29,0,0,1,2.63,6,9.74,9.74,0,0,1-2.6,3.14,13.57,13.57,0,0,1-1.13.87h0A14.42,14.42,0,0,1,203.43,74c-2.24,1-3.44,1.49-3.44,1.49l.18.44c1.56.24,1.91.73,1.91,3.5v26.64a1.52,1.52,0,0,1-.19.68,1.11,1.11,0,0,0-.07,1.37,10.21,10.21,0,0,0,8.07,4.35c3.66,0,6-2.37,7.4-5.68a27.63,27.63,0,0,0,1.77-9.29c0-8-2.92-14.25-7.8-14.25a9.21,9.21,0,0,0-3.54.61.35.35,0,0,1-.46-.32V73.22a.84.84,0,0,1,.52-.76c.6-.31,1.2-.62,1.78-1a12.19,12.19,0,0,0,4.11-3.94,6,6,0,0,0,.78-4.49c-.5-2.2-2.09-3.21-4-3.74a17,17,0,0,0-7.42-.1,29,29,0,0,0-6.83,2.08c-3.49,1.53-6.93,3.19-10.39,4.79-2.93,1.35-5.82,2.78-8.8,4-2.37,1-4.81,1.84-7.27,2.61a26.55,26.55,0,0,1-4.51.93A16.81,16.81,0,0,1,158.3,73a16.42,16.42,0,0,1-7.36-4.08c-.37-.37-.62-.34-.86.1-.44.82-.9,1.65-1.31,2.5a4.12,4.12,0,0,0,.44,4.37A8.52,8.52,0,0,0,153.7,79.05ZM210.27,85c2.82,0,3.71,5.38,3.71,12.49,0,6.83-.93,13.13-3.71,13.13s-3.49-6.3-3.49-13.13C206.78,90.37,207.77,85,210.27,85Z"/><path class="cls-17" d="M133.09,115.09a21.46,21.46,0,0,0,1.62-9,24,24,0,0,0-1.14-6.34,29.79,29.79,0,0,0-2.31-5.36,41.24,41.24,0,0,0-8.65-10.6c-2.43-2.22-5-4.33-7.42-6.51a25.18,25.18,0,0,1-4.33-4.67A7.6,7.6,0,0,1,109.53,66a7.14,7.14,0,0,1,5.7-5.12,11.11,11.11,0,0,1,8.94,1.74A13,13,0,0,1,129.7,71c.28,1.29.33,2.61.48,3.91.07.61.35.77.87.45a3.4,3.4,0,0,0,.73-.53,21.09,21.09,0,0,0,4.95-7.39,7,7,0,0,0,.59-2.88A5.62,5.62,0,0,0,135.67,61a13,13,0,0,0-4.93-3.15,23.85,23.85,0,0,0-9.33-1.61,19.42,19.42,0,0,0-8.76,2,11.69,11.69,0,0,0-5.76,6.08,19,19,0,0,0-1.35,7.71,17.24,17.24,0,0,0,1.63,6.73,23.4,23.4,0,0,0,3.73,5.71c2,2.3,4.19,4.53,6.32,6.78a65.62,65.62,0,0,1,6,6.91,22.39,22.39,0,0,1,3.85,8.12,21,21,0,0,1,.31,7.6c-1,7-6.59,12.16-13.55,13.79a19.46,19.46,0,0,1-10.53-.31,15.08,15.08,0,0,1-7.65-5.68,9.82,9.82,0,0,1-1.79-7.89,14.71,14.71,0,0,1,11.72-11.64c4.12-.8,9.15,1.64,10.07,3.7.12.25.18.53.3.79s.3.37.57.2a2,2,0,0,0,.54-.47c.94-1.24,2.31-2.49,2-4-.66-3.5-6.94-8-13.11-7.23a18.59,18.59,0,0,0-7.07,2.44,19.33,19.33,0,0,0-6,5.39,15.86,15.86,0,0,0-2.89,6.45c-1.21,6.37,1.48,14,7.38,17.53,5.56,3.34,12.75,3.77,17.95,2.73C123.56,128.66,130.77,120.79,133.09,115.09Z"/><path class="cls-17" d="M254.4,110.84c-.74-.39-1.54-.65-2.3-1a3,3,0,0,1-.37-.24,1.1,1.1,0,0,1-.26-.35,1.63,1.63,0,0,1-.16-.77V89.6c0-4.18-1.77-5.95-4.18-5.95-3.17,0-4.36,1.72-5.34,3.3a.27.27,0,0,1-.51-.13,3.06,3.06,0,0,0-3.07-2.8,1,1,0,0,0-.79.33l-3.13,3.39.43.52a1.62,1.62,0,0,1,1-.59c.56,0,1.29.52,1.29,2.35v17.66a4.85,4.85,0,0,0,1.44,4c.7.76,2,1.28,2.85.41l3.29-3.64-.54-.65a1.92,1.92,0,0,1-1.11.47c-.58,0-1.35-.18-1.35-3.52V91.17c0-3.25,1.38-4.17,2.71-4.17s2.42,1,2.42,3.3v18.13c0,1.85.19,2.66,1.32,3.76a4.39,4.39,0,0,0,1.32.42,5.47,5.47,0,0,0,1.82-.23,4.14,4.14,0,0,1,2.88.05,3.81,3.81,0,0,1,2.16,3.72,8.6,8.6,0,0,1-4.29,8.07,16.42,16.42,0,0,1-9,2,31.14,31.14,0,0,1-6.76-1c-2.85-.75-5.71-1.48-8.56-2.22s-5.46-1.5-8.2-2.14-5.78-1.3-8.68-1.8c-3.22-.54-6.47-1-9.71-1.35a135.32,135.32,0,0,0-26.92-.14q-3.83.34-7.62.86c-3,.41-6.07.82-9.06,1.42a84.92,84.92,0,0,0-14.08,3.84,106,106,0,0,0-10.17,4.81,13,13,0,0,0-5.87,5.65,6.33,6.33,0,0,0,1,7.67c.93,1,1.92,2,2.89,2.91.43.42.72.37,1-.2a7.83,7.83,0,0,1,2.05-2.53,39.09,39.09,0,0,1,6.95-4.76,104.29,104.29,0,0,1,18.29-8.13c2.12-.69,4.26-1.33,6.42-1.87,1.67-.42,3.36-.7,5.05-1,2.23-.36,4.45-.72,6.69-1,2.63-.29,5.27-.54,7.91-.68,3.31-.18,6.63-.28,9.95-.34a116.49,116.49,0,0,1,12.8.54c3.18.3,6.36.69,9.53,1.09,1.89.24,3.78.55,5.66.89s3.82.74,5.74,1.1c2.54.47,5.08.92,7.63,1.41a44.19,44.19,0,0,0,10.85,1.14,17.07,17.07,0,0,0,6.25-1.36,9.58,9.58,0,0,0,5.58-10.74C258.86,115,257.28,112.36,254.4,110.84Z"/><path class="cls-17" d="M263.38,84.49c-5.92,0-8.42,7.67-8.49,13.72-.12,10.37,3.46,15.46,8.49,15.46s8.61-5.09,8.49-15.46C271.8,92.16,269.3,84.49,263.38,84.49Zm0,27.34c-2.78,0-3.48-6.29-3.48-13.12,0-7.12,1-12.49,3.48-12.49s3.48,5.37,3.48,12.49C266.84,105.54,266.15,111.83,263.36,111.83Z"/><path class="cls-17" d="M220.74,86.75c.57,0,1.29.52,1.29,2.35v17.67a4.83,4.83,0,0,0,1.44,4c.7.76,2.05,1.28,2.85.41l3.29-3.64-.54-.65a1.9,1.9,0,0,1-1.11.48c-.58,0-1.35-.18-1.35-3.52V90.25c0-2.69,1.15-3.43,2.19-3.43,2,0,1.93,2.28,1.62,3.41l.86.27s2.12-2.53,2.12-5a2.36,2.36,0,0,0-2.55-2.4,3.45,3.45,0,0,0-2.48,1.2c-.48.54-1.35,1.52-1.57,1.73s-.47.16-.51-.13a3.05,3.05,0,0,0-3.06-2.8,1,1,0,0,0-.79.34c-.46.48-3.14,3.38-3.14,3.38l.43.52A1.67,1.67,0,0,1,220.74,86.75Z"/><path class="cls-17" d="M138.19,88.48c.15,0,.23.09.23.25v19.11c0,4.66,1.5,6.34,3.43,6.34,2.2,0,4.18-2.14,6.73-4.22a1.18,1.18,0,0,1,1.31-.29,4,4,0,0,0,3.51,1.75,7.82,7.82,0,0,0,5.61-2.59.25.25,0,0,1,.4.13c.6,1.4,1.12,2.73,2.57,2.73a1.19,1.19,0,0,0,1.06-.52c1-1,3.29-3.61,3.29-3.61l-.5-.62a2.13,2.13,0,0,1-1.1.49c-1.22,0-1.46-1.37-1.46-5V90.32c0-4.2-1.07-7.33-5.84-7.33-4.16,0-7.44,3.09-7.44,6.09,0,1.72.87,2.83,2.53,2.83a3.48,3.48,0,0,0,2.53-1.14A.49.49,0,0,0,155,90a3.11,3.11,0,0,1-1.32-2.34c0-1.71,1.23-3.36,2.72-3.36s2.38,1.42,2.38,3.58v3.65a1.89,1.89,0,0,1-1.07,1.78,26,26,0,0,0-6.4,4.52,9,9,0,0,0-2.65,5.77s0,0,0,.09a12.92,12.92,0,0,0-.06,2c0,.23.08.7.13,1.21h0a2.94,2.94,0,0,1-1.7,2.57c-2.91,1.69-4,1-4-2.25V88.73c0-.16.08-.25.23-.25,1.95,0,3.83.07,4.68-.45a5.06,5.06,0,0,0,1.67-2.82,12.05,12.05,0,0,1-3.05.72,25.2,25.2,0,0,1-3.3.1.22.22,0,0,1-.23-.25V77.66a1.69,1.69,0,0,1,0-.33l-.36-1.21a37,37,0,0,1-5.48,4.56s.43.54.64.78a2.29,2.29,0,0,1,.58,1.72v2.6a.22.22,0,0,1-.23.25c-2.86,0-4.21.37-5,1.09a2.81,2.81,0,0,0-.9,1.91,5.65,5.65,0,0,1,1.61-.44C134.91,88.46,137.18,88.48,138.19,88.48Zm17.73,8.57c1.32-.93,2.14-1.45,2.34-1.58a.28.28,0,0,1,.45.2c0,.21,0,7.69,0,9.75a3.09,3.09,0,0,1-2.8,3.22c-1.64,0-2.76-2.6-2.76-5C153.18,101.08,154.07,98.33,155.92,97.05Z"/><path class="cls-17" d="M190,81.64c-5.92,0-8.42,7.66-8.49,13.72-.12,10.36,3.46,15.46,8.49,15.46s8.61-5.1,8.49-15.46C198.41,89.3,195.9,81.64,190,81.64ZM190,109c-2.79,0-3.49-6.3-3.49-13.13,0-7.11,1-12.49,3.49-12.49s3.48,5.38,3.48,12.49C193.45,102.68,192.75,109,190,109Z"/><path class="cls-17" d="M178.51,90.05s2.12-2.53,2.12-5a2.36,2.36,0,0,0-2.55-2.4,3.42,3.42,0,0,0-2.48,1.2c-.47.54-1.35,1.52-1.57,1.73s-.46.16-.51-.13a3.05,3.05,0,0,0-3.06-2.8,1,1,0,0,0-.79.34l-3.13,3.38.42.52a1.67,1.67,0,0,1,1-.59c.57,0,1.29.52,1.29,2.35v17.66a4.84,4.84,0,0,0,1.44,4c.71.77,2,1.28,2.85.41l3.29-3.64-.54-.65a1.91,1.91,0,0,1-1.1.47c-.59,0-1.36-.17-1.36-3.51V89.8c0-2.69,1.15-3.43,2.19-3.43,2,0,1.93,2.28,1.62,3.41Z"/><path class="cls-17" d="M153,77.75a15.74,15.74,0,0,0,4.76.71,24.27,24.27,0,0,0,7.81-1.19,55.43,55.43,0,0,0,8-3.11c4-2,7.89-4,11.81-6a107.24,107.24,0,0,1,11.36-5.39,23.57,23.57,0,0,1,6.64-1.57,6.42,6.42,0,0,1,2.6.34,4.31,4.31,0,0,1,2.62,6,9.84,9.84,0,0,1-2.59,3.14q-.56.47-1.14.87h0a14.36,14.36,0,0,1-2.11,1.13c-2.24.94-3.45,1.49-3.45,1.49l.18.44c1.56.24,1.91.73,1.91,3.49v26.65a1.64,1.64,0,0,1-.18.68,1.11,1.11,0,0,0-.08,1.37,10.25,10.25,0,0,0,8.07,4.35c3.67,0,6-2.37,7.4-5.68a27.68,27.68,0,0,0,1.77-9.29c0-8-2.92-14.25-7.8-14.25a9.41,9.41,0,0,0-3.54.6.34.34,0,0,1-.46-.31V71.92a.86.86,0,0,1,.52-.76c.6-.32,1.21-.62,1.78-1A12.19,12.19,0,0,0,213,66.23a6,6,0,0,0,.78-4.49c-.49-2.2-2.09-3.21-4-3.74a17,17,0,0,0-7.41-.1A29.39,29.39,0,0,0,195.49,60c-3.49,1.54-6.92,3.19-10.39,4.8-2.93,1.35-5.82,2.78-8.8,4-2.37,1-4.81,1.84-7.27,2.62a26.55,26.55,0,0,1-4.51.93,16.67,16.67,0,0,1-6.89-.68,16.46,16.46,0,0,1-7.36-4.07c-.37-.37-.61-.34-.85.1-.45.82-.9,1.65-1.31,2.5a4.06,4.06,0,0,0,.44,4.36A8.45,8.45,0,0,0,153,77.75Zm56.56,5.94c2.82,0,3.72,5.38,3.72,12.49,0,6.83-.93,13.13-3.72,13.13s-3.48-6.3-3.48-13.13C206.12,89.07,207.1,83.69,209.6,83.69Z"/><path class="cls-18" d="M132.39,114a21.43,21.43,0,0,0,1.62-9,23.19,23.19,0,0,0-1.14-6.34,30.8,30.8,0,0,0-2.3-5.36,41.24,41.24,0,0,0-8.66-10.59c-2.43-2.22-5-4.33-7.42-6.51a25.18,25.18,0,0,1-4.33-4.67,7.61,7.61,0,0,1-1.32-6.66,7.14,7.14,0,0,1,5.69-5.13,11.11,11.11,0,0,1,8.94,1.75,13,13,0,0,1,5.53,8.4,39.37,39.37,0,0,1,.48,3.91c.07.61.35.76.88.45a4.6,4.6,0,0,0,.72-.53,21.13,21.13,0,0,0,4.95-7.4,6.91,6.91,0,0,0,.59-2.88A5.57,5.57,0,0,0,135,59.87,13,13,0,0,0,130,56.71a23.84,23.84,0,0,0-9.33-1.6,19.41,19.41,0,0,0-8.76,2,11.77,11.77,0,0,0-5.76,6.08,19.19,19.19,0,0,0-1.35,7.71,17.46,17.46,0,0,0,1.63,6.74,23.64,23.64,0,0,0,3.73,5.7c2.06,2.3,4.19,4.54,6.32,6.78a66.64,66.64,0,0,1,6,6.91,22.43,22.43,0,0,1,3.85,8.13,20.9,20.9,0,0,1,.31,7.59c-1,7-6.59,12.16-13.55,13.8a19.56,19.56,0,0,1-10.53-.32A15,15,0,0,1,95,120.57a9.8,9.8,0,0,1-1.79-7.88,14.68,14.68,0,0,1,11.72-11.64c4.12-.8,9.15,1.63,10.07,3.69.12.26.18.53.3.8s.3.36.57.2a1.92,1.92,0,0,0,.54-.48c.94-1.23,2.31-2.49,2-4-.66-3.49-6.94-8-13.11-7.23a18.6,18.6,0,0,0-7.07,2.45,19.26,19.26,0,0,0-6,5.38,15.88,15.88,0,0,0-2.9,6.45c-1.21,6.38,1.48,14,7.38,17.53,5.56,3.34,12.75,3.78,18,2.73C122.86,127.52,130.07,119.66,132.39,114ZM122.33,91.21c-2.63-2.76-5.53-5.25-8.43-7.74a21.1,21.1,0,0,1-4.2-4.56,13.81,13.81,0,0,1-2.25-7.61,13.4,13.4,0,0,1,.16-1.9,19.37,19.37,0,0,0,3.1,8.42,20.47,20.47,0,0,0,3.8,4.21c3.16,2.74,6.28,5.52,9.18,8.51a37.73,37.73,0,0,1,5.05,6.33,16.7,16.7,0,0,1,2.55,8.31c0,1.2,0,2.39-.09,3.59l-.1,0c0-.5-.1-1-.14-1.5a16.29,16.29,0,0,0-.87-4.28C128.58,98.46,125.66,94.72,122.33,91.21Z"/><path class="cls-18" d="M253.7,109.71c-.74-.39-1.54-.65-2.29-1a4,4,0,0,1-.38-.24,1.14,1.14,0,0,1-.26-.36,1.63,1.63,0,0,1-.16-.77V88.46c0-4.18-1.77-5.95-4.18-5.95-3.17,0-4.36,1.73-5.34,3.3a.27.27,0,0,1-.51-.13,3.06,3.06,0,0,0-3.06-2.8,1,1,0,0,0-.8.34l-3.13,3.38.43.52a1.67,1.67,0,0,1,1-.59c.57,0,1.29.52,1.29,2.35v17.67a4.81,4.81,0,0,0,1.45,4c.69.77,2,1.28,2.84.41l3.29-3.64-.54-.65a1.9,1.9,0,0,1-1.11.48c-.58,0-1.35-.18-1.35-3.52V90c0-3.24,1.38-4.17,2.71-4.17s2.42,1,2.42,3.31v18.12c0,1.85.19,2.66,1.32,3.76a4.1,4.1,0,0,0,1.32.42,5.48,5.48,0,0,0,1.82-.22,4.08,4.08,0,0,1,2.88,0,3.81,3.81,0,0,1,2.16,3.72,8.59,8.59,0,0,1-4.29,8.06,16.34,16.34,0,0,1-9,2,31.78,31.78,0,0,1-6.76-1l-8.56-2.22c-2.73-.71-5.46-1.5-8.2-2.14s-5.78-1.3-8.68-1.79q-4.83-.83-9.71-1.36a135.32,135.32,0,0,0-26.92-.13c-2.55.23-5.09.51-7.62.86-3,.41-6.07.81-9.06,1.42a84.89,84.89,0,0,0-14.08,3.83,111.08,111.08,0,0,0-10.17,4.81,13,13,0,0,0-5.87,5.66,6.33,6.33,0,0,0,1,7.67c.92,1,1.91,2,2.88,2.9.44.42.73.37,1-.2a7.87,7.87,0,0,1,2-2.52,39.15,39.15,0,0,1,6.95-4.77,105,105,0,0,1,18.29-8.13c2.12-.68,4.26-1.33,6.42-1.87,1.67-.42,3.36-.69,5-1,2.23-.36,4.45-.73,6.7-1,2.62-.3,5.26-.54,7.9-.68,3.31-.19,6.63-.29,9.95-.35a116.5,116.5,0,0,1,12.8.55c3.18.3,6.36.68,9.53,1.08,1.89.25,3.78.56,5.66.89s3.83.74,5.74,1.1c2.54.48,5.09.92,7.63,1.41A43.72,43.72,0,0,0,247,129.28a17.24,17.24,0,0,0,6.25-1.37,9.57,9.57,0,0,0,5.58-10.74C258.16,113.82,256.58,111.23,253.7,109.71Zm-98.6,13.76a56.79,56.79,0,0,0-8.15,3.22c-2.93,1.42-5.84,2.89-8.71,4.45a35.72,35.72,0,0,0-7.38,5.77c-.17.16-.48.41-.6.33a1.08,1.08,0,0,1-.59-1,1.92,1.92,0,0,1,.15-.9,8.43,8.43,0,0,1,1.13-1.82,25.51,25.51,0,0,1,8-5.81,58.83,58.83,0,0,1,10.95-4,46.48,46.48,0,0,1,8.2-1.36,2.54,2.54,0,0,1,.39,0v.1C157.38,122.8,156.24,123.12,155.1,123.47Z"/><path class="cls-18" d="M262.68,83.36c-5.92,0-8.42,7.66-8.49,13.72-.12,10.36,3.46,15.46,8.49,15.46s8.61-5.1,8.49-15.46C271.1,91,268.6,83.36,262.68,83.36Zm0,27.34c-2.78,0-3.48-6.3-3.48-13.13,0-7.11,1-12.49,3.48-12.49s3.49,5.38,3.49,12.49C266.15,104.4,265.45,110.7,262.66,110.7Z"/><path class="cls-18" d="M220,85.62c.57,0,1.29.52,1.29,2.35v17.66a4.85,4.85,0,0,0,1.44,4c.7.76,2,1.27,2.85.4.56-.6,3.29-3.63,3.29-3.63l-.54-.66a1.9,1.9,0,0,1-1.11.48c-.58,0-1.35-.18-1.35-3.52V89.12c0-2.69,1.15-3.43,2.19-3.43,2,0,1.93,2.27,1.63,3.4l.85.28s2.12-2.53,2.12-5a2.37,2.37,0,0,0-2.55-2.4,3.47,3.47,0,0,0-2.48,1.2c-.48.54-1.35,1.53-1.57,1.74s-.46.16-.5-.14a3.07,3.07,0,0,0-3.07-2.8,1,1,0,0,0-.79.34l-3.14,3.39.43.52A1.62,1.62,0,0,1,220,85.62Z"/><path class="cls-18" d="M137.49,87.34c.15,0,.23.09.23.25v19.12c0,4.65,1.5,6.34,3.43,6.34,2.21,0,4.18-2.15,6.74-4.23a1.15,1.15,0,0,1,1.3-.28,4,4,0,0,0,3.51,1.74,7.78,7.78,0,0,0,5.61-2.59.25.25,0,0,1,.4.13c.6,1.41,1.12,2.73,2.58,2.73.44,0,.62-.06,1.05-.52,1-1,3.29-3.61,3.29-3.61l-.5-.62a2.11,2.11,0,0,1-1.1.5c-1.21,0-1.46-1.37-1.46-5V89.19c0-4.2-1.07-7.34-5.84-7.34-4.16,0-7.44,3.1-7.44,6.1,0,1.71.87,2.83,2.53,2.83a3.48,3.48,0,0,0,2.53-1.14.5.5,0,0,0-.08-.73,3.13,3.13,0,0,1-1.33-2.35c0-1.7,1.23-3.35,2.72-3.35S158,84.62,158,86.78v3.65A1.87,1.87,0,0,1,157,92.21a26.42,26.42,0,0,0-6.4,4.52,9,9,0,0,0-2.65,5.77s0,.06,0,.09a13,13,0,0,0-.06,2c0,.24.08.7.13,1.22h0a2.93,2.93,0,0,1-1.7,2.57c-2.91,1.7-4,1-4-2.25V87.59c0-.16.08-.25.23-.25,2,0,3.83.08,4.68-.44a5,5,0,0,0,1.67-2.83,12.05,12.05,0,0,1-3,.72,25.2,25.2,0,0,1-3.3.1c-.15,0-.23-.09-.23-.25V76.52a1.84,1.84,0,0,1,0-.33L142,75a37,37,0,0,1-5.48,4.56l.64.79a2.26,2.26,0,0,1,.58,1.71v2.6c0,.16-.08.25-.23.25-2.86,0-4.21.37-5,1.09a2.83,2.83,0,0,0-.9,1.92,5.44,5.44,0,0,1,1.61-.45C134.21,87.32,136.48,87.34,137.49,87.34Zm17.73,8.58c1.32-.93,2.14-1.45,2.34-1.59a.28.28,0,0,1,.45.21c0,.2,0,7.69,0,9.74a3.1,3.1,0,0,1-2.8,3.23c-1.64,0-2.75-2.61-2.75-5C152.49,99.94,153.37,97.19,155.22,95.92Z"/><path class="cls-18" d="M189.28,80.5c-5.92,0-8.42,7.67-8.49,13.73-.12,10.35,3.46,15.45,8.49,15.45s8.61-5.1,8.5-15.45C197.71,88.17,195.2,80.5,189.28,80.5Zm0,27.34c-2.78,0-3.49-6.29-3.49-13.12,0-7.12,1-12.49,3.49-12.49s3.48,5.37,3.48,12.49C192.75,101.55,192.05,107.84,189.27,107.84Z"/><path class="cls-18" d="M177.81,88.91s2.12-2.52,2.12-5a2.36,2.36,0,0,0-2.55-2.4,3.45,3.45,0,0,0-2.48,1.2c-.47.54-1.35,1.53-1.57,1.74s-.46.16-.51-.14a3.05,3.05,0,0,0-3.06-2.8,1,1,0,0,0-.79.34l-3.13,3.39.42.52c.44-.42.75-.59,1-.59.57,0,1.3.52,1.3,2.35v17.66a4.8,4.8,0,0,0,1.44,4c.7.77,2,1.28,2.84.41.57-.6,3.29-3.63,3.29-3.63l-.54-.66a1.9,1.9,0,0,1-1.1.48c-.59,0-1.36-.18-1.36-3.52V88.67c0-2.69,1.15-3.43,2.19-3.43,2,0,1.93,2.27,1.63,3.4Z"/><path class="cls-18" d="M152.34,76.62a15.77,15.77,0,0,0,4.76.7,24.26,24.26,0,0,0,7.81-1.18,56.61,56.61,0,0,0,8-3.11c4-2,7.89-4,11.81-6a105.38,105.38,0,0,1,11.36-5.4,23.57,23.57,0,0,1,6.64-1.57,6.4,6.4,0,0,1,2.6.35,4.31,4.31,0,0,1,2.63,6,9.77,9.77,0,0,1-2.6,3.14,11.47,11.47,0,0,1-1.14.87h0a14.36,14.36,0,0,1-2.11,1.13c-2.24,1-3.45,1.49-3.45,1.49l.18.45c1.57.24,1.91.72,1.91,3.49v26.65a1.64,1.64,0,0,1-.18.67,1.13,1.13,0,0,0-.08,1.37,10.25,10.25,0,0,0,8.07,4.35c3.67,0,6-2.37,7.4-5.68a27.58,27.58,0,0,0,1.77-9.28c0-8-2.91-14.26-7.8-14.26a9.24,9.24,0,0,0-3.54.61.35.35,0,0,1-.46-.32V70.78a.87.87,0,0,1,.52-.76c.6-.31,1.21-.62,1.78-1a12.1,12.1,0,0,0,4.11-3.94,6,6,0,0,0,.78-4.49c-.49-2.19-2.08-3.21-4-3.74a17,17,0,0,0-7.41-.1,28.94,28.94,0,0,0-6.84,2.08c-3.49,1.53-6.92,3.19-10.38,4.79-2.94,1.35-5.83,2.78-8.81,4-2.37,1-4.81,1.84-7.27,2.61a26.57,26.57,0,0,1-4.51.94,16.84,16.84,0,0,1-6.89-.68,16.46,16.46,0,0,1-7.36-4.07c-.36-.37-.61-.35-.85.09-.45.83-.9,1.65-1.31,2.5a4.08,4.08,0,0,0,.44,4.37A8.59,8.59,0,0,0,152.34,76.62Zm56.56,5.94c2.83,0,3.72,5.37,3.72,12.49,0,6.83-.93,13.12-3.72,13.12s-3.48-6.29-3.48-13.12C205.42,87.93,206.41,82.56,208.9,82.56Z"/><path class="cls-16" d="M60.39,129.4a17.71,17.71,0,0,0-5.85,0A2.7,2.7,0,0,0,56,125.91c-1.12.75-3.4,2.72-3.43,4.1C54,130.89,57.52,131,60.39,129.4Z"/><path class="cls-16" d="M51.7,127.66c-1.25.66-3.86,2.42-4.14,3.78,1.19,1,4.71,1.37,7.83.07a17.16,17.16,0,0,0-5.78-.55A3,3,0,0,0,51.7,127.66Z"/><path class="cls-16" d="M58.57,127.06c1.84-1.07,2.18-2.57,1.51-3.88-1.56,1.21-2.64,3.28-2.48,4.29,1.49.77,4.95.52,7.32-1.07A13.71,13.71,0,0,0,58.57,127.06Z"/><path class="cls-16" d="M68.26,123.29a10.31,10.31,0,0,0-5.79,1.37,2.73,2.73,0,0,0,.58-3.94c-1.39,1.44-1.75,3.53-1.27,4.41A8,8,0,0,0,68.26,123.29Z"/><path class="cls-16" d="M71.12,120.2A8.72,8.72,0,0,0,65.9,122a2.69,2.69,0,0,0-.09-3.85c-1.19,1.54-1,3.57-.4,4.31A7.1,7.1,0,0,0,71.12,120.2Z"/><path class="cls-16" d="M73,117a7.34,7.34,0,0,0-4.67,2.08,2.67,2.67,0,0,0-.59-3.67,3.47,3.47,0,0,0,.24,4.1A6.26,6.26,0,0,0,73,117Z"/><path class="cls-16" d="M72.27,112.86c-1.61.91-3.07,2.5-2.22,3.8A2.85,2.85,0,0,0,72.27,112.86Z"/><path class="cls-16" d="M36.09,129.9c0-1.37-2.31-3.34-3.42-4.1a2.71,2.71,0,0,0,1.48,3.46,17.65,17.65,0,0,0-5.84,0C31.17,130.86,34.73,130.78,36.09,129.9Z"/><path class="cls-16" d="M41.14,131.33c-.27-1.36-2.9-3.12-4.14-3.77a3,3,0,0,0,2.09,3.3,17.57,17.57,0,0,0-5.79.54C36.42,132.7,39.94,132.32,41.14,131.33Z"/><path class="cls-16" d="M31.1,127.37c.16-1-.93-3.08-2.49-4.3-.66,1.32-.32,2.81,1.52,3.89a13.71,13.71,0,0,0-6.35-.66C26.15,127.89,29.6,128.14,31.1,127.37Z"/><path class="cls-16" d="M26.92,125c.48-.87.12-3-1.27-4.41a2.73,2.73,0,0,0,.58,3.94,10.52,10.52,0,0,0-5.8-1.37A8,8,0,0,0,26.92,125Z"/><path class="cls-16" d="M23.29,122.37a3.8,3.8,0,0,0-.4-4.3,2.68,2.68,0,0,0-.09,3.84,8.72,8.72,0,0,0-5.23-1.81A7.15,7.15,0,0,0,23.29,122.37Z"/><path class="cls-16" d="M20.69,119.41a3.45,3.45,0,0,0,.25-4.1,2.68,2.68,0,0,0-.59,3.68,7.36,7.36,0,0,0-4.68-2.09A6.28,6.28,0,0,0,20.69,119.41Z"/><path class="cls-16" d="M18.64,116.56c.86-1.3-.6-2.9-2.21-3.81A2.84,2.84,0,0,0,18.64,116.56Z"/><path class="cls-16" d="M43.22,131.77c0,.54.66,1,1.47,1s1.48-.43,1.48-1-.66-1-1.48-1S43.22,131.24,43.22,131.77Z"/><path class="cls-16" d="M70.88,61.5c-.8-.2-10.83-2.33-26.54-2.33S18.63,61.3,17.83,61.5l-1.39.36v26c0,18.07,10,30.77,27.49,34.83l.41.1.41-.1c17.49-4.06,27.52-16.76,27.52-34.83v-26ZM44.34,116.75c-7.05-1.8-12.53-5.2-16.28-10.1s-5.68-11.34-5.68-18.78V66.43c5.32-1.27,17.32-2.15,22-2.15s16.67.88,22,2.15V87.87c0,7.43-2,13.92-5.69,18.78S51.41,115,44.34,116.75Z"/><path class="cls-18" d="M44.34,115.71a28.24,28.24,0,0,1-15.12-9.57c-3.58-4.49-5.4-10.65-5.4-17.51V68.36c7.47-1.67,16.9-3.52,20.52-3.52s13.08,1.85,20.54,3.52V88.63c0,6.86-1.81,13-5.4,17.51A28.26,28.26,0,0,1,44.34,115.71Zm18.58-7.14c4.21-5.26,6.35-12.09,6.35-19.94V65c-5.06-1.18-11.22-2.64-24.93-2.64S24.5,63.79,19.44,65V88.63c0,7.85,2.13,14.68,6.35,19.94s10.51,9,18.55,10.87C52.4,117.57,58.64,113.91,62.92,108.57Z"/><path class="cls-19" d="M44.51,116.69a29.94,29.94,0,0,1-16-10.06c-3.79-4.72-5.72-11.2-5.72-18.41V66.89c7.91-1.76,17.89-1.84,21.73-1.84s13.85.08,21.76,1.84V88.22c0,7.21-1.93,13.69-5.73,18.41A29.92,29.92,0,0,1,44.51,116.69Z"/><path class="cls-16" d="M44.29,117.25l-.12,0A30.39,30.39,0,0,1,27.91,107c-3.81-4.75-5.83-11.21-5.83-18.7V66.59l.37-.08c5.53-1.23,12.87-1.85,21.84-1.85s16.34.62,21.86,1.85l.37.08v21.7c0,7.5-2,14-5.83,18.7a30.44,30.44,0,0,1-16.28,10.23ZM23,67.34v21c0,7.27,1.95,13.54,5.62,18.12a29.43,29.43,0,0,0,15.64,9.87,29.43,29.43,0,0,0,15.65-9.87c3.68-4.57,5.63-10.83,5.63-18.12v-21a105.39,105.39,0,0,0-21.28-1.75A105.38,105.38,0,0,0,23,67.34Z"/><path class="cls-16" d="M40.51,105.33a2.24,2.24,0,0,0,.22.4c.1-.09.22-.19.32-.3a.68.68,0,0,0,.13-.27c.31-1,.21-2.27-1.24-2.21-.39,0-.79,0-1.18,0s-.43-.14-.26-.45.43-.77.66-1.14.18-.58-.2-.87-.61-.42-.86,0c-.38.59-.74,1.21-1.07,1.83a1.1,1.1,0,0,1-1.12.64c-1.4,0-2.64,0-4,.08a1.21,1.21,0,0,0-1.2,1.1,1.74,1.74,0,0,0,1.19,1.6,3.59,3.59,0,0,1,0-.43.73.73,0,0,1,.52-.85,2.3,2.3,0,0,1,.69-.1c.71,0,1.42,0,2.13,0,.51,0,.6.16.33.65s-.59,1-.85,1.49a.85.85,0,0,0-.13.58c.26.7.36,1.54,1.17,1.78l.79.24a7.52,7.52,0,0,0-.17-.85,2.36,2.36,0,0,1,.1-2.12,11.53,11.53,0,0,0,.69-1.24.9.9,0,0,1,.88-.53h1.44C40.08,104.36,40.34,104.61,40.51,105.33Z"/><path class="cls-16" d="M56.83,103c-1.39-.06-2.64-.09-4-.08a1.11,1.11,0,0,1-1.12-.64c-.33-.62-.69-1.24-1.06-1.83-.26-.42-.35-.42-.87,0s-.42.49-.19.87.45.75.65,1.14,0,.45-.25.45-.8,0-1.19,0c-1.45-.06-1.55,1.17-1.25,2.21a.87.87,0,0,0,.14.27c.1.11.22.21.32.3a1.75,1.75,0,0,0,.22-.4c.16-.72.42-1,1.09-1h1.43a.91.91,0,0,1,.89.53,11.61,11.61,0,0,0,.7,1.24,2.4,2.4,0,0,1,.09,2.12,7.52,7.52,0,0,0-.17.85l.79-.24c.81-.24.91-1.08,1.17-1.78a.85.85,0,0,0-.13-.58c-.26-.51-.57-1-.85-1.49s-.18-.65.33-.65c.71,0,1.42,0,2.13,0a2.3,2.3,0,0,1,.69.1.73.73,0,0,1,.52.85,3.59,3.59,0,0,1,0,.43,1.73,1.73,0,0,0,1.19-1.6A1.21,1.21,0,0,0,56.83,103Z"/><path class="cls-16" d="M38.79,96.84c-1.16,1.74,1.94,3.86,1.94,3.86s.88-1.43,1.77-2.91a12.16,12.16,0,0,1-2.29-1.71,6.87,6.87,0,0,1-.55-.66C39.41,95.87,39.13,96.32,38.79,96.84Z"/><path class="cls-16" d="M38.31,93.33a8.5,8.5,0,0,1-.52-1.57,8.65,8.65,0,0,1-.22-1.49v-.12c-2.33-2.35-4.3-4.79-5.15-7.22A22.3,22.3,0,0,1,32,71.85c0-.11.84-.23.84-.08s-1.21,5.9.73,10.74a12.88,12.88,0,0,0,4,5.41V84.65a11,11,0,0,1-2.88-7.16,13.69,13.69,0,0,1,2-7.88c.32-.47,0-.52-.18-.52-3.94-.25-12.28.85-12.28.85l0,.54s0,1.5,0,1.81.14.55.49.54c.83,0,3.12-.37,3.94-.37.47,0,.55.14.46.66-.13.71-.3,1.44-.37,2.16,0,.45-.36.58-.68.65-1.15.23-3.75.41-3.75.41a13.73,13.73,0,0,0,0,1.71,4.81,4.81,0,0,0,.24,1.62c.07,0,.3,0,.51,0a25.9,25.9,0,0,0,3.41-.76c.33-.11.57,0,.65.4.13.63,0,1.34.12,2a.65.65,0,0,1-.29.76,9.14,9.14,0,0,1-2.23,1,8,8,0,0,1-2.38.49,15,15,0,0,0,0,1.59,7,7,0,0,0,.2,1.64c.05.2.2.19.43.14.53-.11,1.77-.44,2.09-.56a14.45,14.45,0,0,0,3.08-1.59c.21-.14.38,0,.52.18.33.55.66,1.38,1,1.92a.51.51,0,0,1-.12.76,15.84,15.84,0,0,1-5,3.16c-.51.2-1.42.43-1.42.43s.09.85.28,1.72a4.45,4.45,0,0,0,.43,1.36s.2.38.43.3a19.57,19.57,0,0,0,4.05-2,15.39,15.39,0,0,0,3.27-2.74.48.48,0,0,1,.75,0c.34.28.93,1.07,1.29,1.33s.35.48.09.82c-.57.74-1.1,1.51-1.69,2.24a22.19,22.19,0,0,1-4.79,4c-.48.26-2,1-2,1a8,8,0,0,0,.56,1.52,3.82,3.82,0,0,0,.76,1c.33.27.41.38.71.23a18.59,18.59,0,0,0,2.88-1.66A25,25,0,0,0,38.31,93.33Z"/><path class="cls-16" d="M60.64,75.93c-.32-.07-.64-.2-.68-.65-.07-.72-.24-1.45-.37-2.16-.09-.52,0-.66.46-.66.82,0,3.11.35,3.94.37.35,0,.49-.15.49-.54s0-1.8,0-1.81v-.54s-8.34-1.1-12.28-.85c-.14,0-.5,0-.18.52A13.69,13.69,0,0,1,54,77.49a11,11,0,0,1-2.88,7.16v3.27a13,13,0,0,0,4-5.41c1.93-4.84.73-10.56.73-10.74s.81,0,.83.08a22.3,22.3,0,0,1-.46,11.08c-.84,2.43-2.82,4.87-5.16,7.22v.12a9.71,9.71,0,0,1-.21,1.49,9.35,9.35,0,0,1-.53,1.57,25.11,25.11,0,0,0,6.18,7A19.07,19.07,0,0,0,59.45,102c.3.15.38,0,.71-.23a3.82,3.82,0,0,0,.76-1,8,8,0,0,0,.56-1.52s-1.48-.73-2-1a22,22,0,0,1-4.79-4c-.59-.73-1.12-1.5-1.69-2.24-.26-.34-.23-.58.09-.82s.95-1,1.29-1.33.52-.27.75,0a15.65,15.65,0,0,0,3.27,2.74,19.57,19.57,0,0,0,4.05,2c.23.08.43-.28.43-.3a4.88,4.88,0,0,0,.43-1.36c.19-.87.28-1.72.28-1.72s-.91-.23-1.42-.43a15.84,15.84,0,0,1-5-3.16.51.51,0,0,1-.12-.76c.34-.54.67-1.37,1-1.92.14-.23.32-.32.53-.18a14.14,14.14,0,0,0,3.07,1.59c.32.12,1.57.45,2.09.56.24.05.38.06.44-.14a7.45,7.45,0,0,0,.19-1.64,15,15,0,0,0,0-1.59A8.07,8.07,0,0,1,62,83a8.66,8.66,0,0,1-2.22-1,.64.64,0,0,1-.3-.76c.13-.63,0-1.34.12-2,.08-.41.33-.51.65-.4a25.9,25.9,0,0,0,3.41.76c.21,0,.43.1.51,0a4.81,4.81,0,0,0,.24-1.62,13.73,13.73,0,0,0,0-1.71S61.79,76.16,60.64,75.93Z"/><path class="cls-16" d="M48.49,96.08a12.16,12.16,0,0,1-2.29,1.71c.89,1.48,1.77,2.91,1.77,2.91s3.09-2.12,1.94-3.86c-.34-.52-.61-1-.86-1.42C48.87,95.65,48.69,95.87,48.49,96.08Z"/><path class="cls-16" d="M47.47,108.6a5.14,5.14,0,0,1-1.38-3c-.2-1.47-.27-3-.34-4.48a3,3,0,0,0-.36-1.63,8.44,8.44,0,0,1-.52-.94l-.51.28a0,0,0,0,1,0,0h0l-.51-.28a7.09,7.09,0,0,1-.52.94,3,3,0,0,0-.36,1.63c-.07,1.5-.14,3-.34,4.48a5.08,5.08,0,0,1-1.38,3c-.58.56-1.25,1-1.87,1.54a3.15,3.15,0,0,0-.22.29c.08.07.14.16.22.18,1,.25,1.92.51,2.88.69A.92.92,0,0,0,43,111,13.6,13.6,0,0,0,44,109.71c.12-.17.22-.25.32-.27s.2.1.32.27A12.25,12.25,0,0,0,45.73,111a.91.91,0,0,0,.73.27c1-.18,1.92-.44,2.88-.69.08,0,.15-.11.21-.18a1.42,1.42,0,0,0-.21-.29C48.72,109.62,48.05,109.16,47.47,108.6Z"/><path class="cls-16" d="M50.29,90.88l0-.22H38.38v0l0,.17a4.89,4.89,0,0,0,.09.53,8.48,8.48,0,0,0,.34,1.22,9.06,9.06,0,0,0,.94,1.83.11.11,0,0,0,.09.05h9a0,0,0,0,0,.06,0,9.41,9.41,0,0,0,.78-1.43c.06-.13.12-.27.17-.41a9.32,9.32,0,0,0,.38-1.4C50.26,91.12,50.27,91,50.29,90.88Z"/><path class="cls-16" d="M50.37,85.33v-.2h-12v1.69h12Z"/><path class="cls-16" d="M42.06,71h4.83c.36-.81.67-1.65,1-2.5.11-.35-.09-.54-.38-.42a5.36,5.36,0,0,0-1.13.71c-.59.49-.62.51-1-.21-.23-.41-.43-.82-.65-1.22a1.54,1.54,0,0,0-.21-.29s0,0,0,0h0a1.19,1.19,0,0,0-.21.29c-.22.4-.42.81-.64,1.22-.4.72-.43.7-1,.21a5.56,5.56,0,0,0-1.12-.71c-.3-.12-.5.07-.38.42C41.38,69.37,41.69,70.21,42.06,71Z"/><path class="cls-16" d="M36.91,75.7c.13.39.48.94.5.58a1.83,1.83,0,0,1,1.07-1.56.63.63,0,0,1,.59.08,1.05,1.05,0,0,1,.32.34,9.12,9.12,0,0,1,.88,4.9c-.17,3-1.15,4.14-1.64,4.55H50.19c-.5-.41-1.48-1.57-1.65-4.55a9.22,9.22,0,0,1,.88-4.9,1.05,1.05,0,0,1,.32-.34.63.63,0,0,1,.59-.08,1.83,1.83,0,0,1,1.07,1.56c0,.36.37-.19.5-.58A6.81,6.81,0,0,0,52.11,74c0-.48-.21-1.42-.6-1.51a2.57,2.57,0,0,0-.61-.09H46.65a.53.53,0,0,0-.43.23,2.59,2.59,0,0,1,.81,2.1s0,.08,0,.12c-.25.68-1,1.5-1.8,3.18-.28.6-.56,1.23-.78,1.86-.23-.63-.51-1.26-.78-1.86-.78-1.68-1.55-2.5-1.81-3.18,0,0,0-.08,0-.12a2.59,2.59,0,0,1,.81-2.1.52.52,0,0,0-.43-.23H37.92a2.58,2.58,0,0,0-.62.09c-.39.09-.62,1-.6,1.51A6.81,6.81,0,0,0,36.91,75.7Z"/></g></g></svg>